<svg id="Layer_1" data-name="Layer 1" xmlns="http://www.w3.org/2000/svg" viewBox="0 0 274.53 262.5">
  <defs>
    <style>
      .cls-1 {
        fill: #1976d2;
      }
    </style>
  </defs>
  <title>background-dots</title>
  <path class="cls-1" d="M114,128.49a0,0,0,0,1,0,0s0,0,0,0a0,0,0,0,1,0,0S114,128.49,114,128.49Z" transform="translate(-13.47 -25.58)"/>
  <path class="cls-1" d="M121.52,130.22s0,0,0,0l0,0a0,0,0,0,1,0,0S121.53,130.22,121.52,130.22Z" transform="translate(-13.47 -25.58)"/>
  <path class="cls-1" d="M127.59,125.38s0,0,0,0a0,0,0,0,1,0,0l0,0A0,0,0,0,1,127.59,125.38Z" transform="translate(-13.47 -25.58)"/>
  <path class="cls-1" d="M127.59,117.61a0,0,0,0,1,0,0s0,0,0,0a0,0,0,0,1,0,0Z" transform="translate(-13.47 -25.58)"/>
  <circle class="cls-1" cx="94.9" cy="109.88" r="0.02"/>
  <circle class="cls-1" cx="102.07" cy="113.34" r="0.02"/>
  <path class="cls-1" d="M123.51,139a.05.05,0,0,1-.05-.05,0,0,0,0,1,.1,0A.05.05,0,0,1,123.51,139Z" transform="translate(-13.47 -25.58)"/>
  <path class="cls-1" d="M130.69,135.51a.05.05,0,1,1,0-.1,0,0,0,0,1,0,.1Z" transform="translate(-13.47 -25.58)"/>
  <path class="cls-1" d="M135.65,129.28a.05.05,0,0,1-.05-.05.06.06,0,0,1,.05,0,.05.05,0,0,1,0,0A0,0,0,0,1,135.65,129.28Z" transform="translate(-13.47 -25.58)"/>
  <circle class="cls-1" cx="123.95" cy="95.89" r="0.05"/>
  <path class="cls-1" d="M135.65,113.73s0,0,0,0a0,0,0,0,1,0,0s0,0,0,0A0,0,0,0,1,135.65,113.73Z" transform="translate(-13.47 -25.58)"/>
  <circle class="cls-1" cx="89.32" cy="116.88" r="0.02"/>
  <circle class="cls-1" cx="96.25" cy="120.88" r="0.02"/>
  <path class="cls-1" d="M117.52,148.29a0,0,0,0,1,0-.1,0,0,0,0,1,0,.1Z" transform="translate(-13.47 -25.58)"/>
  <path class="cls-1" d="M125.5,147.72a.08.08,0,0,1-.07-.08.07.07,0,0,1,.07-.07.08.08,0,0,1,.08.07A.09.09,0,0,1,125.5,147.72Z" transform="translate(-13.47 -25.58)"/>
  <path class="cls-1" d="M133,144.79a.07.07,0,0,1-.07-.07.08.08,0,0,1,.07-.08.09.09,0,0,1,.08.08A.08.08,0,0,1,133,144.79Z" transform="translate(-13.47 -25.58)"/>
  <path class="cls-1" d="M139.21,139.83a.1.1,0,0,1-.1-.1.09.09,0,0,1,.1-.1.1.1,0,0,1,.1.1A.11.11,0,0,1,139.21,139.83Z" transform="translate(-13.47 -25.58)"/>
  <circle class="cls-1" cx="130.24" cy="107.54" r="0.07"/>
  <path class="cls-1" d="M146.07,125.54a.07.07,0,0,1,0-.14.07.07,0,1,1,0,.14Z" transform="translate(-13.47 -25.58)"/>
  <path class="cls-1" d="M146.07,117.52a.06.06,0,0,1,0,0,.05.05,0,0,1,0,0,0,0,0,0,1,.05,0A.05.05,0,0,1,146.07,117.52Z" transform="translate(-13.47 -25.58)"/>
  <path class="cls-1" d="M143.72,109.85a0,0,0,0,1,0,0s0,0,0,0l0,0S143.73,109.85,143.72,109.85Z" transform="translate(-13.47 -25.58)"/>
  <circle class="cls-1" cx="125.73" cy="77.63" r="0.02"/>
  <path class="cls-1" d="M97.21,149.48s0,0,0,0l0,0s0,0,0,0A0,0,0,0,1,97.21,149.48Z" transform="translate(-13.47 -25.58)"/>
  <circle class="cls-1" cx="90.52" cy="128.14" r="0.02"/>
  <path class="cls-1" d="M111.56,156.41a.05.05,0,0,1,0,0,.06.06,0,0,1,0-.05.05.05,0,0,1,0,.05A0,0,0,0,1,111.56,156.41Z" transform="translate(-13.47 -25.58)"/>
  <path class="cls-1" d="M119.53,157.34a.09.09,0,0,1-.08-.08.08.08,0,0,1,.08-.07.07.07,0,0,1,.07.07A.08.08,0,0,1,119.53,157.34Z" transform="translate(-13.47 -25.58)"/>
  <path class="cls-1" d="M127.49,156.46a.1.1,0,0,1-.1-.1.1.1,0,0,1,.1-.09.09.09,0,0,1,.1.09A.09.09,0,0,1,127.49,156.46Z" transform="translate(-13.47 -25.58)"/>
  <path class="cls-1" d="M135.06,153.84a.12.12,0,0,1-.13-.12.13.13,0,0,1,.13-.13.12.12,0,0,1,.12.13A.12.12,0,0,1,135.06,153.84Z" transform="translate(-13.47 -25.58)"/>
  <path class="cls-1" d="M141.85,149.58a.13.13,0,0,1-.13-.13.12.12,0,0,1,.13-.12.12.12,0,0,1,.12.12A.13.13,0,0,1,141.85,149.58Z" transform="translate(-13.47 -25.58)"/>
  <path class="cls-1" d="M147.51,143.91a.12.12,0,0,1-.12-.12.12.12,0,0,1,.12-.13.13.13,0,0,1,.13.13A.13.13,0,0,1,147.51,143.91Z" transform="translate(-13.47 -25.58)"/>
  <path class="cls-1" d="M151.78,137.12a.12.12,0,0,1-.13-.12.13.13,0,0,1,.13-.13.12.12,0,0,1,.12.13A.12.12,0,0,1,151.78,137.12Z" transform="translate(-13.47 -25.58)"/>
  <path class="cls-1" d="M154.42,129.53a.09.09,0,0,1-.09-.1.1.1,0,0,1,.09-.1.1.1,0,0,1,.1.1A.09.09,0,0,1,154.42,129.53Z" transform="translate(-13.47 -25.58)"/>
  <path class="cls-1" d="M155.32,121.54a.07.07,0,0,1-.07-.07.08.08,0,0,1,.07-.08.09.09,0,0,1,.08.08A.08.08,0,0,1,155.32,121.54Z" transform="translate(-13.47 -25.58)"/>
  <path class="cls-1" d="M154.42,113.55a0,0,0,0,1,0,0s0,0,0,0a.05.05,0,0,1,.05,0A0,0,0,0,1,154.42,113.55Z" transform="translate(-13.47 -25.58)"/>
  <circle class="cls-1" cx="138.3" cy="80.36" r="0.02"/>
  <path class="cls-1" d="M147.51,99.18s0,0,0,0a0,0,0,0,1,0,0s0,0,0,0A0,0,0,0,1,147.51,99.18Z" transform="translate(-13.47 -25.58)"/>
  <circle class="cls-1" cx="78.16" cy="130.87" r="0.02"/>
  <circle class="cls-1" cx="84.85" cy="135.29" r="0.05"/>
  <path class="cls-1" d="M105.7,164.07a.05.05,0,0,1,0-.1.05.05,0,0,1,0,.1Z" transform="translate(-13.47 -25.58)"/>
  <path class="cls-1" d="M113.52,165.9a.1.1,0,0,1-.1-.09.1.1,0,0,1,.1-.1.09.09,0,0,1,.1.1A.09.09,0,0,1,113.52,165.9Z" transform="translate(-13.47 -25.58)"/>
  <path class="cls-1" d="M121.54,166.29a.13.13,0,0,1-.13-.12.13.13,0,0,1,.13-.13.13.13,0,0,1,.12.13A.13.13,0,0,1,121.54,166.29Z" transform="translate(-13.47 -25.58)"/>
  <path class="cls-1" d="M129.48,165.24a.15.15,0,0,1,0-.3.15.15,0,0,1,0,.3Z" transform="translate(-13.47 -25.58)"/>
  <circle class="cls-1" cx="123.64" cy="137.03" r="0.17"/>
  <path class="cls-1" d="M144.18,159a.18.18,0,0,1-.18-.17.17.17,0,0,1,.18-.17.17.17,0,0,1,.17.17A.18.18,0,0,1,144.18,159Z" transform="translate(-13.47 -25.58)"/>
  <path class="cls-1" d="M150.45,154a.2.2,0,1,1,.2-.2A.2.2,0,0,1,150.45,154Z" transform="translate(-13.47 -25.58)"/>
  <path class="cls-1" d="M155.73,148a.2.2,0,0,1,0-.4.2.2,0,0,1,0,.4Z" transform="translate(-13.47 -25.58)"/>
  <circle class="cls-1" cx="146.37" cy="115.3" r="0.17"/>
  <path class="cls-1" d="M162.66,133.52a.15.15,0,1,1,.15-.15A.15.15,0,0,1,162.66,133.52Z" transform="translate(-13.47 -25.58)"/>
  <path class="cls-1" d="M164.09,125.6a.12.12,0,1,1,.12-.12A.12.12,0,0,1,164.09,125.6Z" transform="translate(-13.47 -25.58)"/>
  <path class="cls-1" d="M164.09,117.56a.11.11,0,0,1-.1-.1.1.1,0,0,1,.1-.1.09.09,0,0,1,.1.1A.1.1,0,0,1,164.09,117.56Z" transform="translate(-13.47 -25.58)"/>
  <path class="cls-1" d="M162.66,109.64a.08.08,0,0,1-.08-.07.08.08,0,0,1,.08-.08.07.07,0,0,1,.07.08A.07.07,0,0,1,162.66,109.64Z" transform="translate(-13.47 -25.58)"/>
  <path class="cls-1" d="M159.84,102.11a.05.05,0,0,1-.05,0,0,0,0,1,1,.1,0A.05.05,0,0,1,159.84,102.11Z" transform="translate(-13.47 -25.58)"/>
  <path class="cls-1" d="M155.73,95.19s0,0,0,0a0,0,0,0,1,0,0s0,0,0,0A0,0,0,0,1,155.73,95.19Z" transform="translate(-13.47 -25.58)"/>
  <path class="cls-1" d="M86.05,163.47a0,0,0,0,1,0,0s0,0,0,0a0,0,0,0,1,0,0S86.07,163.47,86.05,163.47Z" transform="translate(-13.47 -25.58)"/>
  <path class="cls-1" d="M92.68,168a.06.06,0,0,1-.05-.05.05.05,0,0,1,.05-.05,0,0,0,0,1,0,.05A.05.05,0,0,1,92.68,168Z" transform="translate(-13.47 -25.58)"/>
  <path class="cls-1" d="M99.91,171.52a.07.07,0,0,1-.07-.07.08.08,0,0,1,.07-.08.09.09,0,0,1,.08.08A.08.08,0,0,1,99.91,171.52Z" transform="translate(-13.47 -25.58)"/>
  <path class="cls-1" d="M107.58,173.91a.1.1,0,0,1-.1-.1.11.11,0,0,1,.1-.1.1.1,0,0,1,.1.1A.09.09,0,0,1,107.58,173.91Z" transform="translate(-13.47 -25.58)"/>
  <path class="cls-1" d="M115.52,175.13a.12.12,0,0,1-.13-.12.13.13,0,0,1,.13-.13.13.13,0,0,1,.12.13A.12.12,0,0,1,115.52,175.13Z" transform="translate(-13.47 -25.58)"/>
  <circle class="cls-1" cx="110.07" cy="149.43" r="0.17"/>
  <path class="cls-1" d="M131.48,174a.2.2,0,1,1,0-.4.2.2,0,0,1,0,.4Z" transform="translate(-13.47 -25.58)"/>
  <path class="cls-1" d="M139.14,171.67a.22.22,0,0,1-.22-.22.23.23,0,1,1,.22.22Z" transform="translate(-13.47 -25.58)"/>
  <path class="cls-1" d="M146.37,168.21a.25.25,0,0,1,0-.49.25.25,0,1,1,0,.49Z" transform="translate(-13.47 -25.58)"/>
  <path class="cls-1" d="M153,163.69a.25.25,0,0,1,0-.49.25.25,0,1,1,0,.49Z" transform="translate(-13.47 -25.58)"/>
  <path class="cls-1" d="M158.89,158.24a.25.25,0,0,1-.25-.25.25.25,0,1,1,.49,0A.25.25,0,0,1,158.89,158.24Z" transform="translate(-13.47 -25.58)"/>
  <path class="cls-1" d="M163.89,152a.25.25,0,1,1,.25-.25A.25.25,0,0,1,163.89,152Z" transform="translate(-13.47 -25.58)"/>
  <path class="cls-1" d="M167.9,145a.22.22,0,0,1-.22-.23.22.22,0,0,1,.22-.22.23.23,0,1,1,0,.45Z" transform="translate(-13.47 -25.58)"/>
  <circle class="cls-1" cx="157.36" cy="111.72" r="0.2"/>
  <path class="cls-1" d="M172.62,129.64a.17.17,0,1,1,.17-.17A.16.16,0,0,1,172.62,129.64Z" transform="translate(-13.47 -25.58)"/>
  <path class="cls-1" d="M173.22,121.62a.15.15,0,1,1,.15-.15A.15.15,0,0,1,173.22,121.62Z" transform="translate(-13.47 -25.58)"/>
  <circle class="cls-1" cx="159.15" cy="87.89" r="0.12"/>
  <path class="cls-1" d="M170.83,105.72a.08.08,0,0,1-.07-.08.07.07,0,0,1,.07-.07.08.08,0,0,1,.08.07A.09.09,0,0,1,170.83,105.72Z" transform="translate(-13.47 -25.58)"/>
  <path class="cls-1" d="M167.9,98.22a0,0,0,0,1-.05,0,.05.05,0,0,1,.1,0A0,0,0,0,1,167.9,98.22Z" transform="translate(-13.47 -25.58)"/>
  <circle class="cls-1" cx="150.42" cy="65.65" r="0.02"/>
  <circle class="cls-1" cx="145.41" cy="59.37" r="0.02"/>
  <path class="cls-1" d="M80.47,170.47s0,0,0,0a0,0,0,0,1,0,0s0,0,0,0A0,0,0,0,1,80.47,170.47Z" transform="translate(-13.47 -25.58)"/>
  <path class="cls-1" d="M87.06,175.08a0,0,0,0,1,0-.05.05.05,0,0,1,0-.05.06.06,0,0,1,0,.05A.05.05,0,0,1,87.06,175.08Z" transform="translate(-13.47 -25.58)"/>
  <path class="cls-1" d="M94.17,178.82a.07.07,0,0,1-.07-.07.08.08,0,0,1,.07-.08.09.09,0,0,1,.08.08A.08.08,0,0,1,94.17,178.82Z" transform="translate(-13.47 -25.58)"/>
  <path class="cls-1" d="M101.71,181.62a.1.1,0,0,1-.1-.1.09.09,0,0,1,.1-.1.1.1,0,0,1,.1.1A.11.11,0,0,1,101.71,181.62Z" transform="translate(-13.47 -25.58)"/>
  <path class="cls-1" d="M109.53,183.45a.15.15,0,0,1-.15-.15.15.15,0,0,1,.3,0A.15.15,0,0,1,109.53,183.45Z" transform="translate(-13.47 -25.58)"/>
  <circle class="cls-1" cx="104.05" cy="158.5" r="0.17"/>
  <circle class="cls-1" cx="112.07" cy="158.24" r="0.22"/>
  <path class="cls-1" d="M133.47,182.78a.25.25,0,1,1,0-.49.25.25,0,1,1,0,.49Z" transform="translate(-13.47 -25.58)"/>
  <path class="cls-1" d="M141.16,180.53a.28.28,0,0,1-.27-.28.27.27,0,0,1,.54,0A.28.28,0,0,1,141.16,180.53Z" transform="translate(-13.47 -25.58)"/>
  <path class="cls-1" d="M148.5,177.3a.3.3,0,1,1,0-.59.3.3,0,1,1,0,.59Z" transform="translate(-13.47 -25.58)"/>
  <circle class="cls-1" cx="141.89" cy="147.26" r="0.32"/>
  <circle class="cls-1" cx="148.17" cy="142.26" r="0.32"/>
  <path class="cls-1" d="M167.22,162.4a.33.33,0,0,1-.32-.33.33.33,0,0,1,.65,0A.33.33,0,0,1,167.22,162.4Z" transform="translate(-13.47 -25.58)"/>
  <path class="cls-1" d="M172,156a.32.32,0,1,1,.32-.32A.32.32,0,0,1,172,156Z" transform="translate(-13.47 -25.58)"/>
  <path class="cls-1" d="M176,148.94a.3.3,0,0,1,0-.59.3.3,0,1,1,0,.59Z" transform="translate(-13.47 -25.58)"/>
  <path class="cls-1" d="M179,141.48a.28.28,0,0,1-.28-.27.29.29,0,0,1,.28-.28.28.28,0,0,1,.27.28A.27.27,0,0,1,179,141.48Z" transform="translate(-13.47 -25.58)"/>
  <path class="cls-1" d="M181,133.69a.25.25,0,0,1-.25-.25.26.26,0,0,1,.25-.25.25.25,0,0,1,.25.25A.25.25,0,0,1,181,133.69Z" transform="translate(-13.47 -25.58)"/>
  <circle class="cls-1" cx="168.57" cy="99.9" r="0.2"/>
  <circle class="cls-1" cx="168.57" cy="91.88" r="0.17"/>
  <path class="cls-1" d="M181,109.62a.12.12,0,0,1-.12-.13.12.12,0,0,1,.12-.12.13.13,0,0,1,.13.12A.13.13,0,0,1,181,109.62Z" transform="translate(-13.47 -25.58)"/>
  <path class="cls-1" d="M179,101.83a.09.09,0,0,1-.1-.1.1.1,0,0,1,.1-.1.11.11,0,0,1,.1.1A.1.1,0,0,1,179,101.83Z" transform="translate(-13.47 -25.58)"/>
  <circle class="cls-1" cx="162.49" cy="68.71" r="0.05"/>
  <circle class="cls-1" cx="158.55" cy="61.72" r="0.05"/>
  <path class="cls-1" d="M167.22,80.89s0,0,0,0a0,0,0,0,1,0,0s0,0,0,0A0,0,0,0,1,167.22,80.89Z" transform="translate(-13.47 -25.58)"/>
  <circle class="cls-1" cx="61.42" cy="151.86" r="0.02"/>
  <path class="cls-1" d="M81.44,182.13a0,0,0,0,1,0,0,0,0,0,1,1,.1,0A0,0,0,0,1,81.44,182.13Z" transform="translate(-13.47 -25.58)"/>
  <path class="cls-1" d="M88.47,186a.08.08,0,0,1-.08-.07.09.09,0,0,1,.08-.08.08.08,0,0,1,.07.08A.07.07,0,0,1,88.47,186Z" transform="translate(-13.47 -25.58)"/>
  <circle class="cls-1" cx="82.41" cy="163.46" r="0.12"/>
  <circle class="cls-1" cx="90.13" cy="165.68" r="0.15"/>
  <circle class="cls-1" cx="98.04" cy="167.03" r="0.2"/>
  <path class="cls-1" d="M119.53,193.28a.22.22,0,0,1-.22-.22.22.22,0,1,1,.44,0A.22.22,0,0,1,119.53,193.28Z" transform="translate(-13.47 -25.58)"/>
  <path class="cls-1" d="M127.54,192.88a.28.28,0,0,1,0-.55.28.28,0,1,1,0,.55Z" transform="translate(-13.47 -25.58)"/>
  <path class="cls-1" d="M135.46,191.56a.29.29,0,0,1-.3-.3.3.3,0,0,1,.3-.3.31.31,0,0,1,.3.3A.3.3,0,0,1,135.46,191.56Z" transform="translate(-13.47 -25.58)"/>
  <path class="cls-1" d="M143.17,189.39a.35.35,0,0,1,0-.7.35.35,0,1,1,0,.7Z" transform="translate(-13.47 -25.58)"/>
  <path class="cls-1" d="M150.59,186.34a.38.38,0,0,1,0-.75.38.38,0,0,1,0,.75Z" transform="translate(-13.47 -25.58)"/>
  <circle class="cls-1" cx="144.14" cy="156.5" r="0.37"/>
  <circle class="cls-1" cx="150.69" cy="151.86" r="0.4"/>
  <path class="cls-1" d="M170.15,172.49a.4.4,0,1,1,.4-.4A.4.4,0,0,1,170.15,172.49Z" transform="translate(-13.47 -25.58)"/>
  <path class="cls-1" d="M175.5,166.5a.4.4,0,0,1-.4-.4.39.39,0,0,1,.4-.39.38.38,0,0,1,.39.39A.39.39,0,0,1,175.5,166.5Z" transform="translate(-13.47 -25.58)"/>
  <circle class="cls-1" cx="166.67" cy="133.98" r="0.37"/>
  <circle class="cls-1" cx="170.55" cy="126.95" r="0.37"/>
  <path class="cls-1" d="M187.1,145.46a.35.35,0,1,1,.35-.35A.35.35,0,0,1,187.1,145.46Z" transform="translate(-13.47 -25.58)"/>
  <path class="cls-1" d="M189.32,137.7a.31.31,0,0,1-.3-.3.3.3,0,0,1,.3-.3.29.29,0,0,1,.3.3A.3.3,0,0,1,189.32,137.7Z" transform="translate(-13.47 -25.58)"/>
  <path class="cls-1" d="M190.67,129.76a.28.28,0,0,1-.28-.28.28.28,0,0,1,.55,0A.28.28,0,0,1,190.67,129.76Z" transform="translate(-13.47 -25.58)"/>
  <path class="cls-1" d="M191.12,121.69a.22.22,0,1,1,0-.44.22.22,0,1,1,0,.44Z" transform="translate(-13.47 -25.58)"/>
  <path class="cls-1" d="M190.67,113.65a.2.2,0,1,1,0-.4.2.2,0,0,1,0,.4Z" transform="translate(-13.47 -25.58)"/>
  <circle class="cls-1" cx="175.85" cy="79.96" r="0.15"/>
  <path class="cls-1" d="M187.1,98a.13.13,0,0,1-.13-.13.13.13,0,0,1,.13-.12.12.12,0,0,1,.12.12A.12.12,0,0,1,187.1,98Z" transform="translate(-13.47 -25.58)"/>
  <path class="cls-1" d="M184,90.48a.08.08,0,0,1-.08-.07.09.09,0,0,1,.08-.08.08.08,0,0,1,.07.08A.07.07,0,0,1,184,90.48Z" transform="translate(-13.47 -25.58)"/>
  <path class="cls-1" d="M180.14,83.43a.05.05,0,0,1,0-.1,0,0,0,0,1,0,.1Z" transform="translate(-13.47 -25.58)"/>
  <circle class="cls-1" cx="162.02" cy="51.26" r="0.02"/>
  <circle class="cls-1" cx="49.82" cy="153.54" r="0.02"/>
  <path class="cls-1" d="M69.32,184.46a0,0,0,0,1,0,0s0,0,0,0a0,0,0,0,1,0,0S69.33,184.46,69.32,184.46Z" transform="translate(-13.47 -25.58)"/>
  <path class="cls-1" d="M75.83,189.17a.05.05,0,0,1,0-.1.05.05,0,1,1,0,.1Z" transform="translate(-13.47 -25.58)"/>
  <path class="cls-1" d="M82.79,193.21a.08.08,0,0,1-.08-.08.08.08,0,0,1,.08-.07.07.07,0,0,1,.07.07A.07.07,0,0,1,82.79,193.21Z" transform="translate(-13.47 -25.58)"/>
  <path class="cls-1" d="M90.11,196.56a.12.12,0,0,1-.13-.12.13.13,0,0,1,.13-.13.13.13,0,0,1,.12.13A.12.12,0,0,1,90.11,196.56Z" transform="translate(-13.47 -25.58)"/>
  <path class="cls-1" d="M97.72,199.14a.14.14,0,0,1-.15-.15.14.14,0,0,1,.15-.14.15.15,0,0,1,.15.14A.15.15,0,0,1,97.72,199.14Z" transform="translate(-13.47 -25.58)"/>
  <circle class="cls-1" cx="92.07" cy="175.2" r="0.2"/>
  <path class="cls-1" d="M113.51,202a.25.25,0,1,1,.25-.25A.25.25,0,0,1,113.51,202Z" transform="translate(-13.47 -25.58)"/>
  <path class="cls-1" d="M121.54,202.28a.3.3,0,0,1-.3-.3.3.3,0,1,1,.59,0A.3.3,0,0,1,121.54,202.28Z" transform="translate(-13.47 -25.58)"/>
  <circle class="cls-1" cx="116.07" cy="175.8" r="0.32"/>
  <circle class="cls-1" cx="123.98" cy="174.41" r="0.37"/>
  <path class="cls-1" d="M145.18,198.21a.4.4,0,1,1,.4-.4A.4.4,0,0,1,145.18,198.21Z" transform="translate(-13.47 -25.58)"/>
  <path class="cls-1" d="M152.65,195.32a.45.45,0,1,1,.45-.44A.44.44,0,0,1,152.65,195.32Z" transform="translate(-13.47 -25.58)"/>
  <path class="cls-1" d="M159.8,191.69a.49.49,0,0,1-.48-.48.48.48,0,0,1,.48-.47.47.47,0,0,1,.47.47A.48.48,0,0,1,159.8,191.69Z" transform="translate(-13.47 -25.58)"/>
  <path class="cls-1" d="M166.54,187.35a.5.5,0,1,1,.5-.49A.5.5,0,0,1,166.54,187.35Z" transform="translate(-13.47 -25.58)"/>
  <path class="cls-1" d="M172.82,182.35a.5.5,0,1,1,.49-.5A.5.5,0,0,1,172.82,182.35Z" transform="translate(-13.47 -25.58)"/>
  <path class="cls-1" d="M178.57,176.74a.5.5,0,1,1,.49-.49A.49.49,0,0,1,178.57,176.74Z" transform="translate(-13.47 -25.58)"/>
  <path class="cls-1" d="M183.73,170.59a.5.5,0,1,1,.49-.49A.49.49,0,0,1,183.73,170.59Z" transform="translate(-13.47 -25.58)"/>
  <path class="cls-1" d="M188.25,163.93a.47.47,0,1,1,.47-.47A.47.47,0,0,1,188.25,163.93Z" transform="translate(-13.47 -25.58)"/>
  <path class="cls-1" d="M192.09,156.86a.45.45,0,1,1,.45-.45A.45.45,0,0,1,192.09,156.86Z" transform="translate(-13.47 -25.58)"/>
  <path class="cls-1" d="M195.21,149.44a.43.43,0,1,1,.42-.43A.42.42,0,0,1,195.21,149.44Z" transform="translate(-13.47 -25.58)"/>
  <circle class="cls-1" cx="184.1" cy="115.76" r="0.37"/>
  <circle class="cls-1" cx="185.69" cy="107.89" r="0.35"/>
  <path class="cls-1" d="M200,125.78a.3.3,0,1,1,.3-.3A.29.29,0,0,1,200,125.78Z" transform="translate(-13.47 -25.58)"/>
  <path class="cls-1" d="M200,117.7a.25.25,0,1,1,.25-.25A.25.25,0,0,1,200,117.7Z" transform="translate(-13.47 -25.58)"/>
  <path class="cls-1" d="M199.16,109.66a.2.2,0,0,1-.19-.19.2.2,0,1,1,.19.19Z" transform="translate(-13.47 -25.58)"/>
  <path class="cls-1" d="M197.57,101.77a.18.18,0,0,1-.17-.17.18.18,0,0,1,.17-.18.18.18,0,0,1,.18.18A.18.18,0,0,1,197.57,101.77Z" transform="translate(-13.47 -25.58)"/>
  <path class="cls-1" d="M195.21,94.05a.13.13,0,0,1-.13-.13.13.13,0,0,1,.13-.12.12.12,0,0,1,.12.12A.12.12,0,0,1,195.21,94.05Z" transform="translate(-13.47 -25.58)"/>
  <path class="cls-1" d="M192.09,86.62a.09.09,0,0,1-.1-.09.09.09,0,0,1,.1-.1.1.1,0,0,1,.1.1A.1.1,0,0,1,192.09,86.62Z" transform="translate(-13.47 -25.58)"/>
  <path class="cls-1" d="M188.25,79.52a0,0,0,0,1-.05,0,.05.05,0,0,1,.1,0A0,0,0,0,1,188.25,79.52Z" transform="translate(-13.47 -25.58)"/>
  <path class="cls-1" d="M183.73,72.87a0,0,0,0,1,0,0s0,0,0,0a0,0,0,0,1,0,0S183.74,72.87,183.73,72.87Z" transform="translate(-13.47 -25.58)"/>
  <path class="cls-1" d="M178.57,66.72a0,0,0,0,1,0,0s0,0,0,0a0,0,0,0,1,0,0S178.58,66.72,178.57,66.72Z" transform="translate(-13.47 -25.58)"/>
  <path class="cls-1" d="M57.69,186.17l0,0a0,0,0,0,1,0,0s0,0,0,0Z" transform="translate(-13.47 -25.58)"/>
  <path class="cls-1" d="M63.74,191.45s0,0,0,0a0,0,0,0,1,0,0s0,0,0,0Z" transform="translate(-13.47 -25.58)"/>
  <circle class="cls-1" cx="56.76" cy="170.57" r="0.05"/>
  <path class="cls-1" d="M77.13,200.34a.07.07,0,0,1-.08-.07.08.08,0,0,1,.08-.08.08.08,0,0,1,.07.08A.07.07,0,0,1,77.13,200.34Z" transform="translate(-13.47 -25.58)"/>
  <path class="cls-1" d="M84.36,203.88a.12.12,0,0,1-.12-.13.12.12,0,0,1,.24,0A.12.12,0,0,1,84.36,203.88Z" transform="translate(-13.47 -25.58)"/>
  <circle class="cls-1" cx="78.4" cy="180.99" r="0.17"/>
  <circle class="cls-1" cx="86.14" cy="183.13" r="0.2"/>
  <path class="cls-1" d="M107.52,210.39a.25.25,0,0,1-.25-.25.25.25,0,0,1,.25-.25.26.26,0,0,1,.25.25A.25.25,0,0,1,107.52,210.39Z" transform="translate(-13.47 -25.58)"/>
  <path class="cls-1" d="M115.51,211.16a.29.29,0,0,1-.29-.3.3.3,0,1,1,.59,0A.29.29,0,0,1,115.51,211.16Z" transform="translate(-13.47 -25.58)"/>
  <circle class="cls-1" cx="110.07" cy="185.28" r="0.35"/>
  <path class="cls-1" d="M131.54,210.54a.4.4,0,0,1-.4-.4.4.4,0,0,1,.8,0A.4.4,0,0,1,131.54,210.54Z" transform="translate(-13.47 -25.58)"/>
  <path class="cls-1" d="M139.44,209.16a.45.45,0,1,1,.45-.45A.45.45,0,0,1,139.44,209.16Z" transform="translate(-13.47 -25.58)"/>
  <path class="cls-1" d="M147.18,207.07a.5.5,0,1,1,.5-.5A.5.5,0,0,1,147.18,207.07Z" transform="translate(-13.47 -25.58)"/>
  <path class="cls-1" d="M154.7,204.27a.52.52,0,1,1,.52-.52A.52.52,0,0,1,154.7,204.27Z" transform="translate(-13.47 -25.58)"/>
  <path class="cls-1" d="M161.93,200.81a.54.54,0,0,1-.54-.54.55.55,0,0,1,.54-.55.55.55,0,0,1,.55.55A.55.55,0,0,1,161.93,200.81Z" transform="translate(-13.47 -25.58)"/>
  <path class="cls-1" d="M168.83,196.72a.58.58,0,0,1-.58-.57.58.58,0,1,1,.58.57Z" transform="translate(-13.47 -25.58)"/>
  <path class="cls-1" d="M175.32,192a.6.6,0,0,1,0-1.2.6.6,0,0,1,0,1.2Z" transform="translate(-13.47 -25.58)"/>
  <path class="cls-1" d="M181.37,186.74a.59.59,0,0,1-.6-.59.6.6,0,0,1,.6-.6.59.59,0,0,1,.59.6A.58.58,0,0,1,181.37,186.74Z" transform="translate(-13.47 -25.58)"/>
  <path class="cls-1" d="M186.92,180.94a.6.6,0,0,1-.6-.6.59.59,0,0,1,.6-.59.58.58,0,0,1,.59.59A.59.59,0,0,1,186.92,180.94Z" transform="translate(-13.47 -25.58)"/>
  <path class="cls-1" d="M191.92,174.66a.6.6,0,0,1,0-1.19.6.6,0,1,1,0,1.19Z" transform="translate(-13.47 -25.58)"/>
  <path class="cls-1" d="M196.35,167.94a.58.58,0,1,1,.57-.58A.58.58,0,0,1,196.35,167.94Z" transform="translate(-13.47 -25.58)"/>
  <circle class="cls-1" cx="186.68" cy="134.72" r="0.55"/>
  <circle class="cls-1" cx="189.83" cy="127.33" r="0.5"/>
  <path class="cls-1" d="M205.79,145.75a.48.48,0,0,1-.47-.48.47.47,0,0,1,.94,0A.48.48,0,0,1,205.79,145.75Z" transform="translate(-13.47 -25.58)"/>
  <circle class="cls-1" cx="194.1" cy="111.87" r="0.42"/>
  <circle class="cls-1" cx="195.18" cy="103.91" r="0.37"/>
  <path class="cls-1" d="M209,121.79a.32.32,0,0,1,0-.64.32.32,0,1,1,0,.64Z" transform="translate(-13.47 -25.58)"/>
  <path class="cls-1" d="M208.65,113.72a.27.27,0,0,1-.27-.27.28.28,0,0,1,.27-.28.29.29,0,0,1,.28.28A.28.28,0,0,1,208.65,113.72Z" transform="translate(-13.47 -25.58)"/>
  <path class="cls-1" d="M207.57,105.71a.22.22,0,1,1,0-.44.22.22,0,1,1,0,.44Z" transform="translate(-13.47 -25.58)"/>
  <circle class="cls-1" cx="192.31" cy="72.08" r="0.2"/>
  <circle class="cls-1" cx="189.83" cy="64.45" r="0.15"/>
  <path class="cls-1" d="M200.15,82.74a.1.1,0,0,1-.1-.1.11.11,0,0,1,.1-.1.1.1,0,0,1,.1.1A.09.09,0,0,1,200.15,82.74Z" transform="translate(-13.47 -25.58)"/>
  <path class="cls-1" d="M196.35,75.65a.08.08,0,0,1-.08-.08.07.07,0,0,1,.08-.07.07.07,0,0,1,.07.07A.08.08,0,0,1,196.35,75.65Z" transform="translate(-13.47 -25.58)"/>
  <path class="cls-1" d="M191.92,68.92a0,0,0,0,1,0-.1,0,0,0,0,1,0,.1Z" transform="translate(-13.47 -25.58)"/>
  <circle class="cls-1" cx="173.44" cy="37.02" r="0.02"/>
  <path class="cls-1" d="M52.09,193.19s0,0,0,0a0,0,0,0,1,0,0s0,0,0,0A0,0,0,0,1,52.09,193.19Z" transform="translate(-13.47 -25.58)"/>
  <circle class="cls-1" cx="44.68" cy="172.85" r="0.02"/>
  <path class="cls-1" d="M64.63,203.22a0,0,0,0,1,0-.1,0,0,0,0,1,0,.1Z" transform="translate(-13.47 -25.58)"/>
  <path class="cls-1" d="M71.48,207.47a.09.09,0,0,1-.1-.1.09.09,0,0,1,.1-.09.1.1,0,0,1,.1.09A.1.1,0,0,1,71.48,207.47Z" transform="translate(-13.47 -25.58)"/>
  <path class="cls-1" d="M78.64,211.13a.13.13,0,0,1-.13-.12.13.13,0,0,1,.13-.13.12.12,0,0,1,.12.13A.12.12,0,0,1,78.64,211.13Z" transform="translate(-13.47 -25.58)"/>
  <circle class="cls-1" cx="72.6" cy="188.46" r="0.17"/>
  <path class="cls-1" d="M93.73,216.68a.22.22,0,1,1,.22-.22A.22.22,0,0,1,93.73,216.68Z" transform="translate(-13.47 -25.58)"/>
  <path class="cls-1" d="M101.56,218.52a.28.28,0,0,1-.28-.27.29.29,0,0,1,.28-.28.28.28,0,0,1,.27.28A.27.27,0,0,1,101.56,218.52Z" transform="translate(-13.47 -25.58)"/>
  <path class="cls-1" d="M109.51,219.71a.32.32,0,1,1,.32-.32A.32.32,0,0,1,109.51,219.71Z" transform="translate(-13.47 -25.58)"/>
  <path class="cls-1" d="M117.52,220.25a.37.37,0,0,1,0-.74.37.37,0,0,1,0,.74Z" transform="translate(-13.47 -25.58)"/>
  <path class="cls-1" d="M125.55,220.14a.43.43,0,1,1,.42-.42A.42.42,0,0,1,125.55,220.14Z" transform="translate(-13.47 -25.58)"/>
  <path class="cls-1" d="M133.54,219.37a.47.47,0,1,1,.47-.47A.47.47,0,0,1,133.54,219.37Z" transform="translate(-13.47 -25.58)"/>
  <circle class="cls-1" cx="127.96" cy="191.85" r="0.52"/>
  <circle class="cls-1" cx="135.71" cy="189.75" r="0.57"/>
  <path class="cls-1" d="M156.73,213.22a.62.62,0,0,1,0-1.24.62.62,0,0,1,0,1.24Z" transform="translate(-13.47 -25.58)"/>
  <path class="cls-1" d="M164,209.91a.65.65,0,1,1,.64-.65A.65.65,0,0,1,164,209.91Z" transform="translate(-13.47 -25.58)"/>
  <path class="cls-1" d="M171,206a.67.67,0,1,1,.67-.67A.66.66,0,0,1,171,206Z" transform="translate(-13.47 -25.58)"/>
  <circle class="cls-1" cx="164.24" cy="175.29" r="0.69"/>
  <circle class="cls-1" cx="170.51" cy="170.28" r="0.69"/>
  <circle class="cls-1" cx="176.36" cy="164.78" r="0.72"/>
  <circle class="cls-1" cx="181.74" cy="158.82" r="0.69"/>
  <circle class="cls-1" cx="186.62" cy="152.44" r="0.69"/>
  <path class="cls-1" d="M204.44,171.93a.67.67,0,1,1,.67-.67A.67.67,0,0,1,204.44,171.93Z" transform="translate(-13.47 -25.58)"/>
  <path class="cls-1" d="M208.21,164.82a.65.65,0,1,1,.65-.64A.64.64,0,0,1,208.21,164.82Z" transform="translate(-13.47 -25.58)"/>
  <path class="cls-1" d="M211.4,157.43a.62.62,0,0,1-.62-.62.62.62,0,0,1,1.24,0A.62.62,0,0,1,211.4,157.43Z" transform="translate(-13.47 -25.58)"/>
  <circle class="cls-1" cx="200.5" cy="123.62" r="0.57"/>
  <path class="cls-1" d="M215.92,141.93a.52.52,0,1,1,.52-.52A.52.52,0,0,1,215.92,141.93Z" transform="translate(-13.47 -25.58)"/>
  <path class="cls-1" d="M217.22,134a.47.47,0,0,1,0-.94.47.47,0,1,1,0,.94Z" transform="translate(-13.47 -25.58)"/>
  <path class="cls-1" d="M217.88,125.88a.4.4,0,0,1-.4-.4.4.4,0,0,1,.8,0A.4.4,0,0,1,217.88,125.88Z" transform="translate(-13.47 -25.58)"/>
  <circle class="cls-1" cx="204.41" cy="91.88" r="0.35"/>
  <circle class="cls-1" cx="203.75" cy="83.87" r="0.3"/>
  <path class="cls-1" d="M215.92,101.78a.25.25,0,0,1-.25-.25.25.25,0,0,1,.5,0A.25.25,0,0,1,215.92,101.78Z" transform="translate(-13.47 -25.58)"/>
  <circle class="cls-1" cx="200.5" cy="68.16" r="0.2"/>
  <path class="cls-1" d="M211.4,86.28a.15.15,0,1,1,.15-.15A.15.15,0,0,1,211.4,86.28Z" transform="translate(-13.47 -25.58)"/>
  <path class="cls-1" d="M208.21,78.88a.12.12,0,0,1,0-.24.12.12,0,1,1,0,.24Z" transform="translate(-13.47 -25.58)"/>
  <path class="cls-1" d="M204.44,71.75a.09.09,0,0,1-.08-.08.08.08,0,0,1,.08-.07.07.07,0,0,1,.07.07A.08.08,0,0,1,204.44,71.75Z" transform="translate(-13.47 -25.58)"/>
  <path class="cls-1" d="M200.1,65a0,0,0,0,1,0-.1,0,0,0,0,1,0,.1Z" transform="translate(-13.47 -25.58)"/>
  <circle class="cls-1" cx="181.74" cy="32.96" r="0.02"/>
  <path class="cls-1" d="M189.84,52.6s0,0,0,0,0,0,0,0l0,0A0,0,0,0,1,189.84,52.6Z" transform="translate(-13.47 -25.58)"/>
  <circle class="cls-1" cx="33.02" cy="174.61" r="0.02"/>
  <path class="cls-1" d="M52.58,205.47a0,0,0,1,1,.05-.05A0,0,0,0,1,52.58,205.47Z" transform="translate(-13.47 -25.58)"/>
  <path class="cls-1" d="M59,210.24a.05.05,0,1,1,.05-.05A0,0,0,0,1,59,210.24Z" transform="translate(-13.47 -25.58)"/>
  <path class="cls-1" d="M65.84,214.56a.09.09,0,0,1-.1-.1.1.1,0,0,1,.1-.1.11.11,0,0,1,.1.1A.1.1,0,0,1,65.84,214.56Z" transform="translate(-13.47 -25.58)"/>
  <path class="cls-1" d="M72.94,218.34a.13.13,0,0,1-.13-.12.13.13,0,0,1,.13-.13.12.12,0,0,1,.12.13A.12.12,0,0,1,72.94,218.34Z" transform="translate(-13.47 -25.58)"/>
  <circle class="cls-1" cx="66.82" cy="195.85" r="0.17"/>
  <circle class="cls-1" cx="74.4" cy="198.5" r="0.22"/>
  <path class="cls-1" d="M95.63,226.43a.27.27,0,0,1-.27-.27.28.28,0,0,1,.27-.28.29.29,0,0,1,.28.28A.28.28,0,0,1,95.63,226.43Z" transform="translate(-13.47 -25.58)"/>
  <path class="cls-1" d="M103.52,228a.32.32,0,1,1,.33-.32A.32.32,0,0,1,103.52,228Z" transform="translate(-13.47 -25.58)"/>
  <path class="cls-1" d="M111.5,229a.4.4,0,0,1,0-.8.4.4,0,1,1,0,.8Z" transform="translate(-13.47 -25.58)"/>
  <path class="cls-1" d="M119.53,229.3a.45.45,0,1,1,.45-.45A.45.45,0,0,1,119.53,229.3Z" transform="translate(-13.47 -25.58)"/>
  <path class="cls-1" d="M127.55,229.05a.5.5,0,0,1-.49-.5.5.5,0,1,1,1,0A.5.5,0,0,1,127.55,229.05Z" transform="translate(-13.47 -25.58)"/>
  <path class="cls-1" d="M135.53,228.22a.57.57,0,0,1,0-1.14.57.57,0,0,1,0,1.14Z" transform="translate(-13.47 -25.58)"/>
  <path class="cls-1" d="M143.42,226.78a.62.62,0,0,1-.62-.62.62.62,0,0,1,.62-.62.61.61,0,0,1,.62.62A.62.62,0,0,1,143.42,226.78Z" transform="translate(-13.47 -25.58)"/>
  <path class="cls-1" d="M151.18,224.75a.67.67,0,1,1,.67-.67A.67.67,0,0,1,151.18,224.75Z" transform="translate(-13.47 -25.58)"/>
  <circle class="cls-1" cx="145.29" cy="195.85" r="0.72"/>
  <circle class="cls-1" cx="152.65" cy="192.64" r="0.74"/>
  <circle class="cls-1" cx="159.75" cy="188.88" r="0.77"/>
  <path class="cls-1" d="M180,211a.79.79,0,1,1,0-1.58.79.79,0,1,1,0,1.58Z" transform="translate(-13.47 -25.58)"/>
  <path class="cls-1" d="M186.48,206.24a.82.82,0,1,1,.82-.82A.82.82,0,0,1,186.48,206.24Z" transform="translate(-13.47 -25.58)"/>
  <path class="cls-1" d="M192.57,201a.82.82,0,1,1,.81-.82A.81.81,0,0,1,192.57,201Z" transform="translate(-13.47 -25.58)"/>
  <path class="cls-1" d="M198.24,195.32a.82.82,0,1,1,.82-.81A.81.81,0,0,1,198.24,195.32Z" transform="translate(-13.47 -25.58)"/>
  <path class="cls-1" d="M203.48,189.24a.82.82,0,1,1,.82-.82A.82.82,0,0,1,203.48,189.24Z" transform="translate(-13.47 -25.58)"/>
  <path class="cls-1" d="M208.25,182.75a.79.79,0,0,1-.79-.79.79.79,0,1,1,1.58,0A.79.79,0,0,1,208.25,182.75Z" transform="translate(-13.47 -25.58)"/>
  <path class="cls-1" d="M212.52,175.93a.77.77,0,0,1,0-1.54.77.77,0,1,1,0,1.54Z" transform="translate(-13.47 -25.58)"/>
  <path class="cls-1" d="M216.28,168.8a.74.74,0,0,1-.75-.74.75.75,0,1,1,1.49,0A.74.74,0,0,1,216.28,168.8Z" transform="translate(-13.47 -25.58)"/>
  <circle class="cls-1" cx="206.01" cy="135.12" r="0.72"/>
  <path class="cls-1" d="M222.14,153.79a.67.67,0,1,1,.67-.67A.67.67,0,0,1,222.14,153.79Z" transform="translate(-13.47 -25.58)"/>
  <path class="cls-1" d="M224.22,146a.61.61,0,0,1-.62-.62.62.62,0,0,1,.62-.62.62.62,0,0,1,.62.62A.62.62,0,0,1,224.22,146Z" transform="translate(-13.47 -25.58)"/>
  <circle class="cls-1" cx="212.24" cy="111.89" r="0.57"/>
  <path class="cls-1" d="M226.61,130a.5.5,0,1,1,.5-.5A.5.5,0,0,1,226.61,130Z" transform="translate(-13.47 -25.58)"/>
  <path class="cls-1" d="M226.91,121.92a.45.45,0,1,1,.45-.45A.45.45,0,0,1,226.91,121.92Z" transform="translate(-13.47 -25.58)"/>
  <path class="cls-1" d="M226.61,113.84a.4.4,0,0,1-.4-.4.4.4,0,0,1,.8,0A.4.4,0,0,1,226.61,113.84Z" transform="translate(-13.47 -25.58)"/>
  <path class="cls-1" d="M225.71,105.79a.33.33,0,1,1,.32-.33A.32.32,0,0,1,225.71,105.79Z" transform="translate(-13.47 -25.58)"/>
  <path class="cls-1" d="M224.22,97.85a.29.29,0,0,1-.28-.28.28.28,0,0,1,.28-.27.27.27,0,0,1,.27.27A.28.28,0,0,1,224.22,97.85Z" transform="translate(-13.47 -25.58)"/>
  <circle class="cls-1" cx="208.67" cy="64.24" r="0.22"/>
  <path class="cls-1" d="M219.49,82.41a.18.18,0,0,1-.18-.17.18.18,0,0,1,.18-.18.18.18,0,0,1,.17.18A.18.18,0,0,1,219.49,82.41Z" transform="translate(-13.47 -25.58)"/>
  <circle class="cls-1" cx="202.8" cy="49.3" r="0.12"/>
  <path class="cls-1" d="M212.52,67.88a.11.11,0,0,1-.1-.1.1.1,0,0,1,.1-.1.09.09,0,0,1,.1.1A.1.1,0,0,1,212.52,67.88Z" transform="translate(-13.47 -25.58)"/>
  <path class="cls-1" d="M208.25,61a0,0,0,1,1,.05-.05A0,0,0,0,1,208.25,61Z" transform="translate(-13.47 -25.58)"/>
  <path class="cls-1" d="M203.48,54.57a.05.05,0,1,1,.05,0A0,0,0,0,1,203.48,54.57Z" transform="translate(-13.47 -25.58)"/>
  <path class="cls-1" d="M198.24,48.46s0,0,0,0a0,0,0,0,1,0,0s0,0,0,0A0,0,0,0,1,198.24,48.46Z" transform="translate(-13.47 -25.58)"/>
  <circle class="cls-1" cx="27.42" cy="181.62" r="0.02"/>
  <path class="cls-1" d="M47,212.47a0,0,0,1,1,0-.05A0,0,0,0,1,47,212.47Z" transform="translate(-13.47 -25.58)"/>
  <path class="cls-1" d="M53.45,217.26a.05.05,0,0,1-.05,0,0,0,0,0,1,.05-.05.05.05,0,0,1,0,.05A.06.06,0,0,1,53.45,217.26Z" transform="translate(-13.47 -25.58)"/>
  <path class="cls-1" d="M60.21,221.64a.1.1,0,0,1-.1-.1.09.09,0,0,1,.1-.1.1.1,0,0,1,.1.1A.11.11,0,0,1,60.21,221.64Z" transform="translate(-13.47 -25.58)"/>
  <circle class="cls-1" cx="53.78" cy="199.81" r="0.15"/>
  <circle class="cls-1" cx="61.07" cy="203.17" r="0.2"/>
  <path class="cls-1" d="M82.06,231.82a.23.23,0,1,1,.22-.22A.22.22,0,0,1,82.06,231.82Z" transform="translate(-13.47 -25.58)"/>
  <path class="cls-1" d="M89.74,234.22a.3.3,0,1,1,.3-.3A.3.3,0,0,1,89.74,234.22Z" transform="translate(-13.47 -25.58)"/>
  <path class="cls-1" d="M97.57,236.05a.35.35,0,0,1,0-.69.35.35,0,1,1,0,.69Z" transform="translate(-13.47 -25.58)"/>
  <circle class="cls-1" cx="92.03" cy="211.37" r="0.4"/>
  <path class="cls-1" d="M113.51,238.11a.47.47,0,1,1,.47-.47A.47.47,0,0,1,113.51,238.11Z" transform="translate(-13.47 -25.58)"/>
  <path class="cls-1" d="M121.54,238.3a.52.52,0,0,1,0-1,.52.52,0,0,1,0,1Z" transform="translate(-13.47 -25.58)"/>
  <path class="cls-1" d="M129.56,238a.6.6,0,1,1,0-1.19.6.6,0,0,1,0,1.19Z" transform="translate(-13.47 -25.58)"/>
  <path class="cls-1" d="M137.53,237a.65.65,0,1,1,.64-.64A.65.65,0,0,1,137.53,237Z" transform="translate(-13.47 -25.58)"/>
  <circle class="cls-1" cx="131.94" cy="209.3" r="0.72"/>
  <path class="cls-1" d="M153.18,233.59a.77.77,0,1,1,.77-.77A.76.76,0,0,1,153.18,233.59Z" transform="translate(-13.47 -25.58)"/>
  <path class="cls-1" d="M160.78,231.06a.82.82,0,1,1,.82-.82A.82.82,0,0,1,160.78,231.06Z" transform="translate(-13.47 -25.58)"/>
  <path class="cls-1" d="M168.19,228a.87.87,0,1,1,.86-.87A.87.87,0,0,1,168.19,228Z" transform="translate(-13.47 -25.58)"/>
  <circle class="cls-1" cx="161.89" cy="197.95" r="0.89"/>
  <circle class="cls-1" cx="168.79" cy="193.85" r="0.92"/>
  <circle class="cls-1" cx="175.4" cy="189.29" r="0.94"/>
  <path class="cls-1" d="M195.15,210.83a1,1,0,1,1,1-1A1,1,0,0,1,195.15,210.83Z" transform="translate(-13.47 -25.58)"/>
  <path class="cls-1" d="M201.07,205.4a1,1,0,1,1,1-1A1,1,0,0,1,201.07,205.4Z" transform="translate(-13.47 -25.58)"/>
  <path class="cls-1" d="M206.6,199.58a1,1,0,0,1,0-1.94,1,1,0,1,1,0,1.94Z" transform="translate(-13.47 -25.58)"/>
  <path class="cls-1" d="M211.72,193.36a.95.95,0,1,1,.94-.94A.95.95,0,0,1,211.72,193.36Z" transform="translate(-13.47 -25.58)"/>
  <circle class="cls-1" cx="202.92" cy="160.31" r="0.92"/>
  <circle class="cls-1" cx="207.13" cy="153.47" r="0.89"/>
  <circle class="cls-1" cx="210.86" cy="146.36" r="0.87"/>
  <path class="cls-1" d="M227.57,165.41a.82.82,0,1,1,.82-.82A.82.82,0,0,1,227.57,165.41Z" transform="translate(-13.47 -25.58)"/>
  <circle class="cls-1" cx="216.81" cy="131.46" r="0.77"/>
  <circle class="cls-1" cx="219" cy="123.73" r="0.72"/>
  <path class="cls-1" d="M234.13,142.12a.67.67,0,1,1,.67-.67A.67.67,0,0,1,234.13,142.12Z" transform="translate(-13.47 -25.58)"/>
  <path class="cls-1" d="M235.23,134.12a.63.63,0,1,1,.62-.62A.62.62,0,0,1,235.23,134.12Z" transform="translate(-13.47 -25.58)"/>
  <circle class="cls-1" cx="222.31" cy="99.91" r="0.55"/>
  <path class="cls-1" d="M235.79,117.92a.47.47,0,1,1,.47-.47A.47.47,0,0,1,235.79,117.92Z" transform="translate(-13.47 -25.58)"/>
  <path class="cls-1" d="M235.23,109.86a.42.42,0,1,1,.43-.42A.42.42,0,0,1,235.23,109.86Z" transform="translate(-13.47 -25.58)"/>
  <path class="cls-1" d="M234.13,101.84a.35.35,0,1,1,.35-.35A.35.35,0,0,1,234.13,101.84Z" transform="translate(-13.47 -25.58)"/>
  <path class="cls-1" d="M232.48,93.93a.3.3,0,0,1-.3-.3.29.29,0,0,1,.3-.3.3.3,0,0,1,.3.3A.31.31,0,0,1,232.48,93.93Z" transform="translate(-13.47 -25.58)"/>
  <path class="cls-1" d="M230.29,86.15a.25.25,0,0,1-.25-.25.25.25,0,0,1,.25-.25.26.26,0,0,1,.25.25A.25.25,0,0,1,230.29,86.15Z" transform="translate(-13.47 -25.58)"/>
  <circle class="cls-1" cx="214.1" cy="52.77" r="0.2"/>
  <circle class="cls-1" cx="210.86" cy="45.42" r="0.15"/>
  <path class="cls-1" d="M220.61,64a.09.09,0,0,1-.1-.1.09.09,0,0,1,.1-.09.09.09,0,0,1,.09.09A.09.09,0,0,1,220.61,64Z" transform="translate(-13.47 -25.58)"/>
  <path class="cls-1" d="M216.39,57.12a.07.07,0,0,1-.07-.07.08.08,0,0,1,.07-.08.09.09,0,0,1,.08.08A.08.08,0,0,1,216.39,57.12Z" transform="translate(-13.47 -25.58)"/>
  <path class="cls-1" d="M211.72,50.57a0,0,0,1,1,0-.1.05.05,0,1,1,0,.1Z" transform="translate(-13.47 -25.58)"/>
  <circle class="cls-1" cx="193.13" cy="18.75" r="0.02"/>
  <circle class="cls-1" cx="21.83" cy="188.63" r="0.02"/>
  <circle class="cls-1" cx="27.95" cy="193.84" r="0.05"/>
  <path class="cls-1" d="M47.86,224.29a.07.07,0,0,1-.08-.07.08.08,0,0,1,.08-.08.08.08,0,0,1,.07.08A.07.07,0,0,1,47.86,224.29Z" transform="translate(-13.47 -25.58)"/>
  <path class="cls-1" d="M54.59,228.7a.1.1,0,0,1-.1-.1.09.09,0,0,1,.1-.1.1.1,0,0,1,.1.1A.11.11,0,0,1,54.59,228.7Z" transform="translate(-13.47 -25.58)"/>
  <path class="cls-1" d="M61.58,232.69a.15.15,0,0,1,0-.3.15.15,0,1,1,0,.3Z" transform="translate(-13.47 -25.58)"/>
  <circle class="cls-1" cx="55.34" cy="210.45" r="0.2"/>
  <path class="cls-1" d="M76.26,239.29A.26.26,0,0,1,76,239a.25.25,0,0,1,.25-.25.25.25,0,0,1,.25.25A.25.25,0,0,1,76.26,239.29Z" transform="translate(-13.47 -25.58)"/>
  <path class="cls-1" d="M83.88,241.87a.3.3,0,0,1-.29-.3.3.3,0,1,1,.59,0A.3.3,0,0,1,83.88,241.87Z" transform="translate(-13.47 -25.58)"/>
  <circle class="cls-1" cx="78.18" cy="218.03" r="0.35"/>
  <path class="cls-1" d="M99.53,245.56a.42.42,0,1,1,.43-.42A.42.42,0,0,1,99.53,245.56Z" transform="translate(-13.47 -25.58)"/>
  <circle class="cls-1" cx="94.03" cy="220.59" r="0.5"/>
  <circle class="cls-1" cx="102.04" cy="221.1" r="0.55"/>
  <path class="cls-1" d="M123.54,247.3a.62.62,0,0,1,0-1.24.62.62,0,0,1,0,1.24Z" transform="translate(-13.47 -25.58)"/>
  <path class="cls-1" d="M131.56,246.86a.7.7,0,1,1,.69-.69A.69.69,0,0,1,131.56,246.86Z" transform="translate(-13.47 -25.58)"/>
  <path class="cls-1" d="M139.52,245.88a.74.74,0,1,1,0-1.48.74.74,0,1,1,0,1.48Z" transform="translate(-13.47 -25.58)"/>
  <path class="cls-1" d="M147.41,244.42a.82.82,0,1,1,.81-.82A.81.81,0,0,1,147.41,244.42Z" transform="translate(-13.47 -25.58)"/>
  <circle class="cls-1" cx="141.7" cy="215.99" r="0.87"/>
  <circle class="cls-1" cx="149.32" cy="213.46" r="0.92"/>
  <path class="cls-1" d="M170.24,237a1,1,0,1,1,1-1A1,1,0,0,1,170.24,237Z" transform="translate(-13.47 -25.58)"/>
  <path class="cls-1" d="M177.47,233.56a1,1,0,1,1,1-1A1,1,0,0,1,177.47,233.56Z" transform="translate(-13.47 -25.58)"/>
  <path class="cls-1" d="M184.47,229.64a1,1,0,0,1,0-2.08,1,1,0,0,1,0,2.08Z" transform="translate(-13.47 -25.58)"/>
  <path class="cls-1" d="M191.2,225.28a1.07,1.07,0,0,1,0-2.13,1.07,1.07,0,1,1,0,2.13Z" transform="translate(-13.47 -25.58)"/>
  <circle class="cls-1" cx="184.16" cy="193.84" r="1.09"/>
  <circle class="cls-1" cx="190.28" cy="188.63" r="1.12"/>
  <circle class="cls-1" cx="196.05" cy="183.04" r="1.12"/>
  <path class="cls-1" d="M214.92,203.77a1.09,1.09,0,1,1,1.09-1.09A1.09,1.09,0,0,1,214.92,203.77Z" transform="translate(-13.47 -25.58)"/>
  <circle class="cls-1" cx="206.45" cy="170.82" r="1.09"/>
  <path class="cls-1" d="M224.52,190.88a1.07,1.07,0,1,1,1.07-1.07A1.06,1.06,0,0,1,224.52,190.88Z" transform="translate(-13.47 -25.58)"/>
  <path class="cls-1" d="M228.69,184a1,1,0,1,1,1-1.05A1,1,0,0,1,228.69,184Z" transform="translate(-13.47 -25.58)"/>
  <path class="cls-1" d="M232.4,176.82a1,1,0,1,1,1-1A1,1,0,0,1,232.4,176.82Z" transform="translate(-13.47 -25.58)"/>
  <circle class="cls-1" cx="222.18" cy="142.9" r="0.94"/>
  <circle class="cls-1" cx="224.95" cy="135.37" r="0.89"/>
  <path class="cls-1" d="M240.71,154.09a.85.85,0,0,1,0-1.69.85.85,0,0,1,0,1.69Z" transform="translate(-13.47 -25.58)"/>
  <path class="cls-1" d="M242.5,146.21a.8.8,0,1,1,.79-.79A.8.8,0,0,1,242.5,146.21Z" transform="translate(-13.47 -25.58)"/>
  <path class="cls-1" d="M243.78,138.21a.72.72,0,1,1,.72-.72A.72.72,0,0,1,243.78,138.21Z" transform="translate(-13.47 -25.58)"/>
  <path class="cls-1" d="M244.55,130.14a.65.65,0,1,1,.64-.64A.64.64,0,0,1,244.55,130.14Z" transform="translate(-13.47 -25.58)"/>
  <path class="cls-1" d="M244.81,122.06a.59.59,0,0,1-.6-.59.6.6,0,0,1,.6-.6.59.59,0,0,1,.59.6A.58.58,0,0,1,244.81,122.06Z" transform="translate(-13.47 -25.58)"/>
  <circle class="cls-1" cx="231.08" cy="87.86" r="0.52"/>
  <path class="cls-1" d="M243.78,105.89a.44.44,0,0,1-.45-.44.45.45,0,1,1,.89,0A.44.44,0,0,1,243.78,105.89Z" transform="translate(-13.47 -25.58)"/>
  <path class="cls-1" d="M242.5,97.92a.4.4,0,0,1,0-.8.4.4,0,0,1,0,.8Z" transform="translate(-13.47 -25.58)"/>
  <circle class="cls-1" cx="227.24" cy="64.11" r="0.32"/>
  <path class="cls-1" d="M238.42,82.27a.28.28,0,0,1-.27-.28.27.27,0,0,1,.27-.27.28.28,0,0,1,.28.27A.29.29,0,0,1,238.42,82.27Z" transform="translate(-13.47 -25.58)"/>
  <path class="cls-1" d="M235.65,74.68a.22.22,0,0,1-.22-.22.22.22,0,1,1,.44,0A.22.22,0,0,1,235.65,74.68Z" transform="translate(-13.47 -25.58)"/>
  <circle class="cls-1" cx="218.93" cy="41.53" r="0.17"/>
  <path class="cls-1" d="M228.69,60.12a.13.13,0,0,1-.13-.13.12.12,0,0,1,.13-.12.12.12,0,0,1,.12.12A.13.13,0,0,1,228.69,60.12Z" transform="translate(-13.47 -25.58)"/>
  <path class="cls-1" d="M224.52,53.2a.07.07,0,0,1-.07-.07.07.07,0,0,1,.07-.08.08.08,0,0,1,.08.08A.08.08,0,0,1,224.52,53.2Z" transform="translate(-13.47 -25.58)"/>
  <path class="cls-1" d="M219.93,46.59a0,0,0,1,1,0-.05A0,0,0,0,1,219.93,46.59Z" transform="translate(-13.47 -25.58)"/>
  <path class="cls-1" d="M214.92,40.28a0,0,0,0,1,0,0l0,0,0,0S214.93,40.28,214.92,40.28Z" transform="translate(-13.47 -25.58)"/>
  <circle class="cls-1" cx="196.05" cy="8.74" r="0.02"/>
  <circle class="cls-1" cx="16.24" cy="195.64" r="0.02"/>
  <path class="cls-1" d="M35.84,226.46a0,0,0,1,1,0-.05A0,0,0,0,1,35.84,226.46Z" transform="translate(-13.47 -25.58)"/>
  <path class="cls-1" d="M42.27,231.3a.07.07,0,0,1-.08-.07.08.08,0,0,1,.08-.08.08.08,0,0,1,.07.08A.07.07,0,0,1,42.27,231.3Z" transform="translate(-13.47 -25.58)"/>
  <path class="cls-1" d="M49,235.78a.13.13,0,0,1-.13-.13.12.12,0,0,1,.13-.12.12.12,0,0,1,.12.12A.12.12,0,0,1,49,235.78Z" transform="translate(-13.47 -25.58)"/>
  <circle class="cls-1" cx="42.45" cy="214.09" r="0.15"/>
  <circle class="cls-1" cx="49.63" cy="217.68" r="0.2"/>
  <path class="cls-1" d="M70.49,246.66a.25.25,0,1,1,.25-.24A.25.25,0,0,1,70.49,246.66Z" transform="translate(-13.47 -25.58)"/>
  <path class="cls-1" d="M78.05,249.45a.33.33,0,1,1,.32-.33A.32.32,0,0,1,78.05,249.45Z" transform="translate(-13.47 -25.58)"/>
  <circle class="cls-1" cx="72.29" cy="225.8" r="0.37"/>
  <path class="cls-1" d="M93.59,253.61a.45.45,0,1,1,.45-.45A.45.45,0,0,1,93.59,253.61Z" transform="translate(-13.47 -25.58)"/>
  <path class="cls-1" d="M101.51,255a.5.5,0,0,1,0-1,.5.5,0,1,1,0,1Z" transform="translate(-13.47 -25.58)"/>
  <path class="cls-1" d="M109.5,255.89a.57.57,0,0,1-.57-.57.56.56,0,0,1,.57-.57.57.57,0,0,1,.57.57A.58.58,0,0,1,109.5,255.89Z" transform="translate(-13.47 -25.58)"/>
  <path class="cls-1" d="M117.52,256.32a.63.63,0,0,1-.64-.64.64.64,0,0,1,.64-.65.65.65,0,0,1,.65.65A.64.64,0,0,1,117.52,256.32Z" transform="translate(-13.47 -25.58)"/>
  <path class="cls-1" d="M125.55,256.28a.72.72,0,1,1,.72-.72A.72.72,0,0,1,125.55,256.28Z" transform="translate(-13.47 -25.58)"/>
  <path class="cls-1" d="M133.56,255.75a.79.79,0,0,1-.79-.79.79.79,0,1,1,1.58,0A.79.79,0,0,1,133.56,255.75Z" transform="translate(-13.47 -25.58)"/>
  <path class="cls-1" d="M141.52,254.75a.87.87,0,1,1,.87-.87A.87.87,0,0,1,141.52,254.75Z" transform="translate(-13.47 -25.58)"/>
  <circle class="cls-1" cx="135.92" cy="226.75" r="0.92"/>
  <path class="cls-1" d="M157.17,251.3a1,1,0,1,1,1-1A1,1,0,0,1,157.17,251.3Z" transform="translate(-13.47 -25.58)"/>
  <path class="cls-1" d="M164.81,248.87a1,1,0,1,1,1-1A1,1,0,0,1,164.81,248.87Z" transform="translate(-13.47 -25.58)"/>
  <path class="cls-1" d="M172.28,246a1.09,1.09,0,1,1,1.09-1.09A1.09,1.09,0,0,1,172.28,246Z" transform="translate(-13.47 -25.58)"/>
  <circle class="cls-1" cx="166.1" cy="215.94" r="1.14"/>
  <path class="cls-1" d="M186.64,238.9a1.19,1.19,0,1,1,1.19-1.19A1.19,1.19,0,0,1,186.64,238.9Z" transform="translate(-13.47 -25.58)"/>
  <path class="cls-1" d="M193.47,234.71a1.22,1.22,0,1,1,1.22-1.22A1.22,1.22,0,0,1,193.47,234.71Z" transform="translate(-13.47 -25.58)"/>
  <path class="cls-1" d="M200,230.11a1.24,1.24,0,1,1,0-2.48,1.24,1.24,0,0,1,0,2.48Z" transform="translate(-13.47 -25.58)"/>
  <circle class="cls-1" cx="192.85" cy="198.28" r="1.24"/>
  <circle class="cls-1" cx="198.81" cy="192.91" r="1.27"/>
  <path class="cls-1" d="M217.92,214a1.27,1.27,0,1,1,1.27-1.26A1.26,1.26,0,0,1,217.92,214Z" transform="translate(-13.47 -25.58)"/>
  <path class="cls-1" d="M223.21,208a1.24,1.24,0,1,1,1.24-1.24A1.24,1.24,0,0,1,223.21,208Z" transform="translate(-13.47 -25.58)"/>
  <path class="cls-1" d="M228.12,201.61a1.25,1.25,0,1,1,1.24-1.25A1.24,1.24,0,0,1,228.12,201.61Z" transform="translate(-13.47 -25.58)"/>
  <path class="cls-1" d="M232.64,194.94a1.22,1.22,0,1,1,1.22-1.21A1.21,1.21,0,0,1,232.64,194.94Z" transform="translate(-13.47 -25.58)"/>
  <path class="cls-1" d="M236.76,188a1.17,1.17,0,1,1,1.17-1.17A1.16,1.16,0,0,1,236.76,188Z" transform="translate(-13.47 -25.58)"/>
  <path class="cls-1" d="M240.46,180.85a1.14,1.14,0,1,1,1.14-1.14A1.14,1.14,0,0,1,240.46,180.85Z" transform="translate(-13.47 -25.58)"/>
  <circle class="cls-1" cx="230.25" cy="146.79" r="1.09"/>
  <path class="cls-1" d="M246.55,165.89a1,1,0,1,1,1-1A1,1,0,0,1,246.55,165.89Z" transform="translate(-13.47 -25.58)"/>
  <path class="cls-1" d="M248.92,158.15a1,1,0,1,1,1-1A1,1,0,0,1,248.92,158.15Z" transform="translate(-13.47 -25.58)"/>
  <circle class="cls-1" cx="237.35" cy="123.8" r="0.92"/>
  <path class="cls-1" d="M252.26,142.32a.85.85,0,1,1,.84-.85A.85.85,0,0,1,252.26,142.32Z" transform="translate(-13.47 -25.58)"/>
  <path class="cls-1" d="M253.21,134.27a.77.77,0,1,1,.77-.77A.77.77,0,0,1,253.21,134.27Z" transform="translate(-13.47 -25.58)"/>
  <path class="cls-1" d="M253.69,126.18a.7.7,0,1,1,.7-.7A.69.69,0,0,1,253.69,126.18Z" transform="translate(-13.47 -25.58)"/>
  <path class="cls-1" d="M253.69,118.1a.65.65,0,1,1,.65-.65A.65.65,0,0,1,253.69,118.1Z" transform="translate(-13.47 -25.58)"/>
  <path class="cls-1" d="M253.21,110a.58.58,0,0,1-.57-.57.57.57,0,0,1,.57-.57.56.56,0,0,1,.57.57A.57.57,0,0,1,253.21,110Z" transform="translate(-13.47 -25.58)"/>
  <circle class="cls-1" cx="238.78" cy="75.88" r="0.5"/>
  <path class="cls-1" d="M250.82,94a.42.42,0,1,1,.42-.42A.42.42,0,0,1,250.82,94Z" transform="translate(-13.47 -25.58)"/>
  <circle class="cls-1" cx="235.44" cy="60.18" r="0.35"/>
  <path class="cls-1" d="M246.55,78.38a.3.3,0,1,1,.3-.29A.3.3,0,0,1,246.55,78.38Z" transform="translate(-13.47 -25.58)"/>
  <path class="cls-1" d="M243.73,70.81a.25.25,0,1,1,.25-.24A.25.25,0,0,1,243.73,70.81Z" transform="translate(-13.47 -25.58)"/>
  <path class="cls-1" d="M240.46,63.43a.2.2,0,1,1,.2-.2A.2.2,0,0,1,240.46,63.43Z" transform="translate(-13.47 -25.58)"/>
  <circle class="cls-1" cx="223.29" cy="30.52" r="0.15"/>
  <path class="cls-1" d="M232.64,49.31a.11.11,0,0,1-.1-.1.1.1,0,0,1,.1-.1.09.09,0,0,1,.1.1A.1.1,0,0,1,232.64,49.31Z" transform="translate(-13.47 -25.58)"/>
  <path class="cls-1" d="M228.12,42.62a0,0,0,0,1-.05,0,0,0,0,1,1,.1,0A0,0,0,0,1,228.12,42.62Z" transform="translate(-13.47 -25.58)"/>
  <path class="cls-1" d="M223.21,36.27a.05.05,0,1,1,0-.1.05.05,0,0,1,0,.1Z" transform="translate(-13.47 -25.58)"/>
  <path class="cls-1" d="M217.92,30.2s0,0,0,0a0,0,0,0,1,0,0s0,0,0,0A0,0,0,0,1,217.92,30.2Z" transform="translate(-13.47 -25.58)"/>
  <path class="cls-1" d="M24.12,228.25a0,0,0,0,1,0,0s0,0,0,0a0,0,0,0,1,0,0S24.14,228.25,24.12,228.25Z" transform="translate(-13.47 -25.58)"/>
  <path class="cls-1" d="M30.26,233.46a.05.05,0,0,1-.05-.05,0,0,0,0,1,.1,0A.05.05,0,0,1,30.26,233.46Z" transform="translate(-13.47 -25.58)"/>
  <path class="cls-1" d="M36.68,238.31a.08.08,0,0,1-.08-.07.08.08,0,0,1,.08-.08.07.07,0,0,1,.07.08A.07.07,0,0,1,36.68,238.31Z" transform="translate(-13.47 -25.58)"/>
  <path class="cls-1" d="M43.36,242.82a.12.12,0,0,1-.13-.12.13.13,0,0,1,.13-.13.13.13,0,0,1,.12.13A.12.12,0,0,1,43.36,242.82Z" transform="translate(-13.47 -25.58)"/>
  <path class="cls-1" d="M50.27,246.93a.15.15,0,1,1,.15-.15A.15.15,0,0,1,50.27,246.93Z" transform="translate(-13.47 -25.58)"/>
  <path class="cls-1" d="M57.41,250.66a.2.2,0,0,1-.2-.2.2.2,0,0,1,.4,0A.2.2,0,0,1,57.41,250.66Z" transform="translate(-13.47 -25.58)"/>
  <path class="cls-1" d="M64.74,254a.28.28,0,0,1-.27-.28.27.27,0,1,1,.54,0A.28.28,0,0,1,64.74,254Z" transform="translate(-13.47 -25.58)"/>
  <path class="cls-1" d="M72.24,256.93a.32.32,0,1,1,.32-.32A.32.32,0,0,1,72.24,256.93Z" transform="translate(-13.47 -25.58)"/>
  <circle class="cls-1" cx="66.42" cy="233.47" r="0.37"/>
  <path class="cls-1" d="M87.67,261.5a.45.45,0,1,1,.45-.45A.45.45,0,0,1,87.67,261.5Z" transform="translate(-13.47 -25.58)"/>
  <path class="cls-1" d="M95.55,263.14a.52.52,0,0,1,0-1,.52.52,0,1,1,0,1Z" transform="translate(-13.47 -25.58)"/>
  <circle class="cls-1" cx="90.02" cy="238.16" r="0.6"/>
  <path class="cls-1" d="M111.5,265.09a.67.67,0,1,1,.67-.67A.67.67,0,0,1,111.5,265.09Z" transform="translate(-13.47 -25.58)"/>
  <circle class="cls-1" cx="106.05" cy="239.06" r="0.74"/>
  <path class="cls-1" d="M127.56,265.24a.82.82,0,1,1,.82-.82A.82.82,0,0,1,127.56,265.24Z" transform="translate(-13.47 -25.58)"/>
  <path class="cls-1" d="M135.56,264.64a.9.9,0,1,1,.89-.9A.89.89,0,0,1,135.56,264.64Z" transform="translate(-13.47 -25.58)"/>
  <path class="cls-1" d="M143.51,263.59a1,1,0,1,1,1-1A1,1,0,0,1,143.51,263.59Z" transform="translate(-13.47 -25.58)"/>
  <circle class="cls-1" cx="137.91" cy="235.47" r="1.04"/>
  <path class="cls-1" d="M159.16,260.16a1.12,1.12,0,1,1,1.12-1.11A1.11,1.11,0,0,1,159.16,260.16Z" transform="translate(-13.47 -25.58)"/>
  <path class="cls-1" d="M166.82,257.77a1.17,1.17,0,1,1,1.16-1.16A1.16,1.16,0,0,1,166.82,257.77Z" transform="translate(-13.47 -25.58)"/>
  <path class="cls-1" d="M174.32,255a1.22,1.22,0,1,1,1.21-1.22A1.22,1.22,0,0,1,174.32,255Z" transform="translate(-13.47 -25.58)"/>
  <circle class="cls-1" cx="168.18" cy="224.89" r="1.27"/>
  <circle class="cls-1" cx="175.31" cy="221.2" r="1.32"/>
  <path class="cls-1" d="M195.7,244.06a1.37,1.37,0,1,1,1.37-1.36A1.36,1.36,0,0,1,195.7,244.06Z" transform="translate(-13.47 -25.58)"/>
  <path class="cls-1" d="M202.38,239.63a1.39,1.39,0,1,1,1.39-1.39A1.39,1.39,0,0,1,202.38,239.63Z" transform="translate(-13.47 -25.58)"/>
  <path class="cls-1" d="M208.8,234.82a1.42,1.42,0,1,1,1.41-1.41A1.42,1.42,0,0,1,208.8,234.82Z" transform="translate(-13.47 -25.58)"/>
  <circle class="cls-1" cx="201.46" cy="202.65" r="1.41"/>
  <circle class="cls-1" cx="207.29" cy="197.13" r="1.41"/>
  <circle class="cls-1" cx="212.81" cy="191.29" r="1.41"/>
  <path class="cls-1" d="M231.47,212.15a1.42,1.42,0,1,1,1.41-1.41A1.42,1.42,0,0,1,231.47,212.15Z" transform="translate(-13.47 -25.58)"/>
  <path class="cls-1" d="M236.3,205.71a1.39,1.39,0,1,1,1.39-1.39A1.39,1.39,0,0,1,236.3,205.71Z" transform="translate(-13.47 -25.58)"/>
  <path class="cls-1" d="M240.76,199a1.37,1.37,0,1,1,1.36-1.37A1.37,1.37,0,0,1,240.76,199Z" transform="translate(-13.47 -25.58)"/>
  <circle class="cls-1" cx="231.36" cy="165.15" r="1.32"/>
  <circle class="cls-1" cx="235.05" cy="158.01" r="1.27"/>
  <path class="cls-1" d="M251.8,177.47a1.22,1.22,0,1,1,1.22-1.21A1.21,1.21,0,0,1,251.8,177.47Z" transform="translate(-13.47 -25.58)"/>
  <path class="cls-1" d="M254.67,169.92a1.17,1.17,0,1,1,1.16-1.16A1.16,1.16,0,0,1,254.67,169.92Z" transform="translate(-13.47 -25.58)"/>
  <path class="cls-1" d="M257.11,162.22a1.12,1.12,0,1,1,1.11-1.12A1.12,1.12,0,0,1,257.11,162.22Z" transform="translate(-13.47 -25.58)"/>
  <circle class="cls-1" cx="245.64" cy="127.75" r="1.04"/>
  <path class="cls-1" d="M260.68,146.42a1,1,0,1,1,1-1A1,1,0,0,1,260.68,146.42Z" transform="translate(-13.47 -25.58)"/>
  <path class="cls-1" d="M261.8,138.39a.89.89,0,1,1,.9-.89A.89.89,0,0,1,261.8,138.39Z" transform="translate(-13.47 -25.58)"/>
  <path class="cls-1" d="M262.48,130.32a.82.82,0,1,1,.82-.82A.82.82,0,0,1,262.48,130.32Z" transform="translate(-13.47 -25.58)"/>
  <circle class="cls-1" cx="249.23" cy="95.89" r="0.74"/>
  <path class="cls-1" d="M262.48,114.11a.67.67,0,1,1,.67-.67A.67.67,0,0,1,262.48,114.11Z" transform="translate(-13.47 -25.58)"/>
  <path class="cls-1" d="M261.8,106a.58.58,0,0,1-.59-.59.59.59,0,0,1,.59-.6.6.6,0,0,1,.6.6A.59.59,0,0,1,261.8,106Z" transform="translate(-13.47 -25.58)"/>
  <path class="cls-1" d="M260.68,98a.53.53,0,1,1,.52-.52A.52.52,0,0,1,260.68,98Z" transform="translate(-13.47 -25.58)"/>
  <path class="cls-1" d="M259.11,90.06a.45.45,0,1,1,.45-.45A.45.45,0,0,1,259.11,90.06Z" transform="translate(-13.47 -25.58)"/>
  <path class="cls-1" d="M257.11,82.2a.36.36,0,0,1-.37-.37.37.37,0,0,1,.37-.37.38.38,0,0,1,.37.37A.37.37,0,0,1,257.11,82.2Z" transform="translate(-13.47 -25.58)"/>
  <path class="cls-1" d="M254.67,74.5a.32.32,0,1,1,.32-.32A.32.32,0,0,1,254.67,74.5Z" transform="translate(-13.47 -25.58)"/>
  <path class="cls-1" d="M251.8,67a.27.27,0,1,1,.28-.27A.27.27,0,0,1,251.8,67Z" transform="translate(-13.47 -25.58)"/>
  <circle class="cls-1" cx="235.05" cy="33.77" r="0.2"/>
  <path class="cls-1" d="M244.84,52.36a.15.15,0,1,1,.15-.15A.15.15,0,0,1,244.84,52.36Z" transform="translate(-13.47 -25.58)"/>
  <path class="cls-1" d="M240.76,45.42a.13.13,0,0,1-.13-.12.13.13,0,0,1,.13-.13.12.12,0,0,1,.12.13A.12.12,0,0,1,240.76,45.42Z" transform="translate(-13.47 -25.58)"/>
  <path class="cls-1" d="M236.3,38.69a.07.07,0,0,1-.08-.07.08.08,0,0,1,.08-.08.08.08,0,0,1,.07.08A.07.07,0,0,1,236.3,38.69Z" transform="translate(-13.47 -25.58)"/>
  <path class="cls-1" d="M231.47,32.25a.05.05,0,0,1,0-.1,0,0,0,0,1,0,.1Z" transform="translate(-13.47 -25.58)"/>
  <path class="cls-1" d="M226.29,26.09a0,0,0,0,1,0,0s0,0,0,0a0,0,0,0,1,0,0S226.3,26.09,226.29,26.09Z" transform="translate(-13.47 -25.58)"/>
  <path class="cls-1" d="M18.54,235.26a0,0,0,0,1,0,0s0,0,0,0l0,0S18.55,235.26,18.54,235.26Z" transform="translate(-13.47 -25.58)"/>
  <circle class="cls-1" cx="11.21" cy="214.82" r="0.05"/>
  <path class="cls-1" d="M31.09,245.32a.08.08,0,0,1-.07-.08.07.07,0,0,1,.07-.07.08.08,0,0,1,.08.07A.09.09,0,0,1,31.09,245.32Z" transform="translate(-13.47 -25.58)"/>
  <path class="cls-1" d="M37.75,249.86a.12.12,0,0,1-.13-.12.13.13,0,0,1,.13-.13.13.13,0,0,1,.12.13A.12.12,0,0,1,37.75,249.86Z" transform="translate(-13.47 -25.58)"/>
  <circle class="cls-1" cx="31.16" cy="228.3" r="0.17"/>
  <path class="cls-1" d="M51.72,257.87a.22.22,0,0,1-.22-.23.22.22,0,0,1,.22-.22.23.23,0,1,1,0,.45Z" transform="translate(-13.47 -25.58)"/>
  <path class="cls-1" d="M59,261.3a.27.27,0,1,1,0-.54.27.27,0,1,1,0,.54Z" transform="translate(-13.47 -25.58)"/>
  <path class="cls-1" d="M66.45,264.35a.32.32,0,1,1,0-.64.32.32,0,1,1,0,.64Z" transform="translate(-13.47 -25.58)"/>
  <circle class="cls-1" cx="60.58" cy="241.06" r="0.4"/>
  <path class="cls-1" d="M81.78,269.3a.47.47,0,1,1,.47-.47A.47.47,0,0,1,81.78,269.3Z" transform="translate(-13.47 -25.58)"/>
  <circle class="cls-1" cx="76.13" cy="245.04" r="0.55"/>
  <path class="cls-1" d="M97.52,272.61a.62.62,0,1,1,.62-.62A.62.62,0,0,1,97.52,272.61Z" transform="translate(-13.47 -25.58)"/>
  <path class="cls-1" d="M105.49,273.64a.7.7,0,1,1,.7-.7A.69.69,0,0,1,105.49,273.64Z" transform="translate(-13.47 -25.58)"/>
  <path class="cls-1" d="M113.51,274.24a.77.77,0,1,1,0-1.54.77.77,0,0,1,0,1.54Z" transform="translate(-13.47 -25.58)"/>
  <path class="cls-1" d="M121.54,274.42a.85.85,0,1,1,.84-.84A.85.85,0,0,1,121.54,274.42Z" transform="translate(-13.47 -25.58)"/>
  <path class="cls-1" d="M129.56,274.2a.94.94,0,1,1,.94-.94A.94.94,0,0,1,129.56,274.2Z" transform="translate(-13.47 -25.58)"/>
  <path class="cls-1" d="M137.56,273.54a1,1,0,1,1,1-1A1,1,0,0,1,137.56,273.54Z" transform="translate(-13.47 -25.58)"/>
  <circle class="cls-1" cx="132.03" cy="245.78" r="1.09"/>
  <path class="cls-1" d="M153.38,270.94a1.17,1.17,0,1,1,1.17-1.16A1.17,1.17,0,0,1,153.38,270.94Z" transform="translate(-13.47 -25.58)"/>
  <path class="cls-1" d="M161.16,269a1.24,1.24,0,0,1,0-2.48,1.24,1.24,0,0,1,0,2.48Z" transform="translate(-13.47 -25.58)"/>
  <circle class="cls-1" cx="155.35" cy="239.8" r="1.29"/>
  <path class="cls-1" d="M176.35,264a1.37,1.37,0,1,1,0-2.73,1.37,1.37,0,0,1,0,2.73Z" transform="translate(-13.47 -25.58)"/>
  <path class="cls-1" d="M183.72,260.8a1.42,1.42,0,1,1,1.41-1.41A1.42,1.42,0,0,1,183.72,260.8Z" transform="translate(-13.47 -25.58)"/>
  <circle class="cls-1" cx="177.43" cy="230.23" r="1.46"/>
  <circle class="cls-1" cx="184.42" cy="226.27" r="1.51"/>
  <path class="cls-1" d="M204.67,249.07a1.54,1.54,0,1,1,1.54-1.54A1.54,1.54,0,0,1,204.67,249.07Z" transform="translate(-13.47 -25.58)"/>
  <path class="cls-1" d="M211.2,244.43a1.57,1.57,0,1,1,1.57-1.57A1.56,1.56,0,0,1,211.2,244.43Z" transform="translate(-13.47 -25.58)"/>
  <circle class="cls-1" cx="204.01" cy="212.28" r="1.59"/>
  <path class="cls-1" d="M223.49,234.14a1.62,1.62,0,1,1,1.61-1.61A1.61,1.61,0,0,1,223.49,234.14Z" transform="translate(-13.47 -25.58)"/>
  <circle class="cls-1" cx="215.73" cy="201.31" r="1.61"/>
  <path class="cls-1" d="M234.61,222.54A1.59,1.59,0,1,1,236.2,221,1.59,1.59,0,0,1,234.61,222.54Z" transform="translate(-13.47 -25.58)"/>
  <path class="cls-1" d="M239.7,216.33a1.59,1.59,0,1,1,1.59-1.59A1.59,1.59,0,0,1,239.7,216.33Z" transform="translate(-13.47 -25.58)"/>
  <path class="cls-1" d="M244.46,209.83a1.57,1.57,0,1,1,1.56-1.57A1.56,1.56,0,0,1,244.46,209.83Z" transform="translate(-13.47 -25.58)"/>
  <path class="cls-1" d="M248.87,203.06a1.51,1.51,0,1,1,1.51-1.51A1.51,1.51,0,0,1,248.87,203.06Z" transform="translate(-13.47 -25.58)"/>
  <path class="cls-1" d="M252.91,196.08a1.47,1.47,0,1,1,1.47-1.47A1.46,1.46,0,0,1,252.91,196.08Z" transform="translate(-13.47 -25.58)"/>
  <path class="cls-1" d="M256.59,188.89a1.42,1.42,0,1,1,0-2.83,1.42,1.42,0,0,1,0,2.83Z" transform="translate(-13.47 -25.58)"/>
  <path class="cls-1" d="M259.88,181.51a1.37,1.37,0,1,1,1.36-1.36A1.37,1.37,0,0,1,259.88,181.51Z" transform="translate(-13.47 -25.58)"/>
  <circle class="cls-1" cx="249.31" cy="147.08" r="1.32"/>
  <circle class="cls-1" cx="251.81" cy="139.45" r="1.27"/>
  <path class="cls-1" d="M267.38,158.46a1.19,1.19,0,1,1,1.19-1.19A1.19,1.19,0,0,1,267.38,158.46Z" transform="translate(-13.47 -25.58)"/>
  <circle class="cls-1" cx="255.59" cy="123.84" r="1.12"/>
  <circle class="cls-1" cx="256.85" cy="115.91" r="1.04"/>
  <circle class="cls-1" cx="257.7" cy="107.93" r="0.97"/>
  <path class="cls-1" d="M271.6,126.35a.87.87,0,1,1,.87-.87A.87.87,0,0,1,271.6,126.35Z" transform="translate(-13.47 -25.58)"/>
  <path class="cls-1" d="M271.6,118.25a.8.8,0,0,1-.8-.8.79.79,0,0,1,.8-.79.79.79,0,0,1,.79.79A.79.79,0,0,1,271.6,118.25Z" transform="translate(-13.47 -25.58)"/>
  <circle class="cls-1" cx="257.7" cy="83.85" r="0.72"/>
  <path class="cls-1" d="M270.33,102.09a.65.65,0,1,1,.64-.64A.65.65,0,0,1,270.33,102.09Z" transform="translate(-13.47 -25.58)"/>
  <path class="cls-1" d="M269.06,94.06a.55.55,0,0,1,0-1.09.55.55,0,1,1,0,1.09Z" transform="translate(-13.47 -25.58)"/>
  <path class="cls-1" d="M267.38,86.13a.47.47,0,1,1,.47-.47A.47.47,0,0,1,267.38,86.13Z" transform="translate(-13.47 -25.58)"/>
  <path class="cls-1" d="M265.28,78.31a.4.4,0,1,1,.4-.4A.4.4,0,0,1,265.28,78.31Z" transform="translate(-13.47 -25.58)"/>
  <circle class="cls-1" cx="249.31" cy="44.7" r="0.35"/>
  <path class="cls-1" d="M259.88,63.06a.27.27,0,1,1,.27-.27A.27.27,0,0,1,259.88,63.06Z" transform="translate(-13.47 -25.58)"/>
  <path class="cls-1" d="M256.59,55.69a.23.23,0,1,1,0-.45.22.22,0,0,1,.22.22A.22.22,0,0,1,256.59,55.69Z" transform="translate(-13.47 -25.58)"/>
  <circle class="cls-1" cx="239.44" cy="22.75" r="0.17"/>
  <path class="cls-1" d="M248.87,41.51a.13.13,0,0,1-.13-.12.13.13,0,0,1,.13-.13.13.13,0,0,1,.12.13A.13.13,0,0,1,248.87,41.51Z" transform="translate(-13.47 -25.58)"/>
  <path class="cls-1" d="M244.46,34.77a.09.09,0,0,1-.1-.1.1.1,0,0,1,.1-.1.11.11,0,0,1,.1.1A.1.1,0,0,1,244.46,34.77Z" transform="translate(-13.47 -25.58)"/>
  <path class="cls-1" d="M239.7,28.25a0,0,0,1,1,0-.1.05.05,0,0,1,0,.1Z" transform="translate(-13.47 -25.58)"/>
  <path class="cls-1" d="M19.1,247.45a0,0,0,0,1,0-.1,0,0,0,0,1,0,.1Z" transform="translate(-13.47 -25.58)"/>
  <path class="cls-1" d="M25.5,252.32a.07.07,0,0,1-.07-.07.08.08,0,0,1,.07-.08.08.08,0,0,1,.08.08A.07.07,0,0,1,25.5,252.32Z" transform="translate(-13.47 -25.58)"/>
  <path class="cls-1" d="M32.14,256.9a.12.12,0,0,1-.12-.13.12.12,0,0,1,.24,0A.12.12,0,0,1,32.14,256.9Z" transform="translate(-13.47 -25.58)"/>
  <circle class="cls-1" cx="25.52" cy="235.38" r="0.17"/>
  <circle class="cls-1" cx="32.57" cy="239.22" r="0.22"/>
  <path class="cls-1" d="M53.28,268.56a.28.28,0,0,1,0-.55.28.28,0,1,1,0,.55Z" transform="translate(-13.47 -25.58)"/>
  <circle class="cls-1" cx="47.21" cy="245.83" r="0.35"/>
  <path class="cls-1" d="M68.23,274.55a.4.4,0,0,1-.4-.4.4.4,0,0,1,.8,0A.4.4,0,0,1,68.23,274.55Z" transform="translate(-13.47 -25.58)"/>
  <path class="cls-1" d="M75.9,277a.47.47,0,0,1,0-.94.47.47,0,1,1,0,.94Z" transform="translate(-13.47 -25.58)"/>
  <path class="cls-1" d="M83.69,279.05a.55.55,0,0,1-.55-.55.55.55,0,0,1,.55-.54.54.54,0,0,1,.54.54A.55.55,0,0,1,83.69,279.05Z" transform="translate(-13.47 -25.58)"/>
  <path class="cls-1" d="M91.56,280.74a.65.65,0,1,1,0-1.29.65.65,0,0,1,0,1.29Z" transform="translate(-13.47 -25.58)"/>
  <circle class="cls-1" cx="86.03" cy="255.71" r="0.72"/>
  <path class="cls-1" d="M107.49,282.88a.79.79,0,0,1,0-1.58.79.79,0,1,1,0,1.58Z" transform="translate(-13.47 -25.58)"/>
  <circle class="cls-1" cx="102.04" cy="256.91" r="0.89"/>
  <path class="cls-1" d="M123.54,283.46a1,1,0,1,1,1-1A1,1,0,0,1,123.54,283.46Z" transform="translate(-13.47 -25.58)"/>
  <path class="cls-1" d="M131.57,283.13a1,1,0,1,1,1-1A1,1,0,0,1,131.57,283.13Z" transform="translate(-13.47 -25.58)"/>
  <circle class="cls-1" cx="126.08" cy="255.71" r="1.14"/>
  <path class="cls-1" d="M147.5,281.31a1.22,1.22,0,1,1,0-2.43,1.22,1.22,0,0,1,0,2.43Z" transform="translate(-13.47 -25.58)"/>
  <circle class="cls-1" cx="141.9" cy="252.92" r="1.29"/>
  <path class="cls-1" d="M163.15,277.88a1.37,1.37,0,1,1,1.37-1.36A1.36,1.36,0,0,1,163.15,277.88Z" transform="translate(-13.47 -25.58)"/>
  <path class="cls-1" d="M170.83,275.59a1.44,1.44,0,1,1,1.44-1.44A1.43,1.43,0,0,1,170.83,275.59Z" transform="translate(-13.47 -25.58)"/>
  <circle class="cls-1" cx="164.9" cy="245.83" r="1.51"/>
  <path class="cls-1" d="M185.78,269.85a1.57,1.57,0,1,1,1.56-1.56A1.56,1.56,0,0,1,185.78,269.85Z" transform="translate(-13.47 -25.58)"/>
  <path class="cls-1" d="M193,266.44a1.64,1.64,0,1,1,1.64-1.64A1.64,1.64,0,0,1,193,266.44Z" transform="translate(-13.47 -25.58)"/>
  <path class="cls-1" d="M200.06,262.62a1.66,1.66,0,1,1,1.67-1.66A1.66,1.66,0,0,1,200.06,262.62Z" transform="translate(-13.47 -25.58)"/>
  <path class="cls-1" d="M206.92,258.48a1.71,1.71,0,1,1,1.71-1.71A1.7,1.7,0,0,1,206.92,258.48Z" transform="translate(-13.47 -25.58)"/>
  <path class="cls-1" d="M213.55,254a1.74,1.74,0,1,1,1.74-1.74A1.73,1.73,0,0,1,213.55,254Z" transform="translate(-13.47 -25.58)"/>
  <path class="cls-1" d="M220,249.16a1.76,1.76,0,1,1,1.77-1.76A1.76,1.76,0,0,1,220,249.16Z" transform="translate(-13.47 -25.58)"/>
  <path class="cls-1" d="M226.11,244a1.79,1.79,0,1,1,1.78-1.78A1.79,1.79,0,0,1,226.11,244Z" transform="translate(-13.47 -25.58)"/>
  <path class="cls-1" d="M232,238.56a1.79,1.79,0,1,1,1.79-1.79A1.79,1.79,0,0,1,232,238.56Z" transform="translate(-13.47 -25.58)"/>
  <path class="cls-1" d="M237.6,232.81a1.79,1.79,0,1,1,1.79-1.79A1.79,1.79,0,0,1,237.6,232.81Z" transform="translate(-13.47 -25.58)"/>
  <circle class="cls-1" cx="229.44" cy="199.42" r="1.79"/>
  <path class="cls-1" d="M247.92,220.49a1.77,1.77,0,1,1,1.77-1.77A1.76,1.76,0,0,1,247.92,220.49Z" transform="translate(-13.47 -25.58)"/>
  <path class="cls-1" d="M252.61,213.94a1.74,1.74,0,1,1,1.74-1.74A1.74,1.74,0,0,1,252.61,213.94Z" transform="translate(-13.47 -25.58)"/>
  <path class="cls-1" d="M257,207.14a1.69,1.69,0,1,1,1.69-1.68A1.69,1.69,0,0,1,257,207.14Z" transform="translate(-13.47 -25.58)"/>
  <circle class="cls-1" cx="247.51" cy="172.92" r="1.66"/>
  <circle class="cls-1" cx="251.17" cy="165.78" r="1.61"/>
  <path class="cls-1" d="M268,185.57a1.54,1.54,0,1,1,1.54-1.54A1.54,1.54,0,0,1,268,185.57Z" transform="translate(-13.47 -25.58)"/>
  <circle class="cls-1" cx="257.41" cy="150.98" r="1.46"/>
  <path class="cls-1" d="M273.44,170.36a1.42,1.42,0,1,1,1.42-1.42A1.41,1.41,0,0,1,273.44,170.36Z" transform="translate(-13.47 -25.58)"/>
  <circle class="cls-1" cx="262.15" cy="135.64" r="1.34"/>
  <circle class="cls-1" cx="263.93" cy="127.81" r="1.27"/>
  <path class="cls-1" d="M278.8,146.67a1.2,1.2,0,1,1,1.19-1.2A1.19,1.19,0,0,1,278.8,146.67Z" transform="translate(-13.47 -25.58)"/>
  <circle class="cls-1" cx="266.33" cy="111.93" r="1.09"/>
  <path class="cls-1" d="M280.4,130.51a1,1,0,1,1,1-1A1,1,0,0,1,280.4,130.51Z" transform="translate(-13.47 -25.58)"/>
  <circle class="cls-1" cx="267.13" cy="95.89" r="0.92"/>
  <path class="cls-1" d="M280.4,114.28a.84.84,0,1,1,.84-.84A.83.83,0,0,1,280.4,114.28Z" transform="translate(-13.47 -25.58)"/>
  <circle class="cls-1" cx="266.33" cy="79.85" r="0.74"/>
  <path class="cls-1" d="M278.8,98.13a.67.67,0,1,1,.67-.67A.67.67,0,0,1,278.8,98.13Z" transform="translate(-13.47 -25.58)"/>
  <circle class="cls-1" cx="263.93" cy="63.97" r="0.6"/>
  <path class="cls-1" d="M275.62,82.24a.52.52,0,0,1-.52-.52.52.52,0,1,1,1,0A.52.52,0,0,1,275.62,82.24Z" transform="translate(-13.47 -25.58)"/>
  <path class="cls-1" d="M273.44,74.44a.45.45,0,1,1,.45-.45A.45.45,0,0,1,273.44,74.44Z" transform="translate(-13.47 -25.58)"/>
  <path class="cls-1" d="M270.89,66.75a.38.38,0,0,1-.38-.37.38.38,0,0,1,.75,0A.38.38,0,0,1,270.89,66.75Z" transform="translate(-13.47 -25.58)"/>
  <path class="cls-1" d="M268,59.2a.3.3,0,1,1,0-.59.3.3,0,1,1,0,.59Z" transform="translate(-13.47 -25.58)"/>
  <path class="cls-1" d="M264.65,51.83a.25.25,0,0,1-.25-.25.25.25,0,1,1,.5,0A.25.25,0,0,1,264.65,51.83Z" transform="translate(-13.47 -25.58)"/>
  <path class="cls-1" d="M261,44.63a.19.19,0,0,1-.19-.19.2.2,0,1,1,.39,0A.19.19,0,0,1,261,44.63Z" transform="translate(-13.47 -25.58)"/>
  <path class="cls-1" d="M257,37.63a.15.15,0,1,1,.15-.15A.15.15,0,0,1,257,37.63Z" transform="translate(-13.47 -25.58)"/>
  <path class="cls-1" d="M252.61,30.83a.1.1,0,0,1-.1-.1.11.11,0,0,1,.1-.1.1.1,0,0,1,.1.1A.09.09,0,0,1,252.61,30.83Z" transform="translate(-13.47 -25.58)"/>
  <path class="cls-1" d="M13.52,254.44s0,0,0,0a.05.05,0,0,1,0-.05,0,0,0,0,1,.05.05A0,0,0,0,1,13.52,254.44Z" transform="translate(-13.47 -25.58)"/>
  <path class="cls-1" d="M19.92,259.35a.09.09,0,0,1-.1-.1.1.1,0,0,1,.1-.1.11.11,0,0,1,.1.1A.1.1,0,0,1,19.92,259.35Z" transform="translate(-13.47 -25.58)"/>
  <path class="cls-1" d="M26.54,263.93a.13.13,0,0,1-.13-.13.12.12,0,0,1,.13-.12.12.12,0,0,1,.12.12A.12.12,0,0,1,26.54,263.93Z" transform="translate(-13.47 -25.58)"/>
  <circle class="cls-1" cx="19.89" cy="242.46" r="0.17"/>
  <circle class="cls-1" cx="26.91" cy="246.36" r="0.22"/>
  <path class="cls-1" d="M47.57,275.81a.29.29,0,0,1-.29-.3.3.3,0,1,1,.59,0A.29.29,0,0,1,47.57,275.81Z" transform="translate(-13.47 -25.58)"/>
  <circle class="cls-1" cx="41.46" cy="253.16" r="0.35"/>
  <path class="cls-1" d="M62.43,282a.42.42,0,0,1-.42-.42.42.42,0,0,1,.84,0A.42.42,0,0,1,62.43,282Z" transform="translate(-13.47 -25.58)"/>
  <circle class="cls-1" cx="56.58" cy="258.55" r="0.5"/>
  <circle class="cls-1" cx="64.32" cy="260.71" r="0.57"/>
  <path class="cls-1" d="M165.15,286.77a1.52,1.52,0,1,1,1.51-1.52A1.52,1.52,0,0,1,165.15,286.77Z" transform="translate(-13.47 -25.58)"/>
  <path class="cls-1" d="M172.83,284.5a1.59,1.59,0,1,1,1.59-1.58A1.59,1.59,0,0,1,172.83,284.5Z" transform="translate(-13.47 -25.58)"/>
  <path class="cls-1" d="M180.4,281.88a1.66,1.66,0,1,1,1.66-1.66A1.66,1.66,0,0,1,180.4,281.88Z" transform="translate(-13.47 -25.58)"/>
  <path class="cls-1" d="M187.82,278.9a1.74,1.74,0,1,1,1.74-1.73A1.73,1.73,0,0,1,187.82,278.9Z" transform="translate(-13.47 -25.58)"/>
  <path class="cls-1" d="M195.1,275.56a1.79,1.79,0,1,1,1.79-1.79A1.79,1.79,0,0,1,195.1,275.56Z" transform="translate(-13.47 -25.58)"/>
  <circle class="cls-1" cx="188.74" cy="244.45" r="1.84"/>
  <path class="cls-1" d="M209.13,267.85A1.89,1.89,0,1,1,211,266,1.89,1.89,0,0,1,209.13,267.85Z" transform="translate(-13.47 -25.58)"/>
  <path class="cls-1" d="M215.86,263.48a1.91,1.91,0,1,1,1.91-1.91A1.91,1.91,0,0,1,215.86,263.48Z" transform="translate(-13.47 -25.58)"/>
  <path class="cls-1" d="M222.36,258.8a1.94,1.94,0,1,1,1.94-1.94A1.94,1.94,0,0,1,222.36,258.8Z" transform="translate(-13.47 -25.58)"/>
  <path class="cls-1" d="M228.64,253.81a2,2,0,1,1,2-2A2,2,0,0,1,228.64,253.81Z" transform="translate(-13.47 -25.58)"/>
  <path class="cls-1" d="M234.68,248.54a2,2,0,1,1,2-2A2,2,0,0,1,234.68,248.54Z" transform="translate(-13.47 -25.58)"/>
  <path class="cls-1" d="M240.46,243a2,2,0,1,1,2-2A2,2,0,0,1,240.46,243Z" transform="translate(-13.47 -25.58)"/>
  <circle class="cls-1" cx="232.49" cy="209.56" r="1.96"/>
  <path class="cls-1" d="M251.19,231a2,2,0,1,1,2-2A2,2,0,0,1,251.19,231Z" transform="translate(-13.47 -25.58)"/>
  <path class="cls-1" d="M256.13,224.63a1.94,1.94,0,1,1,1.93-1.93A1.93,1.93,0,0,1,256.13,224.63Z" transform="translate(-13.47 -25.58)"/>
  <path class="cls-1" d="M260.76,218.05a1.92,1.92,0,1,1,1.91-1.92A1.92,1.92,0,0,1,260.76,218.05Z" transform="translate(-13.47 -25.58)"/>
  <circle class="cls-1" cx="251.59" cy="183.78" r="1.86"/>
  <path class="cls-1" d="M269.06,204.22a1.84,1.84,0,1,1,1.83-1.83A1.83,1.83,0,0,1,269.06,204.22Z" transform="translate(-13.47 -25.58)"/>
  <path class="cls-1" d="M272.71,197a1.79,1.79,0,1,1,1.79-1.78A1.79,1.79,0,0,1,272.71,197Z" transform="translate(-13.47 -25.58)"/>
  <path class="cls-1" d="M276,189.63a1.71,1.71,0,1,1,1.72-1.71A1.71,1.71,0,0,1,276,189.63Z" transform="translate(-13.47 -25.58)"/>
  <circle class="cls-1" cx="265.51" cy="154.88" r="1.66"/>
  <path class="cls-1" d="M281.6,174.45a1.59,1.59,0,1,1,1.58-1.59A1.59,1.59,0,0,1,281.6,174.45Z" transform="translate(-13.47 -25.58)"/>
  <path class="cls-1" d="M283.84,166.64a1.49,1.49,0,1,1,1.49-1.49A1.49,1.49,0,0,1,283.84,166.64Z" transform="translate(-13.47 -25.58)"/>
  <path class="cls-1" d="M285.72,158.76a1.42,1.42,0,1,1,1.41-1.42A1.42,1.42,0,0,1,285.72,158.76Z" transform="translate(-13.47 -25.58)"/>
  <circle class="cls-1" cx="273.76" cy="67.91" r="0.72"/>
  <path class="cls-1" d="M285.72,86.24a.65.65,0,0,1,0-1.29.65.65,0,1,1,0,1.29Z" transform="translate(-13.47 -25.58)"/>
  <path class="cls-1" d="M283.84,78.33a.54.54,0,0,1-.54-.54.55.55,0,0,1,.54-.55.55.55,0,0,1,.55.55A.55.55,0,0,1,283.84,78.33Z" transform="translate(-13.47 -25.58)"/>
  <path class="cls-1" d="M281.6,70.55a.47.47,0,1,1,.47-.47A.47.47,0,0,1,281.6,70.55Z" transform="translate(-13.47 -25.58)"/>
  <circle class="cls-1" cx="265.51" cy="36.9" r="0.4"/>
  <circle class="cls-1" cx="262.55" cy="29.44" r="0.32"/>
  <path class="cls-1" d="M272.71,48a.27.27,0,1,1,.27-.27A.27.27,0,0,1,272.71,48Z" transform="translate(-13.47 -25.58)"/>
  <path class="cls-1" d="M269.06,40.77a.23.23,0,1,1,.22-.22A.22.22,0,0,1,269.06,40.77Z" transform="translate(-13.47 -25.58)"/>
  <path class="cls-1" d="M265.07,33.75a.18.18,0,0,1-.18-.17.18.18,0,0,1,.18-.18.18.18,0,0,1,.17.18A.18.18,0,0,1,265.07,33.75Z" transform="translate(-13.47 -25.58)"/>
  <path class="cls-1" d="M260.76,26.93a.13.13,0,0,1-.13-.13.12.12,0,0,1,.13-.12.12.12,0,0,1,.12.12A.13.13,0,0,1,260.76,26.93Z" transform="translate(-13.47 -25.58)"/>
  <path class="cls-1" d="M14.33,266.36a.11.11,0,0,1-.1-.1.1.1,0,0,1,.1-.1.09.09,0,0,1,.1.1A.1.1,0,0,1,14.33,266.36Z" transform="translate(-13.47 -25.58)"/>
  <circle class="cls-1" cx="7.46" cy="245.25" r="0.15"/>
  <path class="cls-1" d="M27.74,275.28a.18.18,0,0,1-.18-.18.18.18,0,0,1,.18-.17.18.18,0,0,1,.17.17A.18.18,0,0,1,27.74,275.28Z" transform="translate(-13.47 -25.58)"/>
  <path class="cls-1" d="M34.72,279.31a.25.25,0,1,1,.25-.24A.25.25,0,0,1,34.72,279.31Z" transform="translate(-13.47 -25.58)"/>
  <path class="cls-1" d="M41.88,283a.3.3,0,1,1,0-.59.3.3,0,1,1,0,.59Z" transform="translate(-13.47 -25.58)"/>
  <circle class="cls-1" cx="35.72" cy="260.46" r="0.35"/>
  <path class="cls-1" d="M189.87,287.92a1.89,1.89,0,1,1,1.88-1.89A1.89,1.89,0,0,1,189.87,287.92Z" transform="translate(-13.47 -25.58)"/>
  <path class="cls-1" d="M197.18,284.67a2,2,0,1,1,2-2A2,2,0,0,1,197.18,284.67Z" transform="translate(-13.47 -25.58)"/>
  <circle class="cls-1" cx="190.86" cy="253.49" r="2.01"/>
  <path class="cls-1" d="M211.32,277.16a2.06,2.06,0,1,1,2.06-2.06A2.06,2.06,0,0,1,211.32,277.16Z" transform="translate(-13.47 -25.58)"/>
  <path class="cls-1" d="M218.12,272.91a2.08,2.08,0,1,1,2.09-2.08A2.08,2.08,0,0,1,218.12,272.91Z" transform="translate(-13.47 -25.58)"/>
  <path class="cls-1" d="M224.72,268.37a2.11,2.11,0,1,1,2.11-2.11A2.12,2.12,0,0,1,224.72,268.37Z" transform="translate(-13.47 -25.58)"/>
  <path class="cls-1" d="M231.11,263.53a2.14,2.14,0,1,1,2.14-2.14A2.13,2.13,0,0,1,231.11,263.53Z" transform="translate(-13.47 -25.58)"/>
  <circle class="cls-1" cx="223.8" cy="230.67" r="2.16"/>
  <path class="cls-1" d="M243.21,253a2.16,2.16,0,1,1,2.16-2.15A2.15,2.15,0,0,1,243.21,253Z" transform="translate(-13.47 -25.58)"/>
  <path class="cls-1" d="M248.89,247.31a2.16,2.16,0,1,1,2.15-2.16A2.16,2.16,0,0,1,248.89,247.31Z" transform="translate(-13.47 -25.58)"/>
  <circle class="cls-1" cx="240.83" cy="213.64" r="2.16"/>
  <path class="cls-1" d="M259.45,235.19a2.14,2.14,0,1,1,2.14-2.14A2.13,2.13,0,0,1,259.45,235.19Z" transform="translate(-13.47 -25.58)"/>
  <path class="cls-1" d="M264.32,228.77a2.11,2.11,0,1,1,2.11-2.11A2.1,2.1,0,0,1,264.32,228.77Z" transform="translate(-13.47 -25.58)"/>
  <path class="cls-1" d="M268.89,222.15a2.09,2.09,0,1,1,2.08-2.09A2.09,2.09,0,0,1,268.89,222.15Z" transform="translate(-13.47 -25.58)"/>
  <path class="cls-1" d="M273.16,215.32a2.06,2.06,0,1,1,2.06-2.06A2.06,2.06,0,0,1,273.16,215.32Z" transform="translate(-13.47 -25.58)"/>
  <circle class="cls-1" cx="263.65" cy="180.7" r="2.01"/>
  <path class="cls-1" d="M280.77,201.08a2,2,0,1,1,2-2A2,2,0,0,1,280.77,201.08Z" transform="translate(-13.47 -25.58)"/>
  <path class="cls-1" d="M284.09,193.69a1.89,1.89,0,1,1,1.89-1.88A1.88,1.88,0,0,1,284.09,193.69Z" transform="translate(-13.47 -25.58)"/>
  <path class="cls-1" d="M287.08,59a.43.43,0,1,1,.43-.43A.42.42,0,0,1,287.08,59Z" transform="translate(-13.47 -25.58)"/>
  <path class="cls-1" d="M284.09,51.48a.35.35,0,1,1,.35-.35A.35.35,0,0,1,284.09,51.48Z" transform="translate(-13.47 -25.58)"/>
  <path class="cls-1" d="M280.77,44.12a.3.3,0,0,1-.29-.3.3.3,0,1,1,.59,0A.3.3,0,0,1,280.77,44.12Z" transform="translate(-13.47 -25.58)"/>
  <path class="cls-1" d="M277.13,36.91a.25.25,0,0,1,0-.5.25.25,0,0,1,0,.5Z" transform="translate(-13.47 -25.58)"/>
  <circle class="cls-1" cx="259.69" cy="4.1" r="0.17"/>
  <path class="cls-1" d="M15.34,278a.14.14,0,0,1-.15-.15.14.14,0,0,1,.15-.14.15.15,0,0,1,.15.14A.15.15,0,0,1,15.34,278Z" transform="translate(-13.47 -25.58)"/>
  <circle class="cls-1" cx="8.64" cy="256.59" r="0.2"/>
  <path class="cls-1" d="M29.07,286.43a.25.25,0,1,1,.25-.25A.25.25,0,0,1,29.07,286.43Z" transform="translate(-13.47 -25.58)"/>
  <path class="cls-1" d="M213.49,286.44a2.23,2.23,0,1,1,2.23-2.23A2.23,2.23,0,0,1,213.49,286.44Z" transform="translate(-13.47 -25.58)"/>
  <path class="cls-1" d="M220.35,282.33a2.29,2.29,0,1,1,2.29-2.28A2.28,2.28,0,0,1,220.35,282.33Z" transform="translate(-13.47 -25.58)"/>
  <path class="cls-1" d="M227,277.9a2.31,2.31,0,1,1,2.31-2.31A2.3,2.3,0,0,1,227,277.9Z" transform="translate(-13.47 -25.58)"/>
  <path class="cls-1" d="M233.53,273.19a2.33,2.33,0,1,1,2.33-2.33A2.33,2.33,0,0,1,233.53,273.19Z" transform="translate(-13.47 -25.58)"/>
  <circle class="cls-1" cx="226.33" cy="240.27" r="2.36"/>
  <path class="cls-1" d="M245.86,263a2.38,2.38,0,1,1,2.39-2.38A2.39,2.39,0,0,1,245.86,263Z" transform="translate(-13.47 -25.58)"/>
  <circle class="cls-1" cx="238.22" cy="229.48" r="2.38"/>
  <path class="cls-1" d="M257.28,251.67a2.39,2.39,0,1,1,2.38-2.39A2.39,2.39,0,0,1,257.28,251.67Z" transform="translate(-13.47 -25.58)"/>
  <circle class="cls-1" cx="249.14" cy="217.7" r="2.36"/>
  <circle class="cls-1" cx="254.22" cy="211.48" r="2.36"/>
  <path class="cls-1" d="M272.49,232.93a2.31,2.31,0,1,1,2.31-2.31A2.31,2.31,0,0,1,272.49,232.93Z" transform="translate(-13.47 -25.58)"/>
  <path class="cls-1" d="M277,226.27A2.29,2.29,0,1,1,279.3,224,2.29,2.29,0,0,1,277,226.27Z" transform="translate(-13.47 -25.58)"/>
  <path class="cls-1" d="M281.26,219.39a2.23,2.23,0,1,1,2.23-2.23A2.23,2.23,0,0,1,281.26,219.39Z" transform="translate(-13.47 -25.58)"/>
  <circle class="cls-1" cx="271.72" cy="184.58" r="2.18"/>
  <path class="cls-1" d="M285.2,33a.25.25,0,1,1,0-.49.25.25,0,0,1,0,.49Z" transform="translate(-13.47 -25.58)"/>
  <path class="cls-1" d="M281.26,26a.2.2,0,1,1,0-.4.2.2,0,0,1,0,.4Z" transform="translate(-13.47 -25.58)"/>
  <circle class="cls-1" cx="215.84" cy="259.3" r="2.51"/>
  <circle class="cls-1" cx="222.42" cy="254.68" r="2.56"/>
  <path class="cls-1" d="M242.27,278a2.58,2.58,0,1,1,2.58-2.58A2.58,2.58,0,0,1,242.27,278Z" transform="translate(-13.47 -25.58)"/>
  <path class="cls-1" d="M248.45,272.85a2.61,2.61,0,1,1,2.6-2.6A2.6,2.6,0,0,1,248.45,272.85Z" transform="translate(-13.47 -25.58)"/>
  <path class="cls-1" d="M254.41,267.47a2.61,2.61,0,1,1,2.6-2.6A2.6,2.6,0,0,1,254.41,267.47Z" transform="translate(-13.47 -25.58)"/>
  <path class="cls-1" d="M260.15,261.85a2.61,2.61,0,1,1,2.6-2.6A2.61,2.61,0,0,1,260.15,261.85Z" transform="translate(-13.47 -25.58)"/>
  <path class="cls-1" d="M265.65,256a2.61,2.61,0,1,1,2.6-2.6A2.61,2.61,0,0,1,265.65,256Z" transform="translate(-13.47 -25.58)"/>
  <path class="cls-1" d="M270.91,249.91a2.58,2.58,0,1,1,2.58-2.58A2.58,2.58,0,0,1,270.91,249.91Z" transform="translate(-13.47 -25.58)"/>
  <circle class="cls-1" cx="262.44" cy="215.47" r="2.56"/>
  <circle class="cls-1" cx="267.19" cy="208.99" r="2.53"/>
  <path class="cls-1" d="M285.14,230.41a2.51,2.51,0,1,1,2.51-2.51A2.5,2.5,0,0,1,285.14,230.41Z" transform="translate(-13.47 -25.58)"/>
  <path class="cls-1" d="M244.69,287.66a2.81,2.81,0,1,1,2.8-2.81A2.81,2.81,0,0,1,244.69,287.66Z" transform="translate(-13.47 -25.58)"/>
  <path class="cls-1" d="M251,282.67a2.83,2.83,0,1,1,2.82-2.82A2.82,2.82,0,0,1,251,282.67Z" transform="translate(-13.47 -25.58)"/>
  <path class="cls-1" d="M257.05,277.43a2.83,2.83,0,1,1,2.82-2.83A2.83,2.83,0,0,1,257.05,277.43Z" transform="translate(-13.47 -25.58)"/>
  <path class="cls-1" d="M262.92,272a2.86,2.86,0,1,1,2.85-2.86A2.86,2.86,0,0,1,262.92,272Z" transform="translate(-13.47 -25.58)"/>
  <path class="cls-1" d="M268.57,266.26a2.86,2.86,0,1,1,2.85-2.85A2.86,2.86,0,0,1,268.57,266.26Z" transform="translate(-13.47 -25.58)"/>
  <path class="cls-1" d="M274,260.31a2.83,2.83,0,1,1,2.83-2.83A2.83,2.83,0,0,1,274,260.31Z" transform="translate(-13.47 -25.58)"/>
  <path class="cls-1" d="M279.18,254.18a2.83,2.83,0,1,1,2.83-2.83A2.83,2.83,0,0,1,279.18,254.18Z" transform="translate(-13.47 -25.58)"/>
  <path class="cls-1" d="M284.13,247.83a2.81,2.81,0,1,1,2.8-2.8A2.8,2.8,0,0,1,284.13,247.83Z" transform="translate(-13.47 -25.58)"/>
  <circle class="cls-1" cx="246.14" cy="258.67" r="3.08"/>
  <path class="cls-1" d="M265.6,282a3.08,3.08,0,1,1,3.08-3.08A3.07,3.07,0,0,1,265.6,282Z" transform="translate(-13.47 -25.58)"/>
  <circle class="cls-1" cx="257.91" cy="247.75" r="3.1"/>
  <path class="cls-1" d="M277,270.62a3.08,3.08,0,1,1,3.08-3.08A3.08,3.08,0,0,1,277,270.62Z" transform="translate(-13.47 -25.58)"/>
  <circle class="cls-1" cx="268.84" cy="235.98" r="3.08"/>
  <circle class="cls-1" cx="260.65" cy="257.59" r="3.35"/>
  <path class="cls-1" d="M279.83,280.86a3.35,3.35,0,1,1,3.35-3.35A3.35,3.35,0,0,1,279.83,280.86Z" transform="translate(-13.47 -25.58)"/>
  <path class="cls-1" d="M150.63,288.07a1.39,1.39,0,0,0-1.14-.61,1.4,1.4,0,0,0-1.14.61Z" transform="translate(-13.47 -25.58)"/>
  <path class="cls-1" d="M184,288.07a1.83,1.83,0,0,0-3.13,0Z" transform="translate(-13.47 -25.58)"/>
  <path class="cls-1" d="M158.52,288.07a1.44,1.44,0,1,0-2.6-.84,1.38,1.38,0,0,0,.29.84Z" transform="translate(-13.47 -25.58)"/>
  <path class="cls-1" d="M206.45,285.89a2.19,2.19,0,0,0-2.19,2.18h4.37A2.19,2.19,0,0,0,206.45,285.89Z" transform="translate(-13.47 -25.58)"/>
  <path class="cls-1" d="M224.75,288.07a2.47,2.47,0,0,0-4.38,0Z" transform="translate(-13.47 -25.58)"/>
  <path class="cls-1" d="M240.53,288.07a2.78,2.78,0,0,0-4.63,0Z" transform="translate(-13.47 -25.58)"/>
  <path class="cls-1" d="M256.18,288.07a3,3,0,0,0-5.5,0Z" transform="translate(-13.47 -25.58)"/>
  <path class="cls-1" d="M271.52,288.07a3.34,3.34,0,0,0-6.59,0Z" transform="translate(-13.47 -25.58)"/>
  <path class="cls-1" d="M286.17,288.07a3.71,3.71,0,0,0,.07-.67,3.63,3.63,0,1,0-7.25,0,3.71,3.71,0,0,0,.07.67Z" transform="translate(-13.47 -25.58)"/>
  <path class="cls-1" d="M288,133.28a1.85,1.85,0,0,0,0,.23,1.7,1.7,0,0,0,0,.22Z" transform="translate(-13.47 -25.58)"/>
  <path class="cls-1" d="M288,140.33a1.22,1.22,0,0,0,0,2.34Z" transform="translate(-13.47 -25.58)"/>
  <path class="cls-1" d="M288,148.39a1.32,1.32,0,0,0-.77-.28,1.34,1.34,0,0,0,0,2.68,1.31,1.31,0,0,0,.77-.27Z" transform="translate(-13.47 -25.58)"/>
  <path class="cls-1" d="M288,182.77a1.79,1.79,0,0,0-.92-.25,1.84,1.84,0,0,0,0,3.67,1.89,1.89,0,0,0,.92-.25Z" transform="translate(-13.47 -25.58)"/>
  <path class="cls-1" d="M288,176.53a1.51,1.51,0,0,0,0,.49Z" transform="translate(-13.47 -25.58)"/>
  <path class="cls-1" d="M288,201a2.13,2.13,0,0,0-1.3,2,2.16,2.16,0,0,0,1.3,2Z" transform="translate(-13.47 -25.58)"/>
  <path class="cls-1" d="M288,219a2.45,2.45,0,0,0,0,4.1Z" transform="translate(-13.47 -25.58)"/>
  <path class="cls-1" d="M288,235.89a2.74,2.74,0,0,0,0,5.24Z" transform="translate(-13.47 -25.58)"/>
  <path class="cls-1" d="M288,252.37a3.43,3.43,0,0,0-.56-.05,3.05,3.05,0,1,0,0,6.1,3.43,3.43,0,0,0,.56-.05Z" transform="translate(-13.47 -25.58)"/>
  <path class="cls-1" d="M288,263.57a3.32,3.32,0,0,0-.71,2,3.27,3.27,0,0,0,.71,2Z" transform="translate(-13.47 -25.58)"/>
  <path class="cls-1" d="M288,269.65a3.36,3.36,0,1,0,0,4Z" transform="translate(-13.47 -25.58)"/>
  <path class="cls-1" d="M288,278.07a3.61,3.61,0,0,0,0,7.2Z" transform="translate(-13.47 -25.58)"/>
  <path class="cls-1" d="M288,100.74a.78.78,0,0,0,0,1.39Z" transform="translate(-13.47 -25.58)"/>
  <path class="cls-1" d="M86.25,288A.63.63,0,0,0,85,288Z" transform="translate(-13.47 -25.58)"/>
</svg>
