<svg id="primary-fill" class="primary-fill" data-name="Layer 1" xmlns="http://www.w3.org/2000/svg" viewBox="0 0 1736.42 1823.99">
  <defs>
    <style>
      .cls-1 {
        fill: #212121;
      }

      .cls-2 {
        fill: #424242;
      }

      .cls-3 {
        fill: #303030;
      }

      .color{
        fill:#1976d2;
      }
      .black{
        fill:#151414
      }
    </style>
  </defs>
  <g>
    <path class="cls-1" d="M214.63,1586.91c10.25,6.11,9.2,17.15,11.15,26.61,3.1,15,5.28,30.22,7.84,45.34l-16.05,25.73a11.77,11.77,0,0,0-3.23-.12c-2.81.69-5.57,1.6-8.34,2.42l.69-6-1.86-.49-22.27,54.75-7.09-10.78-2.36.8c1.28,7.39,1.46,15.2,4.08,22.09,6.18,16.23-.38,29.8-7.19,43.58H76c-.61-3.19-1.22-6.37-2.27-11.89L88,1735.69c5-5.55,10.36-10.84,14.86-16.77,1.53-2,.94-5.66,1.33-8.56l5.75-9.84c.09-1.63.24-4.26.25-4.4l16.45-25.45-1.58-2.09-18,7-1.13-2.3c4.18-3.26,7.88-7.77,12.61-9.55,13.49-5,13-15.25,11.81-26.57-.66-6.3-1.94-13.85,7.95-14.93.08,2.2.24,4.4.25,6.6,0,6.12,0,12.24,0,19.52l26.31-1.35.78-5.42,5.93-2.17q-2.65-6.51-4.4-10.76c1.42-4,2.47-7,4.29-12.14H151.72l-7.28-4.83,8.76-8.57c3.65,6.33,9.9,6,15.87,6,8.35-.07,14.91,2.46,18.54,10.65,2.94,6.64,6.27,13.11,10,20.87l18.26-5.58v-33.9C211.79,1596.68,210.81,1592,214.63,1586.91Zm-6.94,67.55-1,3.1,6.2,8,13-9.82c-.43-1.12-.85-2.25-1.28-3.37Zm-52.3,38.79L153.9,1696c2.79,1,5.81,3.25,8.33,2.79,8.52-1.54,7.71-9,7.93-15.63L162,1696.3Zm44.68-47.54-3,1L194.23,1658l2.43,1.57c2.3-2.15,5.61-3.94,6.57-6.57C203.88,1651.16,201.24,1648.17,200.07,1645.71Z" transform="translate(469 33.1)"/>
    <path class="cls-1" d="M536.28,1669.22c1.27,4,2,8.22,3.92,11.8,8.8,16.09,17.58,32.2,27.11,47.86a82.69,82.69,0,0,1,12.53,40.3c.3,7.22.12,14.47.16,21.71H510c-3.86-5.67-7.43-11.56-11.66-16.94-7.23-9.19-14.87-18.06-22.34-27.06q-.9-2.81-1.82-5.61c7.77-5.38,11.69-20.86,8-33.43L476,1718.67l-2.62.25L456.29,1680c-2.54-4.53-4.54-8.08-6.53-11.64-2.31-4.59-4.61-9.19-7.57-15.09l18.83-7.88c-1.3-4.12-2.27-7.18-3.24-10.24l6-3.5c6.08-36.45,14.47-39,40.4-36.59l-1.83,7.08-10.15,1.12c1,8.16-9.16,14.28-2.31,22.62l14.94,5.4,7.88-10.75,9.1-4.43,11.89,2.72c-3.21,4.11-5.33,6.81-8,10.28.64,2.23,1.43,5,2.21,7.71-.46,0-.92,0-1.38,0-13.55.52-19.25,4.43-20.91,14.8H517l10.63,9.85,6.34-2.6c0,.73.08,1.47.11,2.2l1.69,1.54.42,4.56C536.23,1667.85,536.25,1668.54,536.28,1669.22Z" transform="translate(469 33.1)"/>
    <path class="cls-2" d="M170,1790.89c6.81-13.78,13.37-27.35,7.19-43.58-2.62-6.89-2.8-14.7-4.08-22.09l2.36-.8,7.09,10.78,22.27-54.75,1.86.49-.69,6c-2.74,6.58-5.64,13.11-8.09,19.8-.67,1.83,0,4.15.08,6.25l-3.75,12.2a6.78,6.78,0,0,0-.15,1.68l-.09,2.07.05,0c-.3.58-.6,1.17-.91,1.75l-3.72,3.65-.07.07c-1.47,8.59-3.24,17.14-4.34,25.78-1.3,10.23-2,20.52-3,30.79Z" transform="translate(469 33.1)"/>
    <path class="cls-3" d="M476,1746.89c7.47,9,15.11,17.87,22.34,27.06,4.23,5.38,7.8,11.27,11.66,16.94H490L478.32,1779l3.69-.06-2-8Z" transform="translate(469 33.1)"/>
    <path class="cls-2" d="M277.82,207.71l3.27,1.73c.42-1.15.8-2.21,1.18-3.26,2,16.64,12.8,28.52,23.26,39.93,9,9.84,20.23,17.66,30.48,26.37l-8.11,5.34-14.82-6.61c.22-.67.45-1.33.68-2h9.44l-13.53-10.17c-4.5,8.87-2.32,15.92,1,22.91l-4.92,5.57,11.91,9.35-.52.88,10.84,3c-.79-3.6-1.4-6.36-2-9.13l3.38-2.59q3,6.87,6,13.75l2.82-3.68h12.58l-.07,1.78-14,5.72,11.06.6,10.82,14,7.36-8.53,3.53,9.23,17.15,7.3,31.17-13.93c-.61,2.37-1.1,4.23-1.6,6.18l7.61,4.05,4-3.68-3.6-8.64,1.94-1.05L442,329q-1.39,4.89-2.8,9.78l-2.65-.24c-.51-3.83-1-7.66-1.56-11.84l-13.76,2.84,11.37,7-4.47,7.65-10.89-.7c1.26,3.12,2.06,5.1,3,7.38l8.61-1.7c.17.74.33,1.47.5,2.2l-14.92,3.25L417.94,368l12.72-8.3,4.27,5.68-8.62,7.35,6.39,1.74c0,.84,0,1.68,0,2.52L410,382.09c.23,1.72.5,3.77.54,4.08h24l5.52,7.29,7.25-4.83c3.11,4.66,5.51,8.24,7.74,11.59l5-6.84-4.62-1c1.12-4.66,2.09-8.68,3.07-12.71l2.32.38c.22,2.3.44,4.59.77,8.06L468.8,382l21.81-2.81,3.28-13.41L475,364.35l0-3.74c2.93-.33,5.89-.53,8.8-1,2.54-.42,6.94-.66,7.24-1.82,2.48-9.68,11-6.85,17.1-9,1.36-.48,2.48-1.65,3.71-2.51q3.3,11.13,6.61,22.27l-.58.1,4.86,10.47c3,16.83,6.07,33.67,9,50,2.44,4.36,4.75,8.51,7.15,12.81-6.13,9-4.49,17.39-.41,26,1.47,3.12,1.76,7.06,1.69,10.62-.41,19.88-1.42,39.76-1.45,59.64,0,4.73,2.94,9.45,4.53,14.18.31,7,.86,14,.88,20.93,0,11.93-.91,23.89-.32,35.79.72,14.4,3,28.72,3.83,43.12.69,11.55.29,23.17.2,34.76,0,.45-1.84.88-3.14,1.47l4.3,4c-.87,4.83-1.72,9.58-2.66,14.81,6.38,3,7.06,7-2.55,13l6.27,3c2.59,30.72,5.25,60.19,7.35,89.69.26,3.67-2.43,7.56-3.73,11.34-9,1.63-18,3.63-27,4.83q-33.72,4.49-67.54,8.34c-18.63,2.13-37.29,4.94-56,5.48-21.84.62-43.77-.38-65.6-1.66-16.41-1-32.74-3.29-49.06-5.39-14.69-1.88-29.32-4.27-44-6.44l-10.56,2.41c-2.48-1.4-5-2.78-8.55-4.79-1.31,4.58-2.36,8.27-3.41,12l-8,4.32c2.15-6.53,4.29-13.06,7.06-21.52l-27.13-2.88c-.65,0-1.31,0-2,0l-2.23-2L188,814.88l-5.85-3.51c.19-6.6-.34-13.3.69-19.76,5-31.06,10.58-62,15.55-93.1,2-12.4,3.22-25,4.23-37.48,1.27-15.87,2.31-31.78,2.83-47.7,1.13-35.14,1.88-70.3,2.79-105.44l6.21-12.05L228,486.75l7.56,4.47,1-1-6.69-11.53-1.44-2.32,9-4.57V428.33c-1.86-19.65-2.73-39.37-3.29-59.09,0-1.59,2-3.24,3.05-4.86l16.48,2c10-.74,20-1.12,30-2.34,6.36-.77,15.81-.79,18.16-4.63,4.55-7.45,10.43-6.51,17.08-7.23l-13.11-14.3,2.1-2.16,7.83,4.44,13.6-16.72-27-2.47-.2-.15c.83-1.28,1.65-2.56,2.83-4.42L286.7,305.81,286,307.4l-5.37-8-4.36,4.09c-.52-3.33-.93-6-1.35-8.75l-1.44-.13c-.8,2-1.59,4.07-2.75,7.06-1.81-4.52-3.11-7.79-4.33-10.84l-5.31-1.06c.34-1.33.68-2.65,1-4l6-1.08c-.71-3.6-1.35-6.77-1.85-9.3,2-4,4.17-7.06,5.3-10.49a29,29,0,0,0-3.12-25.36Q273.09,223.63,277.82,207.71ZM512.29,500.35l1.53-1.77,1.56-2a14.17,14.17,0,0,1,.47-1.84l.5-.72-.68-.52-1.8.2c-.39-1.14-.78-2.28-1.16-3.42l-.12-.23-7.81-4.68c-.3-2.18-.63-4.56-1.17-8.5l-18.3,14.43-4.39-3.51-6.89,3.5-4.83,14.09,10.4.92-4.8,11.05-14.68,1.49c.13-1.55.26-3.1.41-5l-10.88-1.51,3.7-7-18,10.7,5,8.82,9.52-1.85,4,7.49c-1,2.21-2,4.19-2.77,5.91l4.25,8.46L469.43,541c2.41-2.06,5.72-4,7.65-6.83,1.61-2.39,1.59-5.87,2.29-8.87l9-2.23,9.51-27c5.72,1.18,9.21,1.89,12.69,2.62ZM440.05,557l10.1-1.1-4.37-14.25-12.48,9.09,7.54,2.13c-.35,1.48-.65,2.72-.95,3.95-6.22.81-14.06-2.1-17.38,7.74C431.81,568.68,435.62,562.06,440.05,557ZM357.91,484.8l-11-11.52L337.53,478l4.49,3.81L340,484l-8.81,8.1c0-.5-.06.93-.15,2.17l-10.36-3.86L319.58,495,336,497l-.2-1.65,8.07-3.54,13.2-3,18.93,4,1.08-2.72c-1-2.25-1.93-4.49-3.09-7.2L358.08,485Zm3.93,84-32.2,6.45c.91-3.6,1.41-5.59,1.87-7.42l-14.7,1.63c-.3.54-1.18,2.15-2.26,4.14,17.16,8.44,34.7,3.31,51.78,5.08-1.62-3.65-3-6.68-4.32-9.7,5.48,2.48,10.87,5.9,17.29,2.06C373.81,563.27,366.11,562.46,361.84,568.82ZM286,386.88l-5.66-3.64-9.38,4.5c-.77-3.37-1.25-5.49-2-8.61l-19.21.94-5.38-3.83c-.65,3.09-1.07,5.14-1.71,8.18l14.17,2.09-9.81,8.29,9.19,7.24,9.86-3.6-9.31-8h22.74l9.59,6.42,1.77-1.8-4.79-8,9.23-5.69,3.11,6.55,3.15-9.14,13.5-7.17H298.78c-1.95,1.46-3.83,4-5.32,3.78a115.5,115.5,0,0,1-20-4.22c-5.94-1.94-5.76-2.51-10.45,1.49l24.1,6.5C286.74,381.92,286.38,384.4,286,386.88Zm104.5-39-4.92,5.66H368.79l-2.92,9.62L362.12,351H336.68c-4,3.39-8.4,7.13-14.1,11.95l17.78,3.78,2.15-3.62c19.68,3.95,38.58,1.3,56.87-5l10.77,17,2.83-.73c-1.11-6.71-2.21-13.42-3.71-22.48l-5.22,8.49ZM359.71,458.11c-8.27,7.15-18.87-.41-25.38,8.35,10.58,4.39,10.58,4.39,27.79-2.11l10.69,7.33c.25-4.94.41-8,.54-10.5l7.44-4.2-.94-2.61h-15.2V444.1l2-.12,2.35,8.1,3,.12c.49-4.21,1-8.42,1.62-13.77l10.19-3.23c-8-8.19-11,3.51-16.79,2.28l-16.49,2.27c-1.73,4.49-2.84,7.35-4.53,11.76l15.58,1.63C360.62,455.63,359.78,457.93,359.71,458.11Zm20.36,127.34c6.67,5.16,18.85.41,30.68-11.12L402,561.63c-2.26-.12-5.54-.37-8.83-.47-3.11-.09-6.23,0-9.68,0v14.69l6-.63C389.09,583.48,389.09,583.48,380.07,585.45Zm-25.9-71.59c-1.36,3.18-2.58,6-4.66,10.87l17.71-8.28,4.81,6.23,5-5.56c9.74,4.27,16.9.46,24.58-7.12l-15-1.29,5.94,3.34c-.26,1-.53,1.94-.79,2.91-6.23,0-11.37-6.34-17.3-6C368,509.31,361.59,512,354.17,513.86Zm-8.3-126.26c5.12-10.66,14.41.94,21.93-6.62l-23.92-1.37c-.25,3.61-.44,6.41-.67,9.77H324.08l4.18,2.42-5.43,4.1h31.88l-4.78-4,3.93-2.72Zm2.36,165.06L358.69,539l7.76,12.39c3.89-2.22,11.41,2.86,11.8-4.85l-18.07-5.81,0-2.39-30.41,10.2c.13,1,.25,2,.37,2.93l10.38-.75Zm47.6-7.23c7.33,4.47,12.09-1,17.53-2.52,6-1.69,12.43-2.13,19.1-3.19.47-.91,1.25-2.45,2.14-4.21,1.44,1.67,2.43,2.81,3.41,4l10.45-7-16.82-2.18c.19.64.37,1.28.56,1.91Zm50.93,92.3c10-7.23,20.39-14.55,22.09-28.51l9.25-4.08H465.93c-3.83,5.26-7.81,10.74-11.8,16.24l4.56,5.75ZM352.94,608c8.48,0,9.85-3.69,7.39-10-14.23-6.79-20-6.94-22.12.1l9.18-1,6.48,4.64C353.55,603.93,353.28,605.69,352.94,608ZM317.21,464.83l.15,1.21,13.93.82c.22-1,.45-2.05.68-3.07-3.44-.83-6.83-1.91-10.31-2.42-4.19-.62-8.69,0-12.6-1.33-3.68-1.22-6.78-4.32-9.73,1.11ZM426.12,625.71,438,617.35c-.3-7.37-3.89-8.11-9.26-5.3.7,8-4.36,9.47-10.27,11.39ZM415,484.12,436.51,478l-26-4.65C411.82,476.47,413.24,479.9,415,484.12Zm-33.86-96.37-.72-1.86L360,387.41v5.69l10.83-4.69c.26,3.18.43,5.27.66,8.07l10.08-.56L375.89,391ZM295.74,272.68l7.78-11.88L284.35,257Zm119.8,230.87c-.23-.35-.46-.71-.7-1.06l-8.38,3.64-3.56-5c2.06,12.44,13.79,4.48,19.48,11.68,1.41-3.92,2.32-6.44,3.33-9.22ZM330.2,384.89c.05-.82.11-1.65.16-2.48l-19.25-4.1c-.25,3.28-.47,6-.75,9.74ZM284.08,595.73l-.3,3.09,31.54,4.07c-.71-3.76-1-5.24-1.65-8.8C303.72,603.69,293.88,596.94,284.08,595.73Zm30.6,38.82h6.47c-.43-1.77-.78-3.19-1.16-4.79l5.42.44c.11-.63.21-1.26.32-1.89l-12.21-2.38c-.55-2.36-1-4.51-1.61-7-2,3.63-3.45,6.37-4.41,8.14ZM507.51,391.68l-5.8-7c.45-.87,1.27-2.42,2.08-4l-.8-.66-13.85,11.44.77,1.65ZM333.06,598.77c.23-.81.45-1.62.68-2.44l-17.92-9.44c1.44,4.91,2.31,7.87,3.2,10.92ZM294.18,567.6l15.61,5.62-5.44-11.29h-8.87C295,563.84,294.62,565.65,294.18,567.6Zm41.88-115.26,4.05-8.1-9.33-7.46L320.94,441l1.13,2.28,7.79-4Zm51,25.79L403.86,469l-.42-1-25,6ZM332.31,623.87l.5-3.44q2.67-6.7,5.36-13.43l-2.63-1.25L326.79,617Zm97.14,21.73h12.71c.33-3.36.63-6.34,1.19-12.09Z" transform="translate(469 33.1)"/>
    <path class="cls-2" d="M968.92,233q-9.54,4.54-19.1,9.07L938,243l-46,15.89L860.06,269,830,278.87l-38,10.06c-2.94.39-6,.4-8.82,1.25-30.72,9.34-61.39,18.87-92.12,28.21-8,2.44-16.2,4.4-24.89,6.74v6.06c-5.85,7.53-11.84,15-7.88,25.57L642,381a1.88,1.88,0,0,1-1.59.66c-1.77-.32-3.66-1.21-5.27-.85-7.82,1.73-15.55,3.8-23.31,5.75q9.08-12.84,18.16-25.69c.06-.62.11-1.25.14-1.87v0l5.26-1.31c-.46-1.91-.81-3.38-1.17-4.85l5.74-8c10.82-5.39,14.21-15.93,18.08-26.6-4.79,1.51-9.16,3.66-11.9,7.1-14.59,18.36-30,35.64-51.45,45.82L582.26,357c-3.59,5.92-5.84,9.78-8.26,13.53-1.78,2.76-3.79,5.36-5.7,8q-.27-6-.56-12.07,1.13-12.81,2.26-25.63c.63,0,1.26-.08,1.89-.13,10.44.09,10.79-9.2,14-15.94L572,336.9c.83-6.82,1.65-13.65,2.55-21-.78-4.35-1.68-9.46-2.61-14.57-2.78-15.29-5.16-30.67-8.48-45.85-3-13.7-7-27.18-10.6-40.76l7,3.35,29.38-3.44,3.33,7.7,7.36.69q.47,7.6.91,15.22l1.95.24c1.56-4.49,3.11-9,4.86-14l6.28-1.49c-3.39-1-6.21.1-9.14.63-1.49.28-3.16-.41-4.75-.67L617.23,216l11.38,8-9.18,6.21c12.94,2.67,17.94-15.07,30.68-6.83,0,1.55,0,4.59,0,7.62-.13,1.66-.28,3.35-.42,5l1.88,1.82,14.87-9.37,15-4.92,8.42,5.18,7.32-5.74L712,224c-.13-.36-.26-.73-.38-1.1,18.24-3.81,36.36-8.45,54.76-11.23,21.88-3.29,42.63-8.66,62.84-18.31,19.38-9.25,40.15-15.92,60.81-22,31.57-9.35,63.92-16.13,95.28-26.08,27.85-8.83,54.91-20.22,82.11-31,10.2-4.06,17-11,19.58-23.07,3.9-18.12,10.14-35.74,15.51-53.54,3.38-11.23,6.53-22.36,2-34.09-.6-1.55.5-3.76.8-5.57,7.18-2.95,10.92,1.18,14.61,5.74,8.49,10.5,8.7,22.49,7,35.1-.77,5.83-.13,11.85-.13,18.23,12-.74,20.26-5,27.56-11.79,18.53-17.35,38-33.49,61.62-43.62,6-2.58,12-4.08,17.51,1,1.58,7.57-4.33,10-8.35,13.66q-16.47,15-32.82,30.14c-.59.56-.71,1.63-1.59,3.8l61.32-30.8,11.26,3.55c.3,2.65.61,5.5.92,8.22l-50.38,34.51,2.06,3.62,47-22.73c6.71,7.89,5.32,12.95-.73,16.83-15.4,9.85-31,19.45-46.47,29.14-4.18,2.61-8.37,5.18-12.5,7.73v10.9l57.66-15.48c.62,5.77,1,8.81,1.3,12.09-21,13.71-45.31,14.91-67.48,22.41s-43.4,17-65,25.61l-14.66-4.6c-4.32,3.82-7.67,6.79-11,9.75l-25,17.78-27.42,15c-11.95-.93-26.65,6.19-30.57,14.81l-19,9.1c-2.32-.4-5-1.77-6.9-1-7.85,3.27-15.53,7-23,11C970.5,228.41,969.94,231.12,968.92,233Zm-254.4,21.41c6.89-8.27,14.36-7.66,22.39-4.33a19.73,19.73,0,0,0,7.79,1.27c11.09-.21,22.18-1,33.26-1,16.85,0,33.7.67,50.55.72,5.2,0,10.4-1,15.6-1.55l-5.43-6.6,24-11c-8.33-10.28-16-9.75-24.12-8-5.77,1.23-11.84,3.1-17.5,2.4-14.66-1.8-29.16-4.86-45.74-7.78a44.29,44.29,0,0,1-6.25,1.91c-14.09,2.87-28.31,5.2-42.3,8.46C714.36,231.75,709.87,240.77,714.52,254.37ZM960.26,172.1l-6.66,8.05L938.42,184,928,183.2c-.27.75-.53,1.51-.79,2.26L941,195.73l2.77,4.83L969,188.86Zm25.55-7.1-11.25,1.27c1,8.13,1.81,15,2.64,21.84l3.22.68,11.31-8.67-9.11-4.86C983.76,171.58,984.42,169.46,985.81,165ZM641.73,316.14l-1.5-1.43-25.05,25.64,1,1Z" transform="translate(469 33.1)"/>
    <path class="cls-2" d="M-267.88,167.52c-9.42-5.94-18.88-11.83-28.27-17.82-11-7-21.92-14.07-32.86-21.12l-6.11.11c-12.75-2.79-26.38-3.61-38-8.86-14.77-6.67-29.7-5.9-44.83-6.75-9.6-.55-19.24-1.09-28.74-2.42-3.31-.47-6.29-3.32-10.75-5.83l9.9-7.51L-424,98.83c0,.47,0,1,0,1.43l10.84-4c.34,2.92.58,5,1,9L-400,100.9-403.59,91-469,72.2V60.44l16.3,6.17,1.13-2.42L-456.35,61l.92-2.26,19.29,7.67,22.74-1.2-7.13,12.27,20.58-1c-1.79-5.07-3-8.64-4.3-12.21.72-.77,1.45-1.53,2.18-2.3l-62.58-33.28c-1.52-9.79,1.09-12.28,10.72-10.14,7.66,1.7,15.45,2.82,23.18,4.2l-.24,2.23-7.26,1c-.13.69-.27,1.38-.4,2.07l9.92,2.9c.17-.54.35-1.09.53-1.63l25.53,20.42,9.35-5.94L-401,40.6c.13-.66.26-1.33.38-2l9.06,1.06c.4-.65.81-1.29,1.21-1.93L-441.26,5.14c6.16-11.78,12.64-7.22,19.81-4.46,6.91,2.65,14.52,3.45,22.22,5.15-.25,4.06-.41,6.68-.66,10.64l8.55-5.65,1.16,1c-1,1.62-1.94,3.24-3.72,6.19l22.09,18c1.64-3.84,2.65-6.22,4.19-9.85H-379l2.51-7.07,22.36,15.28c-.33.87-.65,1.75-1,2.62l-10.57-2.87c-3.84,6.62,1.41,8.83,5.74,9.94,6.48,1.66,13.28,2.08,20,3l.85-2.07-13.7-4.12,16-5.77c-.71-8.63-1.53-17.4-2.15-26.18-.64-9.25,1-17.9,7.41-25.08l10.32-2.45c-2.93,29.62,11.39,54.71,20.2,81.31,4.68,14.15,12.8,25.78,26,31.38C-241.13,108.47-208,124.82-172,134.24c30.49,8,60.53,17.85,90.37,28C-70.44,166.12-60,172.59-49.91,179c15.81,10,33.38,14.25,51.17,18.8,24.67,6.32,48.91,14.31,74.28,21.86l-3.86,7.25,1.45,1.32,10.43-10,18.14-1c2.06,2.57,3.89,4.84,5.69,7.06h7.55L108,216.77l17.15-3.34-.41-1.29,24.41,1.67,4.79,9.71,3.48-4.51,1.83.61v8.07l1.11.13,3.87-16.57h15.51c.25,2.56.6,6.07,1.13,11.36,1-5.27,1.75-8.89,2.46-12.51l2.47-.11q1.47,5,2.93,10l1.35-.05v-9.91c12.45-2.82,24.45-8.35,35.3,2.72L224.09,215c-7.75-1.09-13.44,1.76-17.36,8.6-6.84,11.94-15.16,23.23-20.48,35.8-7.16,16.93-13.86,34.45-11.64,53.63l3.36,8.76-1.69.47q1.4,5.25,2.78,10.51l-2.91,24.69-6.13-.7-52.39-57.5-2,1.61c1,1.86,1.82,4,3.2,5.54,11,12.48,21.78,25.09,33.17,37.17,5.38,5.7,11.9,10.32,17.91,15.44q-.54,4.5-1.06,9l-2.82,1.41-22.21-22.43-18.39-20.67-1.29.95L105,310.14c-.49,2.46-.74,3.69-1,4.92-3.57.59-7.43,2.36-10.66,1.57-12.43-3.05-25.48-5.25-36.8-10.81C27.91,291.75-1.84,281-32.08,271.22c-26.08-8.44-52.15-17-77.84-26.52-23-8.51-45.41-18.43-68.08-27.72-26.5-15.63-52.95-31.33-79.57-46.76C-260.53,168.5-264.42,168.38-267.88,167.52Zm100.19,17.93c12.15,6.41,21.14,10.94,29.92,15.82,11.54,6.43,24.37,11.52,34,20.15,10.44,9.37,22,13.58,34.85,15.07,17.95,2.09,36,3.39,54.09,4.17,20.77.9,41.8-1.2,61.19,9.29,6.46,3.5,13.72,5.53,21.21,8.46l4.57-6.31-5.64-23.83-23.73-8.88-10.13,1.74c.91-2.87,1.52-4.78,1.62-5.09l-25-9.18c-20.71-7.22-41.64-.66-62.88.08l12.86-6.52-.36-2.55-52-23.25c-2.69-2.06-7-6.87-12.41-9.09-5.89-2.43-12.77-2.47-19.27-3.56l1.07-3.23-21.61-3.09-.21-.93-41.74-15.41-8.53,1.36c-9.78-5.78-20.14-9.52-30.15-14-10.29-4.64-20.23-10-30.33-15.1l.77-1.29-30.72-9,.22-.71h-15.38c17.9,19.1,37.16,33.16,57.93,46.06,7.76,13.42,21.67,18.67,35.48,24.14C-193.64,176.48-175.6,173.3-167.69,185.45Zm-165-77.36-23-25.66-2.85,4.9c-1.84-3.81-3.05-6.29-3.74-7.71L-382,70.25c.55,5.31.86,8.35,1.36,13.26l-11.17-6.75c-.3,3-.56,5.43-.84,8.11,12.48,3.06,13.94,15.82,22.55,24.86,1.81-4.7,3.11-8,4.43-11.5l18.88,10.15c3.07-.24,5.68-.59,8.3-.61S-333,108.06-332.65,108.09ZM-390.35,47c-6.18,3.11-3.92,14.09,5.17,23.57l3.66-7ZM155.06,323.38l2.3-1.91q-11.27-12.56-22.54-25.09l-2.07,1.85Z" transform="translate(469 33.1)"/>
    <path class="cls-2" d="M215.88,1601.09V1635l-18.26,5.58c-3.74-7.76-7.07-14.23-10-20.87-3.63-8.19-10.19-10.72-18.54-10.65-6,0-12.22.37-15.87-6,1-12.43,2-24.85,2.88-37.29.26-3.63.23-7.28.33-10.92q1.31,10.06,2.59,20.13c.56-18.1-.36-36.11-1.52-54.11-.08-1.17-2-2.22-3.11-3.32,0-1.91-.05-3.81-.08-5.71,1.21-19,3.09-38,3.42-57.06.31-17.5-.69-35-1.75-52.52-1.92-31.75,3.44-62.72,8.85-93.76.85-4.89-.94-10.24-1.51-15.38q2.5-9.44,5-18.87l5.67-8.11,5.9-8.43c2.64,6.21,4,9.48,5.6,13.16l9.87-1.16c-10.19-10-11.25-20.88-7.14-32.62,14.29-2.07,28.54-4.66,42.9-6,6.69-.61,13.62,1.25,20.44,2-2.34,4.64-4.69,9.27-6.83,13.51l4.63,9.32-19.33,17h0l-14.94,3.62v1.68l15,5.63c11.3-4.73,24-6.48,28.6-19.48l12.6,1.86c-.8,7.9-1.2,15.49-2.41,22.94-2.47,15.25-7.56,30.42-7.54,45.62,0,18-4.41,35-6.26,52.43-.4,3.81.57,7.76.91,11.64h0c-7.58,3.73-5.55,11.91-8.42,17.58-11,21.75-9.43,45.57-13.6,68.41l-4,14c-11.22,34.69-26.66,68.62-20.37,107.41Z" transform="translate(469 33.1)"/>
    <path class="cls-2" d="M504.16,1595.1c-25.93-2.38-34.32.14-40.4,36.59l-6,3.5-2.08-2.08-7.51-8.43-4.32-22c.1-1.23.19-2.46.28-3.7,1.28-2.91,3.48-5.77,3.67-8.75.58-9.15-.89-18.59.75-27.49,4.13-22.5-1.57-44.11-5.06-65.79-1.78-11-7.52-21.41-11.47-32.08-.07-1.31-.14-2.61-.2-3.92-.74-9.57-1.08-19.2-2.3-28.71-1.56-12.14-4.05-24.15-5.73-36.27-1.23-8.85-1.81-17.78-2.68-26.68l1.48-.29,4.29-63-1.26,0v-50.1l6.25-.92c3.3,12.25,14.78,23,26.36,23.64,5.85.31,11.8-1.14,17.7-1.79l36.41-11.32c1.51-2.89,2.77-5.28,3.95-7.55l5.32,13.84a1.61,1.61,0,0,1,.82,1.29c1.44,17.64,2.78,35.29,4.4,52.92.38,4.1,1.74,8.11,2.65,12.15q-.59,26.34-1.16,52.68V1365c-2.34,9.51-3.1,19-3.89,28.46q-2,23.63-4,47.24a2,2,0,0,1-.79,1.41c-1.68,5.58-4,11.07-4.91,16.78-1.66,10.23-2.48,20.6-3.68,30.91-.31,2.74-3.41,6.55,2.68,6.74-2.22,20.15-4.59,40.28-6.59,60.45-1.12,11.24-1.6,22.53-2.35,33.44l6.5,7.07Z" transform="translate(469 33.1)"/>
    <path class="cls-3" d="M553.55,1068.08c.17,3.11.77,6.26.44,9.32-1.89,17.63-3.86,35.25-6.09,52.84-.85,6.72-2.45,13.35-3.71,20-.25,5.59-.5,11.18-.79,17.87l-40.09,21.4-2.46-3.58L523.59,1166c8.59-12.44,3.42-26.66.66-40.68l-13.36-4.42,1.59-5.28c-15.82-7.19-8.79-21.63-10.3-31.7l-12.65-19.61H477.12l2.49,6-5,13c-5.37-3.06-12.3-4.92-15.55-9.44s-2.69-11.6-3.82-17.57c-9.52,15.41.54,33.7-10.29,49.24.41,5.34.88,11.59,1.51,19.76l-2.42,3.26c1.43,2.8,2.68,5.23,4.46,8.7l-10.51,1,7.87,8.71c-10.38-4.49-19.81-10.24-27.43-19.82,4-4.76,7.6-9,9.81-11.62-.78-21.32,5.87-38.66,14.23-55.84l-4.68-9.5,12.13-1.8c-4.62-8.28-18.82-8.06-21-19,.6-.67,1.21-1.33,1.82-2l18.67,14.86v-12.59c-2.11-2.26-4.11-4.41-6.12-6.55l1.15-1.27,8.27,2.61-.36-2.08,11.6-5.2c-5.87-5.9-17-7.76-11.89-20H478.3c-17.75-7.74-37.21-6-55-11.63.19-1.24.39-2.49.58-3.73l30.95,2.28c.6-6.36,1.06-11.2,1.55-16.44-1.53-1.67-3.4-3.69-5.36-5.81l6.3-5.62,2.11-1c-2.83-13.07-5.65-26.13-8.4-38.88l-12.19-3.68c1.34-3.55,2.41-6.4,4-10.62h44.55c-.05-.7-.1-1.4-.14-2.1l-39.42-3.39c-.66-7.1-5.88-5.74-10.36-5.47-7.19.43-14.36,1-21.54,1.56L452,888.91c-2.63,7.09,3.14,6.2,7.43,7.62l7.1-5.47-.48-2.15H452c1.07-4.63,2.15-9.26,3.09-13.35l12.51-3.34c-.21-.49-.42-1-.62-1.49L456,869l32.18-4.11c11.06,3.85,21.83,9.06,35.58,6.89-.67-3.14-1.28-6-1.88-8.81L544,856.86c5.91,6.31-.76,10.32-3.12,16,4.83-1.17,10.65,4,13.28-4,.59,2.76,1.82,5.55,1.68,8.27-1,19.53-.22,39.07-1.34,58.66-1.18,20.87,2.31,42,3.57,63,.12,2-1.15,4-1.78,6.08-4.52-10.07-9.88-11.73-18.36-4.57l9,9.71-11.22,4.17.74,1-12.23,9.16c-2.5,7.67-5,15.29-7.35,22.59l9.76-2c8.78,7.6,2.2,14,.12,20.41,1.57,4.21,3.07,8.21,4.69,12.56l12.13,4.78c2.89-6.13,5.41-11.46,8-16.85ZM532.07,876.24c-19.72-3.47-27.8-1.41-30.75,8.09Zm-60.62,76.38c3.71,4.51,6.42,7.82,9.57,11.66,5.72-5.43,8.78-9.77,1.79-15.5Zm25.14,69c-5.51,4.95-7.54,9.23-.42,14.89l6.61-5.7Zm22.17-90.29,2.28,3.72c3.22-2.73,7.11-5,9.39-8.36,1.2-1.78-.42-5.46-.77-8.28l-2.14.55c-.41,2.64-.84,5.42-1.18,7.66Z" transform="translate(469 33.1)"/>
    <path class="cls-3" d="M233.93,831.7l10.56-2.41,5.77,7.56,1.26-2.1,30.81,9.89L276.21,847l9.69,8-16-4.94v15.73c23.38,4.82,47.16,8.46,67.65,23.17-3.76,2.29-7.67,3.86-11.18,3.22-6.81-1.23-13.32-4-20.08-5.6-10.63-2.54-20.42-10.36-31.64-5.06l-11.07-6.28-10.18,9.6,30.95,6.78-8.6,14.63c3.87,2.07,6.16,3.28,8.46,4.5L282,914.85c-8.38,1.76-7.05,7-5,12.57L287.43,933c-7.24,14.08-20.61,7.59-30.73,10.14,3,7.61,3,7.61,14.19,4.29l23.42,5c-.31,2.9-.59,5.55-.73,6.9l-34.09-2.7c-.74,3.08-1.54,6.38-2.26,9.33l16.37,1.72c-.55,4.38-.89,7.15-1.43,11.43,6.6,0,12.44.6,18.1-.12,12.39-1.57,25.79,5.88,30.26,17.15l-27.59-6.89c-16-4-31.94-8.08-48-11.85-2-.48-4.46.72-6.7,1.15,0,.82,0,1.64,0,2.47,3.88,1.73,7.61,4.1,11.67,5.07,13.4,3.18,26.86,6.25,40.42,8.61,12.83,2.24,21.32,9.83,29.71,21-17.42,3.09-32.71-.59-48.45-3.87l-9.85,3-29.5-6.21-.62,2.72,4.32,3.63-13.92,1.93c1.47,7.62,2.94,15.24,4.69,24.27h-33c-.79,4.08-1.68,8.6-2.61,13.38l-6.81,3.94c1.23,5.45,2.38,10.54,3.48,15.43l-5,4.3,14.09,19.5,3.47-4.46c1.39,12.09,8.6,23.39,3.63,35.15l-2.82.22c-.42-3.57-.84-7.13-1.35-11.44l-9.93,11.47-12.11,1,11.17,15c-1,4.5-1.64,7.68-2.44,11.41l10.41,6.45-15.74,11.29,8.49,11.33c-13.72-6.3-26.7-13.17-24.4-31.63l5.61-3.63-7.65-5.2c1.49-17.81,3-35.51,4.07-48.58-1.72-13.63-2.91-23-4.22-33.43l10.36,2.4c2.34-10.33-10.65-17.44-4.41-27.72l8.32-2-11.86-13.5c4.31-8.48,12.63.82,18.4-4.71l-7.21-9.1-16.2,1.4q2-24.43,3.94-48.85l18.47,14.76-13.71,5.72,12.72,7.95-.67,1.78-13.82,1.93c-.26.95-.51,1.91-.77,2.87L203,1012.92l1.66-3.18L180,997.56c.29-.53.58-1.06.88-1.59l22.61,8.41c.43-1.13.86-2.26,1.28-3.39l-17-7,.69-1.53,9.1.67c1.3-3.41,2.47-6.52,3.75-9.87l-10.25-4.13V966.82l20.13,6c.18-.73.37-1.46.55-2.19-14.56-9.75-14.56-9.75-14.52-15.8l9.52,4.51c4.86-10.33,3.87-12.82-6.57-16.8l-3.09,6.1-27.16-9c-1.66,9.23,12.23,12.2,7.09,24.34-3.17-3.79-4.9-6.19-7-8.25a53.88,53.88,0,0,0-5.64-4.36q1-15.4,2-30.81,11.41,11.24,22.82,22.48l1.24-2.62h24.68c.43-2.87,1.06-7.08,1.36-9.07l-9.27-15.4-15.92-16.52,1.55-1.72,21.17,10.13v-9l23.55,7.65,1.17-1.88L229.94,899c-1.56-3.09-2.61-6.64-4.82-9.17-2.61-3-6.23-5.11-10.37-8.36L225.69,874l10.59,5.22,1.27-1.71-9.28-10.24L242.41,866c-.78-7.23-1.4-13.07-2.16-20.08l-8.24-7Zm61.18,167.91-36.2-4c-.16.56-.31,1.13-.47,1.7L274,1002c-.17,1-.35,1.92-.52,2.88H250C257.42,1009.78,273.2,1007.87,295.11,999.61Zm-76.55-54.8-1.17,3.94,18.81,3.9c2-2.57,3.75-4.89,6-7.84Z" transform="translate(469 33.1)"/>
    <path class="cls-2" d="M189.7,1185.06l-8.49-11.33L197,1162.44,186.54,1156c.8-3.73,1.48-6.91,2.44-11.41l-11.17-15,12.11-1,9.93-11.47c.51,4.31.93,7.87,1.35,11.44l2.82-.22c5-11.76-2.24-23.06-3.63-35.15l-3.47,4.46-14.09-19.5,5-4.3c-1.1-4.89-2.25-10-3.48-15.43l6.81-3.94c.93-4.78,1.82-9.3,2.61-13.38h33c-1.75-9-3.22-16.65-4.69-24.27l21.85,2.14-10.56,17.54,35,3.46.14,1.89-17.33,5.24.48,1.63,9.68-.64-4,4.62,17.82,7.33-14.78,6.81c12.74,8.51,12.33,20.45,12.08,31.75l-6.45,3.63,9.31,10.76L253,1126.45l.51,1.14,11.22-1.21c-1.43,7.16-2.7,13.52-4.25,21.31,10.11-2.76,5.78-17.55,18.53-14.8-.32,14.34-14.85,20.09-19.26,32.3h11.52l-6.89,10.43c-8-6.66-16.28-5.46-23.77-2.61l13.77,18.12-40.31,3.5c.07.75.14,1.51.22,2.27,11.87,3.93,23.92,1.33,35.94-.12l41.85-7.94a51.45,51.45,0,0,1-40.65,33c-22.35,3.53-45.88,2.83-67.5-7.79-2.68-1.31-6.44-.43-9.7-.56L157.78,1195c.65-8,1.33-16.57,2-25.07,7.71,5.74,15.3,11.66,23.23,17.07C185.07,1188.44,189.21,1191.41,189.7,1185.06ZM214,1061.87l1-2.12-4.59-6.7-13.23-1c-1.39,7.2-2.57,13.24-3.92,20.2l7.08-.62v-12.35Z" transform="translate(469 33.1)"/>
    <path class="cls-1" d="M174.61,313.07c-2.22-19.18,4.48-36.7,11.64-53.63,5.32-12.57,13.64-23.86,20.48-35.8,3.92-6.84,9.61-9.69,17.36-8.6l-7,8.72c1.24,3.72,2.42,7.28,4.39,13.21,6.73-8.84,12.1-15.88,17.46-22.93l-1.21-2.43-12,1c.23-1.62.46-3.25.78-5.46,11.71-1.42,23.47-3.51,35.3-4,5.27-.2,10.66,2.89,16,4.49q-4.74,15.92-9.45,31.84l-.25.48-11,18.91-6.89,15.6-12.93,26.58-17.21-1.85c-6.22-5.87-15.26-5.9-24.18-6.33q2.44-6.27,4.87-12.53l-2.94-1.91-8.06,6.59-1.73,3.69,8,4.08c1.46,1.93,2.64,5.23,4.41,5.58,9.66,1.9,15.27,7.23,16,19.37,3.94-11.32,11.08-13.41,19.73-12.7.09,10.31.13,20.63.29,30.94.14,9.44.42,18.88.64,28.32-1.07,1.62-3.09,3.27-3.05,4.86.56,19.72,1.43,39.44,3.29,59.09v43.45l-9,4.57,1.44,2.32,6.69,11.53-1,1L228,486.75l-13.51,9.09-6.21,12.05c-.36-1.06-.71-2.11-1.06-3.16,6.12-16.91,1.16-32.72-4.84-49.72.24-1.95.63-5.2,1-8.6l-9.79-12.33c1.6-7.07,3.23-14.32,5.34-23.69-.16-.54-1-3.3-2.28-7.65l5.45-3.72,6,39.78c-4.44,7.26.66,12.26,4.93,16.41,5.54,5.39,12.51,4.63,20,1.21v-22.5H221.54c-1.9-3.81-3.59-7.18-5.27-10.56l-2.05.4c.27,5,.54,10,1,17.58l-7.11-2.56c1.37-3.86,4.59-8.18,3.77-11.5-2.37-9.62-6.37-18.85-9.73-28.24l2-6.23c2.61,4.63,5.22,9.26,8.8,15.59,3.22-12.23,0-20.57-7.1-27.85l2.37-3.76,7,6.55c.83-9,3.93-16-3.52-21.16l2.28-5.24c0-.64,0-1.28,0-1.92.79-3.5,1.58-7,2.24-9.92l15.79-10c-.29-.74-.57-1.49-.86-2.23l-14.7-2.82-24.6,50.66L190,376.21H168l-5.73,9L148,364.93l-6-8,1.95-9.9,22.21,22.43,2.82-1.41q.52-4.51,1.06-9c0-.76.05-1.51.08-2.26,2,.24,4.09.47,6.13.69l0,.34-2.63,10.48,15.21-1.63c.37-4.87.66-8.74.95-12.61.09-1.38.17-2.77.25-4.15-.63-1.28-1.26-2.56-1.88-3.84q-1.45-2.67-2.89-5.34c.08-4.43.08-8.86.26-13.29.24-5.78.54-11.56,1-17.33.18-2.41.73-4.8,1.1-7.2l-2.63-1.65Zm95.56-97.17-3.65-2.36L236.7,250.66,246.77,257C254.94,242.66,262.55,229.28,270.17,215.9Z" transform="translate(469 33.1)"/>
    <path class="cls-2" d="M445.82,1147l-7.87-8.71,10.51-1c-1.78-3.47-3-5.9-4.46-8.7l2.42-3.26c-.63-8.17-1.1-14.42-1.51-19.76,10.83-15.54.77-33.83,10.29-49.24,1.13,6,.61,13.11,3.82,17.57s10.18,6.38,15.55,9.44l5-13-2.49-6h12.41l12.65,19.61c1.51,10.07-5.52,24.51,10.3,31.7l-1.59,5.28,13.36,4.42c2.76,14,7.93,28.24-.66,40.68L500.85,1186l2.46,3.58,40.09-21.4c.29-6.69.54-12.28.79-17.87.72,11.29,1.44,22.59,2.16,34-25,16.1-29.71,39.1-25.21,65.44l-3.37-15c.41-8.78.81-17.56,1.21-26.29l-41.15,11.93c-4.41-.56-8-1.08-11.59-1.45-18.83-2-37.47-4.22-51.49-19.3-2-2.11-5.74-2.54-8.67-3.75l-12.2-12.87h20.28c-.07-1.23-.16-2.72-.25-4.21l29.85,9.94,30,4.89,0-1.47-14.89-7.42-9.41.73c-1-4.89-1.85-9.23-2.85-14.27-9.33-4.81-7.05-13.79-6.56-22.24Zm23.52-35.2v-13.58l-3.26-.91-11.26,22.23Z" transform="translate(469 33.1)"/>
    <path class="cls-1" d="M571.89,340.75c-.63.05-1.26.1-1.89.13-.84-5.33,1.6-12.67-9.19-13.21l-7.65,21.64L540.67,353l8.22,6.35-4,8L555,373.14l-7.45,3.64c16.91,5.34,12.41-9.39,17-15.74l3.19,5.47q.28,6,.56,12.07l1.38,12.67-5.89-11.56-12.21,7.65L533,382.11l-6.7-9-3.52,6-4.86-10.47.58-.1q-3.32-11.13-6.61-22.26l0-.36q-3-12.39-6.08-24.78l18.45-9.78c9.85,4.49,19.59,6.47,28.52-1.25l12.82,5c.69-5.8,1.21-10.23,1.74-14.69l-6.1-4.72-15.57,2.41c.26.53.52,1.05.77,1.58l-22.9,10-8.15-6.72c-.57,3.44-1,6.16-1.52,9.2h-19.2l3.63,6.18L485,323l-5.4-3.3,4.32-8.12c2-.23,4-.44,6-.66l4.88-1.87-2.76-2.14c1.86-4.75,5.32-9.54,5.21-14.24-.16-6.74-2.92-13.42-4.57-20.12q-2.19-9.73-4.37-19.49c-1.91-13.6-1.87-27.82-12.14-38.81l9.73-1.94c12.78-9.73,27.23-9.37,42.17-5.31l-9.49,4.23c5.47,9.49,10.16,17.63,14.89,25.82,10-4.27,11.9-9.9,9.36-17.12l-13.37-12.59,12.93,5.46c-.24.64-.49,1.27-.73,1.91h11.19c3.56,13.58,7.59,27.06,10.59,40.76,3.32,15.18,5.7,30.56,8.48,45.85.93,5.11,1.83,10.22,2.61,14.57-.9,7.38-1.72,14.21-2.55,21C572,338.18,571.93,339.46,571.89,340.75Zm-72.62-85.49,16.57,4.5c-5.57-13-10.16-24.33-15.23-35.39-2.42-5.29-6.43-7-11.36-3.4Z" transform="translate(469 33.1)"/>
    <path class="cls-2" d="M450.34,87.43c.9,3,2.76,6.13,2.5,9-.77,8.8-2.65,17.48-3.55,26.27s-5.4,14.52-13.23,18v-5.55c-2.75,2.45-3.68,5.36-4.68,8.25-3,8.7-5.27,17.79-9.29,26-5.37,11-12.37,21.15-18.06,32-1.29,2.47-.08,6.25,0,9.42-2.78,2.15-6.2,3.83-8.22,6.54-9.45,12.67-27.66,18.92-43.11,13.92-4.3-1.39-9.82-2.9-12-6.2-8.21-12.32-15.28-25.41-22.77-38.2C316,182,314.68,176.77,312,172.33c-1.51-2.51-5.25-3.69-8-5.47v0c2-5,3.34-10.29,6-14.82,2.21-3.73,4.9-6.48-.77-9.55l-9.55,4.26c-.69-3.15-1.22-5.56-1.74-8,3.32-2,6.67-3.86,10-5.88,10.22-6.26,20.25-5.4,28.3,2.47l7.78-.54,1.3,8.35c8.94,6.44,17.32,13.66,28.22,6.75,4.77-3,13.66-3.81,11.11-14.16-2,0-4.11-.51-5.81.08-9.09,3.17-18,3.46-27-.33-2.3-1-5.23-.45-7.87-.62q6-13.83,12.05-27.67l8.13-5.38h3.72l6.31,4.84,2,2c.61.63,1.22,1.26,1.82,1.9a83.51,83.51,0,0,0,17.43,28.18c1.3-3.91,2-5.91,2.41-7.21,11-5.6,19.47,1.28,29,5.06,6.33-17.19,12.25-33.3,18.18-49.41ZM338,158.84c-3.14-4.61-6.27-9.23-9.86-14.52l-9.54,7L334,162.9l6.06,12c2.56,8.88,11.59,7.68,17.61,11,10.41,5.82,23.25.13,27.65-11.57l8.26-13.19-28.76,6.44-7.13-2.23Z" transform="translate(469 33.1)"/>
    <path class="cls-2" d="M492.7,272.53c1.65,6.7,4.41,13.38,4.57,20.12.11,4.7-3.35,9.49-5.21,14.24l-8.1.16L480.8,307c-.27-.72-.54-1.44-.82-2.17l-.07-.64-.33.56c-2,2.51-4,5-6.05,7.63L462.36,316l-6.17-9.84-4.12,11.43-2.85.74-4.8-12.71c-4.61-1.76-13.74,1.7-11.91-10l19.86-7.69-.22-2.48L426.3,283l-8.05,12.93c-.52-4.43-.79-6.74-.87-7.45l-29.75,2.49c0,.64.09,1.27.14,1.91l12,4.73-15.18,4.15c.68,2.14,1.12,3.53,1.63,5.16l-14.77,3.52c-.2-.67-.41-1.33-.62-2l8.69-4.93-7.69-6.12c-19.59,3.29-33.21-6.95-48-13.24-.69,2.33-1.32,4.46-2,6.59l-2.47.1c-.68-3.32-1.37-6.64-2.08-10.12l-5.77,1.22c4.25-6.13,10.23-5.41,16.35-4.09l8.11-5.34H372.9l22.5-27.54,19.87-7.56c4.66-13.71,9.61-28.27,14.55-42.83l19.72,10.73-4.1,14.1,6.88-8.57,9.49,8.05.19.14c-4.95,3.18-11,5.71-8.68,14l6.06-9,8.55,8.79.17.13,2.17,7.25-10.8,3,7.36,6L455,257.5c.52,3,1,5.9,1.83,10.32H476Zm-45.11-15.32c-1.65-3.27-2.88-5.7-4.25-8.38L427.57,259c.15.69.31,1.39.46,2.08Zm6.51,35.72.55,2.64,24.2-4.88-5.23-3.49Z" transform="translate(469 33.1)"/>
    <path class="cls-1" d="M429.82,194.55c-4.94,14.56-9.89,29.12-14.55,42.83l-19.87,7.56-22.5,27.54H336c-10.25-8.71-21.47-16.53-30.48-26.37-10.46-11.41-21.25-23.29-23.26-39.93,4.37-12,15-12.67,25.43-13.84-3.8-12.43-7.56-24.7-11.32-37q3.83,5.74,7.64,11.52v0L317.89,187c7.49,12.79,14.56,25.88,22.77,38.2,2.2,3.3,7.72,4.81,12,6.2,15.45,5,33.66-1.25,43.11-13.92,2-2.71,5.44-4.39,8.22-6.54,8.65-4.42,11.65-12.35,14.15-21.11,1.48-5.18,5.1-9.74,7.76-14.58Zm-70.31,53.93,34.8-9.15c-.27-1-.53-2-.8-3-10,2.19-20.09,6.17-30.11,6.07-9.76-.11-19.47-4.39-29.21-6.83l-1,3.91Z" transform="translate(469 33.1)"/>
    <path class="black" d="M162.23,385.17l5.73-9h22l1.87,4.54,24.6-50.66,14.7,2.82c.29.74.57,1.49.86,2.23l-15.79,10c-.66,2.91-1.45,6.42-2.24,9.92-.21.19-.62.42-.59.55a8.46,8.46,0,0,0,.57,1.37l-2.28,5.24c-6.2,3.66-8.26,8.32-3.52,14.61l-2.37,3.76c-3.37,3.7-5.3,7.6-1.7,12.26l-2,6.23v0l-5.45,3.72c1.3,4.35,2.12,7.11,2.28,7.65-2.11,9.37-3.74,16.62-5.34,23.69l9.79,12.33c-.42,3.4-.81,6.65-1,8.6,6,17,11,32.81,4.84,49.72-.5-6.08-5.52-6.94-9.79-7.62-14.55-2.28-37.76-24.71-39.37-40-2.46-23.36-3.81-46.49,2.27-69.49Z" transform="translate(469 33.1)"/>
    <path class="cls-1" d="M214.06,898.84v9L192.89,897.7l-1.55,1.72,15.92,16.52,9.27,15.4c-.3,2-.93,6.2-1.36,9.07H190.49L189.25,943q-11.4-11.25-22.82-22.48c.56-13.58.35-27.24,1.92-40.7,1.31-11.2,4.7-22.15,7.17-33.21,13.06,15.18,31.92,13.48,38.43-3.46l8-4.32,5.14,1.93-4.32,6,2.94,2q3.14-4.92,6.28-9.84l8.24,7c.76,7,1.38,12.85,2.16,20.08l-14.14,1.28,9.28,10.24-1.27,1.71L225.69,874l-10.94,7.48c4.14,3.25,7.76,5.36,10.37,8.36,2.21,2.53,3.26,6.08,4.82,9.17l-14-3.88L194.26,884c-.33.69-.66,1.39-1,2.08,6.32,5.17,10.55,13.56,20.78,12.72Zm-40-13c-3.21,7.33.41,10.34,6.85,13.24l7.18-6.11Z" transform="translate(469 33.1)"/>
    <path class="black" d="M522.74,379.08l3.52-6,6.7,9,18.62,5.23,12.21-7.65,5.89,11.56c-.3,11.17-.13,22.39-1,33.52-1,11.43-3,22.78-4.5,34.17l-6.39,29.81c-6.93,8.3-8,18.17-7.63,28.44l-6.87,35.13c-1.58-4.74-4.53-9.46-4.52-14.19,0-19.88,1-39.76,1.45-59.64.07-3.56-.22-7.5-1.69-10.62-4.08-8.61-5.72-17,.41-26-2.4-4.3-4.71-8.45-7.15-12.81C528.81,412.75,525.77,395.91,522.74,379.08Z" transform="translate(469 33.1)"/>
    <path class="black" d="M282.33,844.64l-30.81-9.89-1.26,2.1-5.77-7.56c14.66,2.17,29.29,4.56,44,6.44,16.32,2.1,32.65,4.43,49.06,5.39,21.83,1.28,43.76,2.28,65.6,1.66,18.7-.54,37.36-3.35,56-5.48q33.81-3.85,67.54-8.34c9.06-1.2,18-3.2,27-4.83q-1,10.07-2.06,20.13l-5.49,4.83L526,844.87l-20-2L486,845l-10-.13-26,2.14-24.13,3.85L402,855,367.93,853l-17.9-2.2-4.08,2L324,849l-32.09-2.41Z" transform="translate(469 33.1)"/>
    <path class="cls-1" d="M344,134.85l-7.78.54c-8.05-7.87-18.08-8.73-28.3-2.47-3.29,2-6.64,3.93-10,5.88l-1.77-5.42-1.48.29q-.79,5.57-1.58,11.13L284,137.44c-1.44-13-2.88-26-4.25-38.35l-9.82-3,0-.17c.39-2.5.77-5,1.16-7.48l8.71-1.62c.21-3.74.38-6.93.55-10.13l11.43-3.91,12.34,6.36-8,4.44c2.19,11.33,4.3,22.23,6.41,33.12l2.15-.39V91.73L313.91,83l2.4.48,8.88,16.72,1.6-3.07,27.8-2.29c.62,5.48,1,9,1.42,12.47L344,134.92Z" transform="translate(469 33.1)"/>
    <path class="cls-3" d="M564.13,458.94c1.55-11.39,3.55-22.74,4.5-34.17.92-11.13.75-22.35,1-33.52l-1.38-12.67c1.91-2.68,3.92-5.28,5.7-8,2.42-3.75,4.67-7.61,8.26-13.53l12.4,14.1c21.44-10.18,36.86-27.46,51.45-45.82,2.74-3.44,7.11-5.59,11.9-7.1-3.87,10.67-7.26,21.21-18.08,26.6.33-1.81.65-3.62.82-4.54l-27.64,27.39,5-.8c-1.45,3.78-3,7.5-4.29,11.34-.89,2.73-1.34,5.6-2,8.41,7.76-1.95,15.49-4,23.31-5.75,1.61-.36,3.5.53,5.27.85l-18.57,8-12.4,2.47-5.72,11c1.29,1.58,2.68,3.3,4.07,5l-7.92,18.25-9.91-1.68c-9.41,5.66-13.27,15.54-18,24.93C570.15,453.16,566.78,455.86,564.13,458.94Z" transform="translate(469 33.1)"/>
    <path class="cls-1" d="M287.11,7c6.5-16.13,22.2-22.25,31.16-29.49,12.19-3.69,20.75-5.6,28.75-8.86,12-4.88,44.19.93,53.48,10.4-7.47-.95-14.92-2.09-22.42-2.77-4.54-.4-9.16-.07-13.74-.07l-.77,3.49C387.79-19.47,399.44-3,409.88,15a139.64,139.64,0,0,0-71,5.28c-2.12.7-4.55.45-6.84.64l-6.46-2.25c4.22-2,8.28-4.55,12.71-5.78s9.32-1.24,8.7-7.33c-4.89-5.7-15.94,2-17.89-10.83l14.81,2.64L349-8.57c-5.23-4.2-10-10-18.17-6.21-1.76,2.73-3.52,5.44-5.29,8.16l-8.11.93L295.73,8.84Zm100.25,3.41C382.81.89,370.61-2.55,360.84.8Z" transform="translate(469 33.1)"/>
    <path class="black" d="M287.11,7l8.62,1.83L317.45-5.69l8.11-.93c1.77-2.72,3.53-5.43,5.29-8.16,8.19-3.75,12.94,2,18.17,6.21l-5.11,5.94L329.1-5.27C331.05,7.58,342.1-.14,347,5.56c.62,6.09-4.19,6.08-8.7,7.33s-8.49,3.8-12.7,5.78L318,20.87l-2.22,2a10.27,10.27,0,0,0-1.75-.09v0c-2.12-5.53-6.65-3.61-8.66-1.29-4.33,5-9.43,10.62-10.73,16.73C292.42,48.84,292.81,60,292.09,71c-.13.59-.24,1.19-.34,1.79l-11.43,3.91-2.16-.76c-5.91-10.93-3.88-22.56-1.63-33.62C279,30.3,283.5,18.75,287.11,7Z" transform="translate(469 33.1)"/>
    <path class="cls-1" d="M553.55,1068.08l-2-2.14c-2.55,5.39-5.07,10.72-8,16.85L531.5,1078c-1.62-4.35-3.12-8.35-4.69-12.56,2.08-6.4,8.66-12.81-.12-20.41l-9.76,2c2.38-7.3,4.85-14.92,7.35-22.59l12.23-9.16-.74-1L547,1010.1l-9-9.71c8.48-7.16,13.84-5.5,18.36,4.57-.15,9.65-.07,19.3-.51,28.94C555.29,1045.3,554.32,1056.68,553.55,1068.08Z" transform="translate(469 33.1)"/>
    <path class="cls-1" d="M174.18,1213.53c3.26.13,7-.75,9.7.56,21.62,10.62,45.15,11.32,67.5,7.79a51.45,51.45,0,0,0,40.65-33l-.08.05c.74,4,1.47,7.95,2.23,12l5.8.79c-10.36,7.91-9.9,21.31-16,31.4-4,.47-8.25.33-12,1.55-7.16,2.31-14,4-20.4-1.53-6.82-.74-13.75-2.6-20.44-2-14.36,1.32-28.61,3.91-42.9,6-3.53,3.53-7,7.13-10.67,10.5-.46.42-2.07-.42-3.14-.68Q174.31,1230.23,174.18,1213.53Z" transform="translate(469 33.1)"/>
    <path class="cls-1" d="M-178,217c22.67,9.29,45.11,19.21,68.08,27.72,25.69,9.53,51.76,18.08,77.84,26.52,30.24,9.79,60,20.53,88.62,34.6,11.32,5.56,24.37,7.76,36.8,10.81,3.23.79,7.09-1,10.66-1.58,1.13,3,2.63,5.91,3.28,9,.6,2.85.29,5.88.38,8.84-21.17-8.6-42.94-16-63.37-26.07-38.6-19.06-80.85-27.14-120.64-42.29-34.59-13.17-68.14-29.05-102.14-43.73C-178.33,219.54-178.16,218.26-178,217Z" transform="translate(469 33.1)"/>
    <path class="cls-1" d="M164.46,951.36a53.88,53.88,0,0,1,5.64,4.36c2.08,2.06,3.81,4.46,7,8.25,5.14-12.14-8.75-15.11-7.09-24.34l27.16,9,3.09-6.1c10.44,4,11.43,6.47,6.57,16.8l-9.52-4.51c0,6,0,6,14.52,15.8-.18.73-.37,1.46-.55,2.19l-20.13-6V979.1l10.25,4.13c-1.28,3.35-2.45,6.46-3.75,9.87l-9.1-.67-.69,1.53,17,7c-.42,1.13-.85,2.26-1.28,3.39L180.91,996c-.3.53-.59,1.06-.88,1.59l24.61,12.18-1.66,3.18-36.31-17.45c.26-1,.51-1.92.77-2.87l13.82-1.93.67-1.78-12.72-7.95,13.71-5.72-18.47-14.76C164.45,957.42,164.46,954.39,164.46,951.36Z" transform="translate(469 33.1)"/>
    <path class="cls-1" d="M189.7,1185.06c-.49,6.35-4.63,3.38-6.68,2-7.93-5.41-15.52-11.33-23.23-17.07-.51-2.55-1.44-5.08-1.45-7.62-.08-14.58.06-29.16.12-43.74q0-29.74,0-59.5l2.07-49.81,16.2-1.39,7.21,9.1c-5.77,5.53-14.09-3.77-18.4,4.71l11.86,13.5-8.32,2c-6.24,10.28,6.75,17.39,4.41,27.72l-10.36-2.4c1.31,10.39,2.5,19.8,4.22,33.43-1.09,13.07-2.58,30.77-4.07,48.58l7.65,5.2-5.61,3.63C163,1171.89,176,1178.76,189.7,1185.06Z" transform="translate(469 33.1)"/>
    <path class="black" d="M409.88,15c-10.44-18-22.09-34.47-46.31-35.29l.77-3.49c4.58,0,9.2-.33,13.74.07,7.5.68,14.95,1.82,22.42,2.77,17.14,4.27,24.44,19,33.59,31.69.39,7.24.79,14.49,1.26,23.32l-9.27-6.58-6.23,3.59Z" transform="translate(469 33.1)"/>
    <path class="cls-2" d="M564.13,458.94c2.65-3.08,6-5.78,7.79-9.29,4.75-9.39,8.61-19.27,18-24.93l9.91,1.68c-10,20.84-19.71,41.88-30.3,62.45-4.4,8.55-10.75,16.11-16.2,24.12q2.19-12.12,4.39-24.22Z" transform="translate(469 33.1)"/>
    <path class="cls-1" d="M214,843.18c-6.51,16.94-25.37,18.64-38.43,3.46a2.46,2.46,0,0,1,.55-1.4L183.7,832l12.61-3.55-2.43-9.62L221,821.66C218.24,830.12,216.1,836.65,214,843.18Z" transform="translate(469 33.1)"/>
    <path class="cls-3" d="M163.3,1293.15c.57,5.14,2.36,10.49,1.51,15.38-5.41,31-10.77,62-8.85,93.76,1.06,17.48,2.06,35,1.75,52.52-.33,19-2.21,38-3.42,57.06-.7-30.81-1.58-61.6-2-92.4-.34-23-1.21-46.18.17-69.15,1.1-18.27,5.21-36.37,8.14-54.52C160.72,1294.8,162.35,1294,163.3,1293.15Z" transform="translate(469 33.1)"/>
    <path class="cls-3" d="M517.77,1234.64l3.37,15c.16,7.41.33,14.78.49,22.15-1.71-4.45-3.41-8.89-5.32-13.85-1.18,2.27-2.44,4.66-3.95,7.55L476,1276.85a70.48,70.48,0,0,0-7.55-4.27c-13.65-5.73-24.54-14.21-29.17-26.61,1.3-6.28,2.17-10.51,3.22-15.64l5.7-1.25c1.2,6,1,12.84,3.91,17.91,4.16,7.3,10.53,13.35,15.6,19.5,4.24,1.08,8,2.58,11.89,2.9,4.44.37,9.28.66,13.41-.68,13.41-4.37,22.29-17.81,16.83-39.57Z" transform="translate(469 33.1)"/>
    <path class="cls-3" d="M666.18,331.19v-6.06c8.69-2.34,16.86-4.3,24.89-6.74,30.73-9.34,61.4-18.87,92.12-28.21,2.81-.85,5.88-.86,8.82-1.26-3.76,1.6-7.73,2.87-11.24,4.91-3,1.75-5.53,4.38-8.26,6.62-29.34,9.43-58.69,18.8-88,28.41-2.58.85-4.63,3.29-6.92,5Z" transform="translate(469 33.1)"/>
    <path class="cls-1" d="M772.51,300.45c2.73-2.24,5.24-4.87,8.26-6.62,3.51-2,7.48-3.31,11.24-4.91l38-10.05c11.21.32,22.45.77,30.08-9.83L892,258.86l24-4,1.81,1.53A1082.87,1082.87,0,0,1,772.51,300.45Z" transform="translate(469 33.1)"/>
    <path class="cls-2" d="M141.9,357q3,4,6,8l6.09,11.5-4,5.23-13.36-4.25L126,379.75c-4-12-7.93-23.86-11.87-35.73l3.63-3.31Z" transform="translate(469 33.1)"/>
    <path class="cls-3" d="M141.9,357l-24.11-16.25L114.16,344q-3.25-5.56-6.5-11.12c-.09-3,.22-6-.38-8.84-.65-3.1-2.15-6-3.28-9,.25-1.22.5-2.45,1-4.91l19.18,17.2,1.29-.95,18.39,20.67Z" transform="translate(469 33.1)"/>
    <path class="cls-1" d="M419.85,31.08l6.23-3.59,9.27,6.58c-.47-8.83-.87-16.08-1.26-23.32,2.57,7.73,6.15,15.3,7.45,23.24,1.73,10.53,1.67,21.36,2.37,32.07l-2.24.75L427.93,45.19l-1.66.63L427.89,65c-2.09-7.44-4.33-14.84-6.21-22.34C420.73,38.88,420.44,34.94,419.85,31.08Z" transform="translate(469 33.1)"/>
    <path class="cls-1" d="M-178,217c-.16,1.28-.33,2.56-.49,3.83-18.78-10.65-37.69-21.08-56.28-32-11.29-6.66-22.09-14.15-33.11-21.25,3.46.86,7.35,1,10.31,2.7C-230.95,185.65-204.5,201.35-178,217Z" transform="translate(469 33.1)"/>
    <path class="black" d="M165.67,1641.56l-.78,5.42-26.31,1.35c0-7.28,0-13.4,0-19.52,0-2.2-.17-4.4-.25-6.6l6.12-10.56,7.29,4.84c-1.91,4.47-4,8.87-5.66,13.43-1.15,3.11-1.74,6.43-3.1,11.64Z" transform="translate(469 33.1)"/>
    <path class="cls-3" d="M425.92,175.2c-2.66,4.84-6.28,9.4-7.76,14.58-2.5,8.76-5.5,16.69-14.15,21.11-.06-3.17-1.27-6.95,0-9.42,5.69-10.83,12.69-21,18.06-32,4-8.22,6.28-17.31,9.29-26,1-2.89,1.93-5.8,4.68-8.25v5.55Z" transform="translate(469 33.1)"/>
    <path class="black" d="M529.48,207.32l13.37,12.59c2.54,7.22.65,12.85-9.36,17.12-4.73-8.19-9.42-16.33-14.89-25.82l9.49-4.23A13.41,13.41,0,0,1,529.48,207.32Z" transform="translate(469 33.1)"/>
    <path class="cls-2" d="M642,381l16.32-24.27,9.41-5.53c-2.41,12.61-2.76,26.06-14.56,35.85Z" transform="translate(469 33.1)"/>
    <path class="cls-3" d="M174.41,1246.94c1.07.26,2.68,1.1,3.14.68,3.68-3.37,7.14-7,10.67-10.5-4.11,11.74-3.05,22.59,7.14,32.62l-9.87,1.16c-1.56-3.68-3-7-5.6-13.16l-5.9,8.43-5.67,8.11Z" transform="translate(469 33.1)"/>
    <path class="cls-3" d="M193.88,818.78l2.43,9.62L183.7,832l-7.63,13.29c-5-12.55,2.79-22.81,6.08-33.88l5.85,3.52c0,.68,0,1.36,0,2l3.91,1.81C192.57,818.73,193.23,818.75,193.88,818.78Z" transform="translate(469 33.1)"/>
    <path class="cls-2" d="M476.19,214.23c10.27,11,10.23,25.21,12.13,38.81l-10.45-2.86c-3.85-1.23-3.85-1.23-1-8.5l6,2.1-6.75-9.9,2.1-1.36-8.05-10.21-1.32-6.7,6.23.52S475.61,215.19,476.19,214.23Z" transform="translate(469 33.1)"/>
    <path class="black" d="M667.71,351.23l-9.41,5.53c-4-10.55,2-18,7.88-25.57l11.44,2.66Q672.67,342.55,667.71,351.23Z" transform="translate(469 33.1)"/>
    <path class="black" d="M225.76,212.66l12-1L239,214c-5.36,7.05-10.73,14.09-17.46,22.93-2-5.93-3.15-9.49-4.39-13.21l7-8.72,1.31-2.26Z" transform="translate(469 33.1)"/>
    <path class="cls-3" d="M293.17,144.8q.79-5.56,1.58-11.13l1.48-.29L298,138.8c.52,2.41,1.05,4.82,1.74,8l9.55-4.26c5.67,3.07,3,5.82.77,9.55-2.7,4.53-4.08,9.84-6,14.82q-3.81-5.77-7.64-11.52Z" transform="translate(469 33.1)"/>
    <path class="cls-3" d="M968.92,233c1-1.84,1.58-4.55,3.14-5.38,7.51-4,15.19-7.71,23-11,1.85-.76,4.58.61,6.9,1C992.24,225.47,982,232.17,968.92,233Z" transform="translate(469 33.1)"/>
    <path class="cls-2" d="M269.93,96.05l9.82,3c1.37,12.35,2.81,25.35,4.25,38.35-1.59-3.88-3.41-7.69-4.72-11.66C276,115.91,273,106,269.93,96.05Z" transform="translate(469 33.1)"/>
    <path class="cls-3" d="M529.5,1338.18c-.91-4-2.27-8-2.65-12.15-1.62-17.63-3-35.28-4.4-52.92A199.64,199.64,0,0,1,529.5,1338.18Z" transform="translate(469 33.1)"/>
    <path class="black" d="M504.16,1595.1l7.12,2.37c1.36,7.45,2.42,15,10.52,18.68l-9.11,4.42L506.4,1603l-4.07-.79Z" transform="translate(469 33.1)"/>
    <path class="cls-3" d="M154.37,1517.58c1.08,1.1,3,2.15,3.11,3.32,1.16,18,2.08,36,1.52,54.11q-1.29-10.07-2.59-20.13Z" transform="translate(469 33.1)"/>
    <path class="cls-3" d="M520.42,1440.67q2-23.62,4-47.24c.79-9.47,1.55-19,3.89-28.46v25.89c-2.08,15.84-4.14,31.7-6.3,47.54C521.93,1439.22,521,1439.92,520.42,1440.67Z" transform="translate(469 33.1)"/>
    <path class="cls-2" d="M441.67,66.81l2.24-.75c0,2,0,3.92,0,5.06l11.7,7.51-5.28,8.8L445,87.27l-6.41-4.45c-.28-2.16-.54-4.1-.79-6Z" transform="translate(469 33.1)"/>
    <path class="cls-2" d="M468.8,215.61l1.32,6.7q-1,5.3-2,10.6l-.17-.13Q465,225.9,462,219l-.19-.14c-2-4.61-3.95-9.23-6.25-14.64C466.3,202.22,465.17,211.54,468.8,215.61Z" transform="translate(469 33.1)"/>
    <path class="cls-1" d="M554.2,868.92c-2.63,8-8.45,2.79-13.28,4,2.36-5.7,9-9.71,3.12-16l3.94-3.94,2.12-.26C557.65,856.52,552.17,863.67,554.2,868.92Z" transform="translate(469 33.1)"/>
    <path class="cls-3" d="M513.72,1496.51c-6.09-.19-3-4-2.68-6.74,1.2-10.31,2-20.68,3.68-30.91.93-5.71,3.23-11.2,4.91-16.78-1,10.32-1.77,20.65-2.87,30.94C515.93,1480.87,514.75,1488.68,513.72,1496.51Z" transform="translate(469 33.1)"/>
    <path class="cls-1" d="M1104,160.9c3.36-3,6.71-5.93,11-9.75l14.66,4.6-25.06,8.95Z" transform="translate(469 33.1)"/>
    <path class="cls-1" d="M1021,208.51c3.92-8.62,18.62-15.74,30.57-14.81Z" transform="translate(469 33.1)"/>
    <path class="cls-1" d="M917.82,256.42,916,254.89,938,243l11.79-.94c-7.11,3.52-14.17,7.15-21.37,10.49C925,254.11,921.37,255.14,917.82,256.42Z" transform="translate(469 33.1)"/>
    <path class="cls-2" d="M666.46,228.5l-14.87,9.37-1.88-1.82c.14-1.68.29-3.37.42-5L670,221.53l1.54,2.32Z" transform="translate(469 33.1)"/>
    <path class="cls-1" d="M607.77,408.15c-1.39-1.72-2.78-3.44-4.07-5l5.72-11,12.4-2.47Z" transform="translate(469 33.1)"/>
    <path class="cls-3" d="M150,381.66l4-5.23L148,364.93l14.28,20.24-1.94,2.41Z" transform="translate(469 33.1)"/>
    <path class="cls-3" d="M158.44,1059.11q0,29.76,0,59.5Q158.45,1088.87,158.44,1059.11Z" transform="translate(469 33.1)"/>
    <path class="cls-3" d="M1104,160.9l.63,3.8-25.65,14Z" transform="translate(469 33.1)"/>
    <path class="cls-2" d="M104.21,1710.36c-.39,2.9.2,6.53-1.33,8.56-4.5,5.93-9.85,11.22-14.86,16.77Z" transform="translate(469 33.1)"/>
    <path class="cls-2" d="M278.16,75.89l2.16.76c-.17,3.2-.34,6.39-.55,10.13l-8.71,1.62c-.39,2.48-.77,5-1.16,7.48-.3-4.54-.61-9.08-.82-12.3Z" transform="translate(469 33.1)"/>
    <path class="cls-1" d="M557.74,488.75q-2.19,12.11-4.39,24.22l-3.24,4.22C549.71,506.92,550.81,497.05,557.74,488.75Z" transform="translate(469 33.1)"/>
    <path class="cls-1" d="M536.21,1667.16c-.14-1.52-.28-3-.41-4.55l-1.7-1.55c0-.73-.07-1.47-.11-2.2,0-2,0-4,0-6l-.06-1.9.42-.35q1.64,8,3.26,16.07C537.15,1666.84,536.68,1667,536.21,1667.16Z" transform="translate(469 33.1)"/>
    <path class="cls-3" d="M550.1,852.66l-2.12.26c-.62-1.27-1.23-2.55-1.85-3.83l5.49-4.83c0,1.75,0,3.51,0,5.26a1.05,1.05,0,0,0-.77,1.15C550.64,851.34,550.37,852,550.1,852.66Z" transform="translate(469 33.1)"/>
    <path class="cls-1" d="M530.22,1642.7l4.14,7.89-.42.35c-.43-.07-.87-.15-1.3-.25q-1.35-3.89-2.68-7.76Z" transform="translate(469 33.1)"/>
    <path class="cls-3" d="M-335.12,128.69l6.11-.11Z" transform="translate(469 33.1)"/>
    <path class="cls-1" d="M526.46,1636.81c.46,0,.92,0,1.38,0l2.38,5.85-.26.23-3.73-1.78C526.31,1639.7,526.38,1638.25,526.46,1636.81Z" transform="translate(469 33.1)"/>
    <path class="cls-1" d="M550.9,850.67a1.05,1.05,0,0,1,.77-1.15A.83.83,0,0,1,550.9,850.67Z" transform="translate(469 33.1)"/>
    <path class="cls-3" d="M536.21,1667.16c.47-.15.94-.32,1.41-.5-.45.85-.9,1.71-1.34,2.57C536.25,1668.54,536.23,1667.85,536.21,1667.16Z" transform="translate(469 33.1)"/>
    <path class="cls-1" d="M367.92,853,402,855l-11.54,3.4,9.55,8.54c-2.58.53-5.27,1.78-7.73,1.44-4-.57-6.43-.16-6.29,4.5l-10.64-3.93v22.2l2.44.59L384,876.84c7.07,11.43,12.44,12.73,18.65,7.61L429.43,880c-.08-1.06-.17-2.13-.26-3.19H409.59c0-1,0-2.06-.07-3.09L450,868.84,456,869,467,870.73c.2.5.41,1,.62,1.49l-12.51,3.34c-.94,4.09-2,8.72-3.09,13.35h0l-36.08,3.89h0c-6.32-1.17-12.83-4.18-19,2.14l3.41,5.7c4.72-.67,8.45-1.16,12.18-1.74s7.71-1.29,11.57-1.94l23.81-.26,39.42,3.39c0,.7.09,1.4.14,2.1H442.84c-1.58,4.22-2.65,7.07-4,10.62L451,916.5c2.75,12.75,5.57,25.81,8.4,38.88l-2.11,1L451,962c2,2.12,3.83,4.14,5.36,5.81-.49,5.24-.95,10.08-1.55,16.44l-30.95-2.28c-.19,1.24-.39,2.49-.58,3.73,17.78,5.67,37.24,3.89,55,11.63H452c-5.1,12.21,6,14.07,11.89,20l-11.6,5.2.36,2.08-8.27-2.61-1.15,1.27c2,2.14,4,4.29,6.12,6.55v12.59l-18.67-14.86c-.61.67-1.22,1.33-1.82,2,2.19,10.89,16.39,10.67,21,19l-12.13,1.8,4.68,9.5c-8.36,17.18-15,34.52-14.23,55.84-2.21,2.63-5.79,6.86-9.81,11.62,7.62,9.58,17.05,15.33,27.43,19.82l-5.83,1.86-7.26-3.91-8.45,23.48,19.48,20.21-29.85-9.94-23.72-14c-.69-5.66-.87-11.43-2.14-17-7.67-33.09-15.7-66.11-23.35-99.21-2.27-9.87-3.7-19.93-5.51-29.9,7.84-12.48-1.46-22.56-3.89-33.34-1.29,8-2.82,16.07-3.73,24.18-.22,1.94,1.57,4.11,2.44,6.17-10.17,2.08-8,11.73-9.54,17.86a486.59,486.59,0,0,0-10,52.41c-2.33,16.43-3.54,33-10.48,48.41s-13.49,30.68-20.23,46L292,1188.89l.08-.05-41.85,7.94,8.52-5.76c-.26-4.17-.48-7.67-.82-13.25l20.3,8.19c1-7,1.72-12.41,2.55-18.38l-6.62-4.44,17.39-12.55c.82-10.23,1.48-18.34,2.13-26.46l-.66.06v-46.4c-9.28-5.19-4.46-13.8-6.75-20.53l-4.42-2-3.92-15.78,10.12-2.56c13.59,2,33-1.68,38.72-8.51l-33.83-6.17c-.25.9-.51,1.79-.77,2.69l8.89,6.14-13,3.84-9.34-.56c-2.25-12.4-5.23-15-17-15.37-5.9-.17-11.81,0-17.72,0l-21.85-2.14,13.92-1.93,25.8-.14,9.85-3c15.74,3.28,31,7,48.45,3.87-8.39-11.13-16.88-18.72-29.71-21-13.56-2.36-27-5.43-40.42-8.61-4.06-1-7.79-3.34-11.67-5.07,0-.83,0-1.65,0-2.47,2.24-.43,4.67-1.63,6.7-1.15,16,3.77,32,7.86,48,11.85l27.59,6.89c-4.47-11.27-17.87-18.72-30.26-17.15-5.66.72-11.5.12-18.1.12.54-4.28.88-7,1.43-11.43l-16.37-1.72c.72-2.95,1.52-6.25,2.26-9.33l34.09,2.7c.14-1.35.42-4,.73-6.9l-23.42-5c-11.2,3.32-11.2,3.32-14.19-4.29,10.12-2.55,23.49,3.94,30.73-10.14L277,927.42c-2.06-5.54-3.39-10.81,5-12.57l47.81,14.53c.3-.9.6-1.8.89-2.7l-25.21-10c2.67-2.92,4.32-4.71,5.39-5.89l13.84,3c.45-1,.9-2.09,1.36-3.14-6.46-3.52-12.91-7-19.54-10.68-1.53,5.76-2.94,11.1-4.3,16.22l-18.07-5.43c-2.3-1.22-4.59-2.43-8.46-4.5l8.6-14.63-30.95-6.78,10.18-9.6,11.07,6.28c11.22-5.3,21,2.52,31.64,5.06,6.76,1.61,13.27,4.37,20.08,5.6,3.51.64,7.42-.93,11.18-3.22-20.49-14.71-44.27-18.35-67.65-23.17V850.05l16,4.94,22,8c9.4,10,21.83,11.38,33.81,12.63l5.81-14.55q0,20.83,0,41.68l2.78,0V879.08L354,880.9h0v22.33l7.55.65,1.15-8.65,2.92,9.37,2.32-.37V884.77l-.15-29.65C367.83,854.42,367.88,853.72,367.92,853Zm50.17,154c-5.69,1-12.52.28-14.17,10.53l16.09-2.65,10.29-.82.63-3.49ZM406,919h16.38c.2-.79.39-1.57.58-2.36L412.61,905Z" transform="translate(469 33.1)"/>
    <path class="cls-1" d="M517.77,1234.64l-8-5.5-61.64-.06-5.7,1.25c-1.05,5.13-1.92,9.36-3.22,15.64,4.63,12.4,15.52,20.88,29.17,26.61a70.48,70.48,0,0,1,7.55,4.27c-5.9.65-11.85,2.1-17.7,1.79-11.58-.6-23.06-11.39-26.36-23.64-1.53-4.55-3.07-9.09-4.75-14.07-9.4,4.58-6.19,10.5-6.28,15.86q-.72,43.2-2.18,86.38c0,1.15-2.77,2.21-4.24,3.32,1.27-17.09,3.29-34.17,3.65-51.28.71-33.66-2.12-67-12-99.44,2.93,1.22,6.7,1.65,8.67,3.76,14,15.08,32.66,17.34,51.49,19.3,3.6.37,7.18.89,11.59,1.45L519,1208.35C518.58,1217.08,518.18,1225.86,517.77,1234.64Z" transform="translate(469 33.1)"/>
    <path class="cls-1" d="M431.84,1461c.06,1.31.13,2.61.19,3.92,1.14,9.86,1.48,19.9,3.56,29.56,7.41,34.51,12.79,69.12,8.56,104.55-.09,1.24-.18,2.47-.28,3.71l-4-5.63c-9.39,9.08-10.43,16.19-3.76,29.76l5.76-2,6.34-.17,7.51,8.43-11.06-3.57c.16,3.58.3,6.5.48,10.33l-10-6.22c-1.76,2.51-3.16,4.51-4.56,6.49L421,1635.6c-1.82,5.6-3.38,10.43-4.95,15.25q-2.83-4.06-5.66-8.15c3.87-14.12,8.49-28.09,11.37-42.41,2.12-10.5,7.79-17.58,16-23.11,1.93-32.59-4.49-63.85-10.24-95.27-3.83-20.93-6.08-42.15-9-63.23l3.28-5.35c.9,9.94,1,18.63,2.65,27C425.82,1447.44,423.86,1456.11,431.84,1461Z" transform="translate(469 33.1)"/>
    <path class="cls-3" d="M251.56,1233.13c6.44,5.52,13.24,3.84,20.4,1.53,3.79-1.22,8-1.08,12-1.55-1.91,10.72-4.06,21.42-5.68,32.19-1.76,11.7-3,23.47-4.56,35.2-.11.82-1,1.55-1.51,2.32-.33-.85-.66-1.69-1.4-3.55-.85,5.13-1.68,9.22-2.19,13.35-1.49,12-5.61,24.53-3.65,36,3.17,18.51-2.89,34.11-9.06,50.26-.34-3.88-1.31-7.83-.91-11.64,1.85-17.48,6.28-34.47,6.26-52.43,0-15.2,5.07-30.37,7.54-45.62,1.21-7.45,1.61-15,2.41-22.94l-12.6-1.86c-4.59,13-17.3,14.75-28.6,19.48l-15-5.63v-1.68l14.94-3.62v5.24c16.92-.11,30.77-12.26,27.9-21.39L230,1272.92l19.33-17-4.63-9.32C246.87,1242.4,249.22,1237.77,251.56,1233.13Z" transform="translate(469 33.1)"/>
    <path class="cls-3" d="M410.41,1642.7l5.66,8.16q3.92,7,7.84,13.93,3.12,4.11,6.22,8.23c3.79,4.48,7.22,9.34,11.44,13.38,12.11,11.6,17.23,26.62,21.5,42.14-12.45-7.91-24.63-16.27-37.41-23.59-13-7.48-18.84-18.12-17.56-32.92C408.93,1662.26,409.64,1652.48,410.41,1642.7Z" transform="translate(469 33.1)"/>
    <path class="cls-3" d="M431.84,1461c-8-4.84-6-13.51-7.43-20.61-1.67-8.38-1.75-17.07-2.65-27l-3.28,5.35q-2-36.09-4-72.19c1.47-1.11,4.2-2.17,4.24-3.32q1.4-43.18,2.18-86.38c.09-5.36-3.12-11.28,6.28-15.86,1.68,5,3.22,9.52,4.75,14.07l-6.25.92V1306l1.26,0-4.29,63-1.48.29c.87,8.9,1.45,17.83,2.68,26.68,1.68,12.12,4.17,24.13,5.73,36.27C430.76,1441.75,431.1,1451.38,431.84,1461Z" transform="translate(469 33.1)"/>
    <path class="cls-1" d="M256,1398.86c6.17-16.15,12.23-31.75,9.06-50.26-2-11.45,2.16-24,3.65-36,.51-4.13,1.34-8.22,2.19-13.35.74,1.86,1.07,2.7,1.4,3.55-.15,10.1-1,20.27-.3,30.31,1.84,25.07-5.38,48.78-10.64,72.66-7.54,34.17-16.49,68-25.09,102-1.5,5.89-4.3,11.44-6.5,17.15l-1.86,0q1-13,2.06-26l4-14c1.57-3.63,3.7-7.13,4.61-10.92,5.95-25,11.64-50,17.41-75.07Z" transform="translate(469 33.1)"/>
    <path class="cls-3" d="M194.24,1725.15l3.75-12.21,3.87-4.25c1.58.6,3.75,2.18,4.63,1.64,9.66-5.88,19.51-11.74,23.59-23.23.76-2.13.53-4.62.91-8.59L210.22,1697l7.35-12.37,16.05-25.73c.85,2.67,1.69,5.33,2.53,8-1.65,9.35-3.42,18.69-4.85,28.08-.31,2.1.59,4.39.93,6.59-9,13.29-19.91,24.25-35.78,29.11a10.71,10.71,0,0,1-.45-1.75l-.08-2.11Z" transform="translate(469 33.1)"/>
    <path class="cls-3" d="M229.92,1498.84q-1,13-2.06,26c-2.89,7.34-6.35,14.52-8.43,22.09-1.11,4.07.16,8.79.35,13.22q-2.58,13.36-5.15,26.74c-3.82,5.1-2.84,9.77,1.25,14.18l-6.33,5.16C203.26,1567.46,218.7,1533.53,229.92,1498.84Z" transform="translate(469 33.1)"/>
    <path class="black" d="M463.07,1728.54c-4.27-15.52-9.39-30.54-21.5-42.14-4.22-4-7.65-8.9-11.44-13.38l12.58,3.27c1.15,2.67,2,4.7,3.14,7.24l3.69-2.07c4.42,9.09,9.27,18,13.14,27.33,3.48,8.36,5.89,17.16,8.77,25.76l-4.11.19Z" transform="translate(469 33.1)"/>
    <path class="cls-3" d="M390.19,1164.68l23.72,14c.09,1.49.18,3,.25,4.21H393.88C389.1,1177.55,385,1172.05,390.19,1164.68Z" transform="translate(469 33.1)"/>
    <path class="cls-2" d="M467.34,1734.74l4.11-.19,2.73,6.74q.92,2.79,1.82,5.6l4,24-4-2-5.87-5.31Q468.75,1749.17,467.34,1734.74Z" transform="translate(469 33.1)"/>
    <path class="black" d="M354,1015.63c-.87-2.06-2.66-4.23-2.44-6.17.91-8.11,2.44-16.15,3.73-24.18,2.43,10.78,11.73,20.86,3.89,33.34Z" transform="translate(469 33.1)"/>
    <path class="cls-2" d="M292,1188.89l11.85-8.55Q301.9,1191,300,1201.7c-2.05-.27-4.09-.54-5.8-.78C293.42,1196.84,292.69,1192.87,292,1188.89Z" transform="translate(469 33.1)"/>
    <path class="cls-1" d="M219.78,1560.17c-.19-4.43-1.46-9.15-.35-13.22,2.08-7.57,5.54-14.75,8.43-22.09l1.86,0Q224.76,1542.53,219.78,1560.17Z" transform="translate(469 33.1)"/>
    <path class="cls-2" d="M232.23,1701.53c-.34-2.2-1.24-4.49-.93-6.59,1.43-9.39,3.2-18.73,4.85-28.08.95,7.77,2.77,15.57,2.48,23.29C238.49,1694,234.49,1697.74,232.23,1701.53Z" transform="translate(469 33.1)"/>
    <path class="cls-3" d="M470.14,1763.58l5.87,5.31,6,10-3.69.06-3.53-2.49-.58-.5-4-5.7.37-.45-.45-.39Z" transform="translate(469 33.1)"/>
    <path class="cls-1" d="M193.14,1730.6c.31-.58.61-1.17.91-1.75a6.5,6.5,0,0,1-.76,1.75Z" transform="translate(469 33.1)"/>
    <path class="cls-2" d="M193.29,1730.6a6.5,6.5,0,0,0,.76-1.75l-.05,0h2a10.71,10.71,0,0,0,.45,1.75Z" transform="translate(469 33.1)"/>
    <path class="black" d="M189.35,1734.32l.07-.07Z" transform="translate(469 33.1)"/>
    <path class="cls-1" d="M470.08,1769.42l.45.39-.37.45Z" transform="translate(469 33.1)"/>
    <path class="black" d="M474.21,1776l.58.5Z" transform="translate(469 33.1)"/>
    <path class="cls-2" d="M165.67,1641.56H143c1.36-5.21,1.95-8.53,3.1-11.64,1.67-4.56,3.75-9,5.66-13.43h19.76c-1.82,5.14-2.87,8.12-4.29,12.14q1.74,4.26,4.4,10.76Z" transform="translate(469 33.1)"/>
    <path class="black" d="M217.57,1684.59,210.22,1697l-8.36,11.73-3.87,4.25c-.07-2.1-.75-4.42-.08-6.25,2.45-6.69,5.35-13.22,8.09-19.8,2.77-.82,5.53-1.73,8.34-2.42A11.77,11.77,0,0,1,217.57,1684.59Z" transform="translate(469 33.1)"/>
    <path class="black" d="M207.69,1654.46l16.9-2.13c.43,1.12.85,2.25,1.28,3.37l-13,9.82-6.2-8Z" transform="translate(469 33.1)"/>
    <path class="black" d="M155.39,1693.25l6.64,3,8.13-13.12c-.22,6.66.59,14.09-7.93,15.63-2.52.46-5.54-1.79-8.33-2.79Z" transform="translate(469 33.1)"/>
    <path class="black" d="M200.07,1645.71c1.17,2.46,3.81,5.45,3.16,7.24-1,2.63-4.27,4.42-6.57,6.57l-2.43-1.57,2.79-11.26Z" transform="translate(469 33.1)"/>
    <path class="black" d="M423.91,1664.79q-3.92-7-7.84-13.93c1.57-4.83,3.13-9.66,4.95-15.26l9.52,4.54c1.4-2,2.8-4,4.56-6.49l10,6.22c-.18-3.83-.32-6.75-.48-10.33l11.06,3.57,2.08,2.08c1,3.06,1.94,6.12,3.24,10.24l-18.83,7.88c3,5.9,5.26,10.5,7.57,15.09l-7.3-1.93,1.48,4.41c-3.74-3.49-7.52-7-11.21-10.49-2.54-2.44-5-5-7.43-7.51l-2.31,1.48Q423.46,1659.57,423.91,1664.79Z" transform="translate(469 33.1)"/>
    <path class="cls-2" d="M443.94,1670.88l-1.48-4.41,7.3,1.93c2,3.56,4,7.11,6.53,11.64l17.1,38.88,2.62-.25,6.15-10.82c3.71,12.57-.21,28.05-8,33.43l-2.73-6.73c-2.88-8.6-5.29-17.4-8.77-25.76-3.87-9.32-8.72-18.24-13.14-27.33C450.1,1676.65,450.09,1672.14,443.94,1670.88Z" transform="translate(469 33.1)"/>
    <path class="cls-2" d="M502.33,1602.18l4.07.79,6.29,17.6-7.88,10.75-14.94-5.4c-6.85-8.34,3.27-14.46,2.31-22.62Z" transform="translate(469 33.1)"/>
    <path class="black" d="M526.46,1636.81c-.08,1.44-.15,2.89-.23,4.34q2,6.43,4,12.87l1.72-.34,2-.84c0,2,0,4,0,6l-6.34,2.6L517,1651.61H505.55C507.21,1641.24,512.91,1637.33,526.46,1636.81Z" transform="translate(469 33.1)"/>
    <path class="cls-3" d="M534.1,1661.06l1.7,1.55Z" transform="translate(469 33.1)"/>
    <path class="cls-3" d="M196,1728.89h-2l.09-2.07H195l.91,0Z" transform="translate(469 33.1)"/>
    <path class="cls-1" d="M195.92,1726.78l-.91,0h-.92a6.78,6.78,0,0,1,.15-1.68Z" transform="translate(469 33.1)"/>
    <path class="cls-1" d="M482,1778.89l-6-10,4,2Z" transform="translate(469 33.1)"/>
    <path class="primary-fill color" d="M480,304.79c.28.73.55,1.45.83,2.16-.37,1.09-.76,2.18-1.25,3.58l4.41,1-4.33,8.12L485,323c-.78,5.17-1.56,10.34-2.55,17,.54.74,2,2.79,3.53,4.83l-.09.16L455,337.57c.8-3.23,1.4-5.67,2.09-8.44l8.66,9.81c.72-5.11,1.06-7.54,1.49-10.53l-22.78-8.63c-1.23,4.66-1.81,6.86-2.38,9.05L442,329l-16-16.84-1.94,1.05,3.6,8.64-4,3.68-7.61-4.05c.5-1.95,1-3.81,1.6-6.18L386.5,329.2l-17.15-7.3-3.53-9.23-7.36,8.53-10.82-14-11.06-.6,14-5.72.07-1.78H338.11l-2.82,3.68q-3-6.88-6-13.75l-3.38,2.59c.61,2.77,1.22,5.53,2,9.13l-10.84-3,.52-.88-11.91-9.35,4.91-5.57.93,0,5.77-1.22c.71,3.48,1.4,6.8,2.08,10.12l2.47-.1c.64-2.13,1.27-4.26,2-6.59,14.76,6.29,28.38,16.53,48,13.24l7.69,6.12-8.69,4.93c.21.66.42,1.32.62,2l14.77-3.52c-.51-1.63-.95-3-1.63-5.16l15.18-4.15-12-4.73c0-.64-.1-1.27-.14-1.91l29.75-2.49c.08.71.35,3,.87,7.45L426.3,283l25.85,2.5.22,2.48-19.86,7.69c-1.83,11.66,7.3,8.2,11.91,10l4.8,12.71,2.85-.74,4.12-11.43,6.17,9.84,11.17-3.63c2.08-2.61,4.06-5.12,6.05-7.63Zm-64.46-6-1.67,3.2c2.9,5.47,8.87,3.12,15.46,4.07-1-4.59-1.66-7.93-2.37-11.28l-2.5.19c-.85,2.22-1.69,4.44-2.4,6.29Z" transform="translate(469 33.1)"/>
    <path class="primary-fill color" d="M511.9,345.89l0,.36c-1.23.85-2.35,2-3.71,2.5-6.08,2.18-14.62-.65-17.1,9-.3,1.16-4.7,1.4-7.24,1.82-2.91.48-5.87.68-8.8,1l0,3.74,18.92,1.41-3.28,13.41L468.8,382l-7.24,6.14c-.33-3.47-.55-5.76-.77-8.06l-2.32-.38c-1,4-2,8.05-3.07,12.71l4.62,1-5,6.84c-2.23-3.35-4.63-6.93-7.74-11.59l-7.25,4.83-5.52-7.29h-24c0-.31-.31-2.36-.54-4.08L432.74,377c0-.84,0-1.68,0-2.52l-6.39-1.74,8.62-7.35-4.27-5.68L417.94,368l-3.57-13.41,14.92-3.25c-.17-.73-.33-1.46-.5-2.2l-8.61,1.7c-.91-2.28-1.71-4.26-3-7.38l10.89.7,4.47-7.65-11.37-7L435,326.67c.55,4.18,1.05,8,1.56,11.84l2.65.24q1.4-4.89,2.8-9.78l.12-.14,9.54,2.78,1.26,3.19-7.67,2.78,11.86,11.12,16.92-6c-.93,3.75-1.47,5.91-2,8.08H459.94c.56,5.64.92,9.33,1.29,13l2.2-.19v-5.86l12.22-1.28-3.47-5.52c5.25-.44,11.2.73,13.75-6l.09-.16,3.56-2.59,3.54,4.72c.35-4.5.59-7.57.82-10.64l2.22,0,3.11,8.47Zm-76.07,24.86.87,4.07,15-.67c.2-1.09.41-2.18.61-3.27l-8.9-6Z" transform="translate(469 33.1)"/>
    <path class="primary-fill color" d="M261.05,289.77l5.31,1.06c1.22,3.05,2.52,6.32,4.33,10.84,1.16-3,1.95-5,2.75-7.06l1.44.13c.42,2.71.83,5.42,1.35,8.75l4.36-4.09,5.37,8,.74-1.59,18.16,10.62c-1.18,1.86-2,3.14-2.83,4.42-3.7-2.36-7.4-4.72-11.55-7.35l-7.74,7.05c.83,2.57,1.62,5,2.31,7.18L279.59,334l21.83,5.24L290.35,344l-.43-2.62-10.77,1.26-.31,2.9,10.41,7.8-11.9,4.37,1,3.07L300,357.16l-7.21-9.75h13.89c-2.26-5.76-4.18-10.67-6.1-15.58h-8.34c-.75-8.41,7.52-5.12,11.14-8-.41-1-.76-1.94-1.12-2.84l27,2.47-13.6,16.72-7.83-4.44-2.1,2.16,13.11,14.3c-6.65.72-12.53-.22-17.08,7.23-2.35,3.84-11.8,3.86-18.16,4.63-9.93,1.22-20,1.6-29.91,2.33,3.51-4.29,7-8.58,10.36-12.77l-6.43-2.75c-1.08-6.79-2-12.85-3.07-19.32l-11.31,3.24c.4-5,.69-8.75,1-12.48l3-1.21,8.7,8.81c1.65-3.38,2.63-7.54,5.21-10.08s6.72-3.45,10.63-5.29Zm20.35,37L267.27,320l4.55,7.68-13,4.45,10.65,2.66Z" transform="translate(469 33.1)"/>
    <path class="cls-2" d="M261.05,289.77l10.61,24.78c-3.91,1.84-8.07,2.75-10.63,5.29s-3.56,6.7-5.21,10.08l-8.7-8.81-3,1.21c-.29,3.73-.58,7.45-1,12.48l11.31-3.24c1,6.47,2,12.53,3.07,19.32l6.43,2.75c-3.39,4.19-6.85,8.48-10.36,12.77l-16.52-2c-.22-9.44-.5-18.88-.64-28.32-.16-10.31-.2-20.63-.29-30.94l1.14-4,12.93-26.58,11.8-2v13.26C261.73,287.12,261.39,288.44,261.05,289.77Z" transform="translate(469 33.1)"/>
    <path class="primary-fill color" d="M460.12,518.83l14.68-1.49,4.8-11.05-10.4-.92L474,491.28l6.89-3.5,4.39,3.51,18.3-14.43c.54,3.94.87,6.32,1.17,8.5l7.81,4.68.12.23c.38,1.14.77,2.28,1.16,3.41,0,0-.11.56-.11.56-.57,1-1.15,2-1.72,3a.57.57,0,0,0-.23.89,1.53,1.53,0,0,0-1.23.59l-12.71-2.61-9.51,27c-2.27.56-5.63,1.39-9,2.23-2.81,1.2-5.66,2.39-8.5,3.58-.65-2.18-1.3-4.35-1.65-5.54L459.94,519Z" transform="translate(469 33.1)"/>
    <path class="primary-fill color" d="M390.53,347.89l13.52,12.43,5.22-8.49c1.5,9.06,2.6,15.77,3.71,22.48l-2.83.73-10.77-17c-18.29,6.34-37.19,9-56.87,5l-2.15,3.62-17.78-3.78c5.7-4.82,10.1-8.56,14.1-11.95h25.44l3.75,12.2,2.92-9.62h16.82Z" transform="translate(469 33.1)"/>
    <path class="primary-fill color" d="M359.71,458.11c.07-.18.91-2.48,1.82-5L346,451.51c1.69-4.41,2.8-7.27,4.53-11.76L367,437.48c5.8,1.23,8.82-10.47,16.79-2.28l-10.19,3.23c-.63,5.35-1.13,9.56-1.62,13.77l-3-.12-2.35-8.1-2,.12v10.27h15.2l.94,2.61-7.44,4.2c-.13,2.46-.29,5.56-.54,10.5l-10.69-7.33c-17.21,6.5-17.21,6.5-27.79,2.11C340.84,457.7,351.44,465.26,359.71,458.11Z" transform="translate(469 33.1)"/>
    <path class="primary-fill color" d="M380.07,585.45c9-2,9-2,9.45-10.24l-6,.63V561.15c3.45,0,6.57-.08,9.68,0,3.29.1,6.57.35,8.83.47l8.74,12.7C398.92,585.86,386.74,590.61,380.07,585.45Z" transform="translate(469 33.1)"/>
    <path class="primary-fill color" d="M286.14,387l4.79,8-1.77,1.8-9.59-6.42H256.83l9.31,8-9.86,3.6-9.19-7.24,9.81-8.29-14.17-2.09c.64-3,1.06-5.09,1.71-8.18l5.38,3.83,19.21-.94c.71,3.12,1.19,5.24,2,8.61l9.38-4.5,5.66,3.64Z" transform="translate(469 33.1)"/>
    <path class="primary-fill color" d="M262.06,285.79V272.53l-11.8,2q3.44-7.8,6.9-15.6l11-2.64V240l.25-.48a29,29,0,0,1,3.12,25.36c-1.13,3.43-3.26,6.53-5.3,10.49.5,2.53,1.14,5.7,1.85,9.3Z" transform="translate(469 33.1)"/>
    <path class="primary-fill color" d="M354.17,513.86c7.42-1.91,13.78-4.55,20.26-4.91,5.93-.33,11.07,6,17.3,6,.26-1,.53-1.94.79-2.91l-5.94-3.34,15,1.29c-7.68,7.58-14.84,11.39-24.58,7.12l-5,5.56-4.81-6.23-17.71,8.28C351.59,519.89,352.81,517,354.17,513.86Z" transform="translate(469 33.1)"/>
    <path class="primary-fill color" d="M362,569c1.35,3,2.7,6,4.32,9.7-17.08-1.77-34.62,3.36-51.78-5.08,1.08-2,2-3.6,2.26-4.14l14.7-1.63c-.46,1.83-1,3.82-1.87,7.42l32.2-6.45Z" transform="translate(469 33.1)"/>
    <path class="primary-fill color" d="M345.87,387.6l8,1.54-3.93,2.72,4.78,4H322.83l5.43-4.1-4.18-2.42h19.13c.23-3.36.42-6.16.67-9.77L367.8,381C360.28,388.54,351,376.94,345.87,387.6Z" transform="translate(469 33.1)"/>
    <path class="primary-fill color" d="M286,386.88c.35-2.48.71-5,1.11-7.75l-24.1-6.5c4.69-4,4.51-3.43,10.45-1.49a115.5,115.5,0,0,0,20,4.22c1.49.21,3.37-2.32,5.32-3.78h16.35l-13.5,7.17-3.15,9.14-3.11-6.55L286.14,387Z" transform="translate(469 33.1)"/>
    <path class="primary-fill color" d="M348.23,552.66l-7.69-2-10.38.75c-.12-1-.24-1.95-.37-2.93l30.41-10.2,0,2.39,18.07,5.81c-.39,7.71-7.91,2.63-11.8,4.85L358.69,539Z" transform="translate(469 33.1)"/>
    <path class="primary-fill color" d="M470.9,528.89c2.84-1.19,5.69-2.38,8.5-3.58-.73,3-.71,6.48-2.32,8.87-1.93,2.85-5.24,4.77-7.65,6.83l-14.06,3.86-4.25-8.46c.81-1.72,1.74-3.7,2.77-5.91l-4-7.49.15-.19,10.39,7.3-5.66,10C464.24,539.78,468.73,535.9,470.9,528.89Z" transform="translate(469 33.1)"/>
    <path class="primary-fill color" d="M395.83,545.43l36.37-13.19c-.19-.63-.37-1.27-.56-1.91l16.82,2.18-10.45,7c-1-1.15-2-2.29-3.41-4-.89,1.76-1.67,3.3-2.14,4.21-6.67,1.06-13.06,1.5-19.1,3.19C407.92,544.43,403.16,549.9,395.83,545.43Z" transform="translate(469 33.1)"/>
    <path class="primary-fill color" d="M446.76,637.73l11.93-10.6-4.56-5.75c4-5.5,8-11,11.8-16.24H478.1l-9.25,4.08C467.15,623.18,456.73,630.5,446.76,637.73Z" transform="translate(469 33.1)"/>
    <path class="primary-fill color" d="M311.55,281.91l-.93,0c-3.27-7-5.45-14-.95-22.91l13.53,10.17h-9.44c-.23.66-.46,1.32-.68,2l14.82,6.61C321.78,276.5,315.8,275.78,311.55,281.91Z" transform="translate(469 33.1)"/>
    <path class="primary-fill color" d="M449.88,523l-9.52,1.85-5-8.82,18-10.7-3.7,7,10.88,1.51c-.15,1.85-.28,3.4-.41,5l-.18.14a62.71,62.71,0,0,1-7-2.69c-4.48-2.34-8.06-2.63-10,3.38l7.14,3.16Z" transform="translate(469 33.1)"/>
    <path class="primary-fill color" d="M352.94,608c.34-2.31.61-4.07.93-6.27l-6.48-4.64-9.18,1c2.08-7,7.89-6.89,22.12-.1C362.79,604.31,361.42,608,352.94,608Z" transform="translate(469 33.1)"/>
    <path class="cls-3" d="M232,838.92q-3.15,4.92-6.28,9.84l-2.94-2,4.32-6L222,838.86c1.05-3.68,2.1-7.37,3.41-12,3.58,2,6.07,3.39,8.55,4.79Z" transform="translate(469 33.1)"/>
    <path class="cls-2" d="M340,484l2-2.23c2.33-.26,4.79-1.12,7-.63,3.1.7,6,2.39,8.94,3.65l.17.17c-.33,1.28-.66,2.56-1,3.84l-13.19,3Z" transform="translate(469 33.1)"/>
    <path class="primary-fill color" d="M317.21,464.83l-17.88-3.68c2.95-5.43,6.05-2.33,9.73-1.11,3.91,1.3,8.41.71,12.6,1.33,3.48.51,6.87,1.59,10.31,2.42-.23,1-.46,2-.68,3.07L317.36,466Z" transform="translate(469 33.1)"/>
    <path class="primary-fill color" d="M426.12,625.71l-7.65-2.27c5.91-1.92,11-3.38,10.27-11.39,5.37-2.81,9-2.07,9.26,5.3Z" transform="translate(469 33.1)"/>
    <path class="primary-fill color" d="M415,484.12c-1.74-4.22-3.16-7.65-4.44-10.74l26,4.65Z" transform="translate(469 33.1)"/>
    <path class="primary-fill color" d="M357.1,488.81c.32-1.28.65-2.56,1-3.84L374,482.9c1.16,2.71,2.13,5,3.09,7.2L376,492.82Z" transform="translate(469 33.1)"/>
    <path class="primary-fill color" d="M381.12,387.75,375.89,391l5.65,4.91-10.08.56c-.23-2.8-.4-4.89-.66-8.07L360,393.1v-5.69l20.43-1.52Z" transform="translate(469 33.1)"/>
    <path class="primary-fill color" d="M295.74,272.68,284.35,257l19.17,3.85Z" transform="translate(469 33.1)"/>
    <path class="primary-fill color" d="M415.54,503.55h10.17c-1,2.78-1.92,5.3-3.33,9.22-5.69-7.2-17.42.76-19.48-11.68l3.56,5,8.38-3.64C415.08,502.84,415.31,503.2,415.54,503.55Z" transform="translate(469 33.1)"/>
    <path class="primary-fill color" d="M439.89,556.77c.3-1.23.6-2.47.95-3.95l-7.54-2.13,12.48-9.09,4.37,14.25-10.1,1.1Z" transform="translate(469 33.1)"/>
    <path class="primary-fill color" d="M330.2,384.89l-19.84,3.16c.28-3.72.5-6.46.75-9.74l19.25,4.1C330.31,383.24,330.25,384.07,330.2,384.89Z" transform="translate(469 33.1)"/>
    <path class="primary-fill color" d="M284.08,595.73c9.8,1.21,19.64,8,29.59-1.64.67,3.56.94,5,1.65,8.8l-31.54-4.07Z" transform="translate(469 33.1)"/>
    <path class="primary-fill color" d="M314.68,634.55l-7.18-7.47c1-1.77,2.45-4.51,4.41-8.14.57,2.48,1.06,4.63,1.61,7l12.21,2.38c-.11.63-.21,1.26-.32,1.89l-5.42-.44c.38,1.6.73,3,1.16,4.79Z" transform="translate(469 33.1)"/>
    <path class="primary-fill color" d="M340,484l3.93,7.8-8.08,3.54L336,497l-16.45-2,1.08-4.55L331,494.28c.09-1.24.19-2.67.15-2.17Z" transform="translate(469 33.1)"/>
    <path class="primary-fill color" d="M507.51,391.68l-17.6,1.46-.77-1.65L503,380.05l.8.66c-.81,1.55-1.63,3.1-2.08,4Z" transform="translate(469 33.1)"/>
    <path class="primary-fill color" d="M333.06,598.77l-14-1c-.89-3-1.76-6-3.2-10.92l17.92,9.44C333.51,597.15,333.29,598,333.06,598.77Z" transform="translate(469 33.1)"/>
    <path class="primary-fill color" d="M440.05,557c-4.43,5.11-8.24,11.73-17.54,7.56,3.32-9.84,11.16-6.93,17.38-7.74Z" transform="translate(469 33.1)"/>
    <path class="primary-fill color" d="M294.18,567.6c.44-2,.86-3.76,1.3-5.67h8.87l5.44,11.29Z" transform="translate(469 33.1)"/>
    <path class="primary-fill color" d="M336.06,452.34l-6.2-13.07-7.79,4L320.94,441l9.84-4.17,9.33,7.46Z" transform="translate(469 33.1)"/>
    <path class="primary-fill color" d="M387.1,478.13l-8.62-4.24,25-6,.42,1Z" transform="translate(469 33.1)"/>
    <path class="primary-fill color" d="M361.84,568.82c4.27-6.36,12-5.55,17.46,2.24-6.42,3.84-11.81.42-17.29-2.06Z" transform="translate(469 33.1)"/>
    <path class="primary-fill color" d="M332.31,623.87,326.79,617l8.75-11.2,2.63,1.25q-2.69,6.72-5.36,13.43Z" transform="translate(469 33.1)"/>
    <path class="primary-fill color" d="M429.45,645.6l13.9-12.09c-.56,5.75-.86,8.73-1.19,12.09Z" transform="translate(469 33.1)"/>
    <path class="primary-fill color" d="M357.91,484.8c-3-1.26-5.84-2.95-8.94-3.65-2.16-.49-4.62.37-7,.63L337.53,478l9.41-4.69Z" transform="translate(469 33.1)"/>
    <path class="cls-1" d="M513.76,494.24s.12-.57.11-.56l1.81-.19a7.4,7.4,0,0,1,.17,1.24,14.17,14.17,0,0,0-.47,1.84c-.46.12-.92.23-1.39.31l0,0C513.93,496,513.85,495.13,513.76,494.24Z" transform="translate(469 33.1)"/>
    <path class="cls-2" d="M191.92,818.73,188,816.92l1.68-.15Z" transform="translate(469 33.1)"/>
    <path class="cls-1" d="M511.81,498.14a.57.57,0,0,1,.23-.89l2-.35,0,0c0,.57-.11,1.14-.17,1.7l-1.53,1.77Z" transform="translate(469 33.1)"/>
    <path class="cls-3" d="M511.81,498.14l.48,2.21-1.72-1.61A1.54,1.54,0,0,1,511.81,498.14Z" transform="translate(469 33.1)"/>
    <path class="cls-3" d="M515.85,494.73a7.4,7.4,0,0,0-.17-1.24l.67.52Z" transform="translate(469 33.1)"/>
    <path class="cls-3" d="M189.69,816.77l-1.68.15c0-.68,0-1.36,0-2Z" transform="translate(469 33.1)"/>
    <path class="cls-3" d="M513.82,498.58c.06-.56.12-1.13.17-1.7.47-.08.93-.19,1.39-.31Z" transform="translate(469 33.1)"/>
    <path class="primary-fill color" d="M512.71,490.27l-.12-.23Z" transform="translate(469 33.1)"/>
    <path class="primary-fill color" d="M714.52,254.37c-4.65-13.6-.16-22.62,12.29-25.53,14-3.26,28.21-5.59,42.3-8.46a44.29,44.29,0,0,0,6.25-1.91c16.58,2.92,31.08,6,45.74,7.78,5.66.7,11.73-1.17,17.5-2.4,8.16-1.74,15.79-2.27,24.12,8l-24,11,5.43,6.6c-5.2.55-10.4,1.57-15.6,1.55-16.85-.05-33.7-.7-50.55-.72-11.08,0-22.17.76-33.26,1a19.73,19.73,0,0,1-7.79-1.27C728.88,246.71,721.41,246.1,714.52,254.37Z" transform="translate(469 33.1)"/>
    <path class="black" d="M567.74,366.51,564.55,361c-4.6,6.35-.1,21.08-17,15.74l7.45-3.64-10.08-5.79,4-8L540.67,353l12.49-3.73,7.65-21.64c10.79.54,8.35,7.88,9.19,13.21Q568.88,353.71,567.74,366.51Z" transform="translate(469 33.1)"/>
    <path class="primary-fill color" d="M960.26,172.1,969,188.86l-25.16,11.7L941,195.73l-13.83-10.27c.26-.75.52-1.51.79-2.26l10.42.84,15.18-3.89Z" transform="translate(469 33.1)"/>
    <path class="primary-fill color" d="M985.81,165c-1.39,4.46-2,6.58-3.19,10.26l9.11,4.86-11.31,8.67-3.22-.68c-.83-6.85-1.66-13.71-2.64-21.84Z" transform="translate(469 33.1)"/>
    <path class="cls-1" d="M618.08,366.84l-5,.8,27.64-27.39c-.17.92-.49,2.73-.82,4.54l-5.74,8c-1.36,2.06-2.73,4.11-4.09,6.16v0l-2.1-.14Z" transform="translate(469 33.1)"/>
    <path class="cls-3" d="M938,243l-22,11.92-24,4Z" transform="translate(469 33.1)"/>
    <path class="cls-1" d="M641.73,316.14l-25.6,25.24-1-1,25.05-25.64Z" transform="translate(469 33.1)"/>
    <path class="cls-1" d="M618.08,366.84l9.93-7.95,2,2q-9.08,12.86-18.16,25.69c.64-2.81,1.09-5.68,2-8.41C615.05,374.34,616.63,370.62,618.08,366.84Z" transform="translate(469 33.1)"/>
    <path class="primary-fill color" d="M600,222.9c1.59.26,3.26.95,4.75.67,2.93-.53,5.75-1.61,9.14-.63l-6.28,1.49c-1.75,5-3.3,9.53-4.86,14l-1.95-.24q-.45-7.62-.91-15.22Z" transform="translate(469 33.1)"/>
    <path class="cls-3" d="M571.89,340.75c0-1.29.07-2.57.11-3.85l13.89-12.09C582.68,331.55,582.33,340.84,571.89,340.75Z" transform="translate(469 33.1)"/>
    <path class="cls-3" d="M860.06,269c-7.63,10.6-18.87,10.15-30.08,9.83Z" transform="translate(469 33.1)"/>
    <path class="cls-3" d="M630.1,359c1.36-2.05,2.73-4.1,4.09-6.16.36,1.47.71,2.94,1.17,4.85Z" transform="translate(469 33.1)"/>
    <path class="cls-3" d="M630,360.9l-2-2,2.1.14C630.08,359.65,630,360.28,630,360.9Z" transform="translate(469 33.1)"/>
    <path class="primary-fill color" d="M-167.69,185.45c-7.91-12.15-25.95-9-40.32-14.68-13.81-5.47-27.72-10.72-35.48-24.14-20.77-12.9-40-27-57.93-46.06H-286l-.22.71,30.72,9-.77,1.29c10.1,5.07,20,10.46,30.33,15.1,10,4.51,20.37,8.25,30.15,14l8.53-1.36,41.74,15.41.21.93,21.61,3.09-1.07,3.23c6.5,1.09,13.38,1.13,19.27,3.56,5.39,2.22,9.72,7,12.41,9.09l52,23.25.36,2.55-12.86,6.52c21.24-.74,42.17-7.3,62.88-.08l25,9.18c-.1.31-.71,2.22-1.62,5.09l10.13-1.74,23.73,8.88,5.64,23.83-4.57,6.31c-7.49-2.93-14.75-5-21.21-8.46C27,239.46,5.92,241.56-14.85,240.66c-18.06-.78-36.14-2.08-54.09-4.17-12.86-1.49-24.41-5.7-34.85-15.07-9.61-8.63-22.44-13.72-34-20.15C-146.55,196.39-155.54,191.86-167.69,185.45Z" transform="translate(469 33.1)"/>
    <path class="primary-fill color" d="M-332.65,108.09c-.39,0-3.14-.33-5.89-.32s-5.23.37-8.3.61l-18.88-10.15c-1.32,3.45-2.62,6.8-4.43,11.5-8.61-9-10.07-21.8-22.55-24.86.28-2.68.54-5.13.84-8.11l11.17,6.75c-.5-4.91-.81-8-1.36-13.26l19.86,9.37c.69,1.42,1.9,3.9,3.74,7.71l2.85-4.9Z" transform="translate(469 33.1)"/>
    <path class="cls-1" d="M170,356.8c0,.75-.06,1.5-.08,2.26-6-5.12-12.53-9.74-17.91-15.44-11.39-12.08-22.22-24.69-33.17-37.17-1.38-1.57-2.15-3.68-3.2-5.54l2-1.61Z" transform="translate(469 33.1)"/>
    <path class="black" d="M174.61,313.07l10.2-11.8,2.63,1.65c-.37,2.4-.92,4.79-1.1,7.2-.42,5.77-.72,11.55-1,17.33-.18,4.43-.18,8.86-.25,13.29l-6.07-7.93q-1.4-5.26-2.78-10.51l1.69-.47Z" transform="translate(469 33.1)"/>
    <path class="primary-fill color" d="M179.06,332.81l6.07,7.93q1.43,2.67,2.88,5.35l.09,3.67c0,1.22,0,2.44,0,3.65l-8.71.82-3.32,3.6,0-.34Z" transform="translate(469 33.1)"/>
    <path class="primary-fill color" d="M-390.35,47l8.83,16.62-3.66,7C-394.27,61.11-396.53,50.13-390.35,47Z" transform="translate(469 33.1)"/>
    <path class="cls-3" d="M155.06,323.38l-22.31-25.15,2.07-1.85q11.27,12.54,22.54,25.09Z" transform="translate(469 33.1)"/>
    <path class="cls-3" d="M255.94,1398.86c-5.77,25-11.46,50.08-17.41,75.07-.91,3.79-3,7.29-4.61,10.92,4.17-22.84,2.59-46.66,13.6-68.41C250.39,1410.77,248.36,1402.59,255.94,1398.86Z" transform="translate(469 33.1)"/>
    <path class="cls-3" d="M444.15,1599c4.23-35.43-1.15-70-8.56-104.55-2.08-9.66-2.42-19.7-3.56-29.56,4,10.67,9.7,21.06,11.48,32.08,3.49,21.68,9.19,43.29,5.06,65.79-1.64,8.9-.17,18.34-.75,27.49C447.63,1593.21,445.43,1596.07,444.15,1599Z" transform="translate(469 33.1)"/>
    <path class="cls-3" d="M448.19,1624.68l-6.34.17c-.94-4-2.46-7.95-2.69-12-.3-5.24.41-10.53.69-15.8l4,5.63Z" transform="translate(469 33.1)"/>
    <path class="cls-1" d="M546.13,849.09c.62,1.28,1.23,2.56,1.85,3.83L544,856.86l-22.21,6.06C506.52,867,492.89,860.16,486,845l20-2.13-5.76,4.89,5.14,3.79L526,844.87Z" transform="translate(469 33.1)"/>
    <path class="cls-1" d="M486,845c6.89,15.19,20.52,22,35.83,17.95.6,2.83,1.21,5.67,1.88,8.81-13.75,2.17-24.52-3-35.58-6.89l-4.1-2.06-10.78-6.08c1.06-4.5,1.92-8.18,2.78-11.86Z" transform="translate(469 33.1)"/>
    <path class="cls-2" d="M484,862.78l4.1,2.06L456,869l-5.91-.11c-.53-1.79-1.05-3.58-1.78-6.06Z" transform="translate(469 33.1)"/>
    <path class="cls-1" d="M532.07,876.24l-30.75,8.09C504.27,874.83,512.35,872.77,532.07,876.24Z" transform="translate(469 33.1)"/>
    <path class="cls-2" d="M471.45,952.62l11.36-3.84c7,5.73,3.93,10.07-1.79,15.5C477.87,960.44,475.16,957.13,471.45,952.62Z" transform="translate(469 33.1)"/>
    <path class="cls-2" d="M447.83,896.71,424,897l-8.12-4.16h0c7.18-.53,14.35-1.13,21.54-1.56C442,891,447.17,889.61,447.83,896.71Z" transform="translate(469 33.1)"/>
    <path class="cls-2" d="M496.59,1021.66l6.19,9.19-6.61,5.7C489.05,1030.89,491.08,1026.61,496.59,1021.66Z" transform="translate(469 33.1)"/>
    <path class="cls-2" d="M452,888.91h14l.48,2.15-7.1,5.47c-4.29-1.42-10.06-.53-7.43-7.62Z" transform="translate(469 33.1)"/>
    <path class="cls-1" d="M518.76,931.37l7.58-4.71c.34-2.24.77-5,1.18-7.66l2.14-.55c.35,2.82,2,6.5.77,8.28-2.28,3.36-6.17,5.63-9.39,8.36Z" transform="translate(469 33.1)"/>
    <path class="cls-3" d="M284.17,910.74l18.07,5.43c1.36-5.12,2.77-10.46,4.3-16.22,6.63,3.63,13.08,7.16,19.54,10.68-.46,1-.91,2.09-1.36,3.14l-13.84-3c-1.07,1.18-2.72,3-5.39,5.89l25.21,10c-.29.9-.59,1.8-.89,2.7L282,914.85Z" transform="translate(469 33.1)"/>
    <path class="cls-2" d="M307.91,863l-22-8-9.69-8,6.12-2.34,9.59,2,24,10.33,8,5Z" transform="translate(469 33.1)"/>
    <path class="cls-1" d="M295.11,999.61c-21.91,8.26-37.69,10.17-45.1,5.29h23.45c.17-1,.35-1.92.52-2.88l-15.54-4.73c.16-.57.31-1.14.47-1.7Z" transform="translate(469 33.1)"/>
    <path class="cls-2" d="M218.56,944.81h23.65c-2.26,3-4,5.27-6,7.84l-18.81-3.9Z" transform="translate(469 33.1)"/>
    <path class="cls-2" d="M261.81,1014.73l-25.8.14-4.32-3.63.62-2.72Z" transform="translate(469 33.1)"/>
    <path class="cls-2" d="M215.93,895.11l14,3.88,8.84,5.62-1.17,1.88-23.55-7.65h0Z" transform="translate(469 33.1)"/>
    <path class="cls-3" d="M288,1036.91l-10.12,2.56,3.92,15.78,4.42,2c2.29,6.73-2.53,15.34,6.75,20.53v46.4l.66-.06c-.65,8.12-1.31,16.23-2.13,26.46l-17.39,12.55,6.62,4.44c-.83,6-1.59,11.42-2.55,18.38l-20.3-8.19c.34,5.58.56,9.08.82,13.25l-8.52,5.76c-12,1.45-24.07,4-35.94.12-.08-.76-.15-1.52-.22-2.27l40.31-3.5L240.56,1173c7.49-2.85,15.74-4,23.77,2.61l6.89-10.43H259.7c4.41-12.21,18.94-18,19.26-32.3-12.75-2.75-8.42,12-18.53,14.8,1.55-7.79,2.82-14.15,4.25-21.31l-11.22,1.21-.51-1.14L275.37,1113l-9.31-10.76,6.45-3.63c.25-11.3.66-23.24-12.08-31.75l14.78-6.81-17.82-7.33,4-4.62-9.68.64-.48-1.63,17.33-5.24-.14-1.89-35-3.46,10.56-17.54c5.91,0,11.82-.14,17.72,0,11.77.32,14.75,3,17,15.37l9.34.56Z" transform="translate(469 33.1)"/>
    <path class="cls-3" d="M214,1061.87l-13.7-2.59v12.35l-7.08.62c1.35-7,2.53-13,3.92-20.2l13.23,1,4.59,6.7Z" transform="translate(469 33.1)"/>
    <path class="black" d="M208.07,438.78l7.11,2.56c-.42-7.61-.69-12.6-1-17.58l2.05-.4c1.68,3.38,3.37,6.75,5.27,10.56H233v22.5c-7.47,3.42-14.44,4.18-20-1.21-4.27-4.15-9.37-9.15-4.93-16.41Z" transform="translate(469 33.1)"/>
    <path class="black" d="M270.17,215.9c-7.62,13.38-15.23,26.76-23.4,41.14l-10.07-6.38,29.82-37.12Z" transform="translate(469 33.1)"/>
    <path class="black" d="M237.33,301.13l-1.14,4c-8.65-.71-15.79,1.38-19.73,12.7-.74-12.14-6.35-17.47-16-19.37-1.77-.35-2.95-3.65-4.41-5.58l-.1.08c8.92.43,18,.46,24.18,6.33Z" transform="translate(469 33.1)"/>
    <path class="cls-2" d="M202.11,399c3.36,9.39,7.36,18.62,9.73,28.24.82,3.32-2.4,7.64-3.77,11.5v0l-6-39.78Z" transform="translate(469 33.1)"/>
    <path class="cls-2" d="M176.11,357.83l3.32-3.6,8.7-.81a1.7,1.7,0,0,0,1.51.65c-.29,3.87-.58,7.74-.95,12.61l-15.21,1.63Z" transform="translate(469 33.1)"/>
    <path class="cls-2" d="M204.12,392.81c-3.6-4.66-1.67-8.56,1.7-12.26,7.14,7.28,10.32,15.62,7.1,27.85C209.34,402.07,206.73,397.44,204.12,392.81Z" transform="translate(469 33.1)"/>
    <path class="cls-2" d="M208.19,376.79c-4.74-6.29-2.68-11,3.52-14.61,7.45,5.18,4.35,12.16,3.52,21.16Z" transform="translate(469 33.1)"/>
    <path class="cls-2" d="M268.13,240v16.27l-11,2.64Q262.64,249.49,268.13,240Z" transform="translate(469 33.1)"/>
    <path class="black" d="M196,292.87l-8-4.08,1.73-3.69,8.06-6.59,2.94,1.91q-2.43,6.25-4.87,12.53Z" transform="translate(469 33.1)"/>
    <path class="primary-fill color" d="M189.64,354.07a1.7,1.7,0,0,1-1.51-.65q0-1.83,0-3.66l.91-.06.88.22C189.81,351.3,189.73,352.69,189.64,354.07Z" transform="translate(469 33.1)"/>
    <path class="cls-2" d="M189.89,349.92l-.88-.22-.91.06-.09-3.67Z" transform="translate(469 33.1)"/>
    <path class="cls-3" d="M214,356.94a8.46,8.46,0,0,1-.57-1.37c0-.13.38-.36.59-.55C214,355.66,214,356.3,214,356.94Z" transform="translate(469 33.1)"/>
    <path class="cls-3" d="M443.76,1188.64l-19.48-20.21,8.45-23.48,7.26,3.91c-.49,8.45-2.77,17.43,6.56,22.24,1,5,1.87,9.38,2.85,14.27l9.41-.73,14.89,7.42,0,1.47Z" transform="translate(469 33.1)"/>
    <path class="cls-3" d="M469.34,1111.8l-14.52,7.74,11.26-22.23,3.26.91Z" transform="translate(469 33.1)"/>
    <path class="black" d="M498.31,318.3l-3.63-6.18h19.2c.51-3,1-5.76,1.52-9.2l8.15,6.72,22.9-10c-.25-.53-.51-1.05-.77-1.58l15.57-2.41,6.1,4.72c-.53,4.46-1.05,8.89-1.74,14.69l-12.82-5c-8.93,7.72-18.67,5.74-28.52,1.25l-18.45,9.78Z" transform="translate(469 33.1)"/>
    <path class="cls-2" d="M498.31,318.3l7.51,2.81q3,12.39,6.08,24.78l-12.63-1.17-3.11-8.47-2.22,0c-.23,3.07-.47,6.14-.82,10.64l-3.54-4.72L486,344.79c-1.5-2-3-4.09-3.53-4.83,1-6.64,1.77-11.81,2.55-17Z" transform="translate(469 33.1)"/>
    <path class="black" d="M499.27,255.26l-10-34.29c4.93-3.63,8.94-1.89,11.36,3.4,5.07,11.06,9.66,22.35,15.23,35.39Z" transform="translate(469 33.1)"/>
    <path class="cls-2" d="M477.87,250.18,488.32,253l4.38,19.49L476,267.82c1.73-2.2,3.45-4.4,4.88-6.24C479.74,257.38,478.8,253.78,477.87,250.18Z" transform="translate(469 33.1)"/>
    <path class="cls-3" d="M484,307.05l8.1-.16,2.76,2.14-4.88,1.87Z" transform="translate(469 33.1)"/>
    <path class="cls-1" d="M484,307.05l6,3.85c-2,.22-4,.43-6,.66l-4.4-1c.49-1.4.88-2.49,1.25-3.58Z" transform="translate(469 33.1)"/>
    <path class="cls-1" d="M437.83,76.78c.25,1.94.51,3.88.79,6L445,87.27c-5.94,16.11-11.86,32.22-18.19,49.41-9.55-3.78-18-10.66-29-5.06-.44,1.3-1.11,3.3-2.41,7.21A83.51,83.51,0,0,1,378,110.65l-2-3.75V96.57c13.71-5.4,26.83-3.71,40-1.81l-9.4,3.64-.19,2.07,18.54,4.24V90.58l-9,4.21-6-13.26-9.9-.76,18.25-1.51,6.38,7.35,2.2-.62v28.08l3.08.1q2.37-15.66,4.73-31.27l-12.72-3.62,10.5-2.58Z" transform="translate(469 33.1)"/>
    <path class="black" d="M415.93,94.76c-13.13-1.9-26.25-3.59-40,1.81V106.9l.08-.06c-.63,0-1.26-.07-1.88-.13l-6.3-4.83h-3.73L356,107.25c-.4-3.49-.8-7-1.42-12.46l-27.8,2.29-1.6,3.07-8.88-16.72c6.45-.5,12.92-1.62,19.32-1.34,12.14.54,24.25,2.7,36.36,2.62,9.33-.07,18.63-2.54,27.95-3.94l9.9.76,6,13.26Z" transform="translate(469 33.1)"/>
    <path class="cls-1" d="M357.65,165.35l7.12,2.23,20.51,6.75c-4.4,11.7-17.24,17.39-27.65,11.57-6-3.36-15.05-2.16-17.61-11Z" transform="translate(469 33.1)"/>
    <path class="cls-1" d="M344,134.92c2.64.17,5.57-.35,7.87.62,9.05,3.79,17.94,3.5,27,.33,1.7-.59,3.77-.08,5.81-.08,2.55,10.35-6.34,11.13-11.11,14.16-10.9,6.91-19.28-.31-28.22-6.75l-1.3-8.35Z" transform="translate(469 33.1)"/>
    <path class="black" d="M357.65,165.35,340,174.86l-6.06-12,4-4.06Z" transform="translate(469 33.1)"/>
    <path class="black" d="M385.28,174.33l-20.51-6.75,28.77-6.44Z" transform="translate(469 33.1)"/>
    <path class="cls-3" d="M338,158.84l-4,4.06L318.6,151.34l9.54-7C331.73,149.61,334.86,154.23,338,158.84Z" transform="translate(469 33.1)"/>
    <path class="cls-3" d="M317.89,187,304,166.86c2.74,1.78,6.48,3,8,5.47C314.68,176.77,316,182,317.89,187Z" transform="translate(469 33.1)"/>
    <path class="black" d="M376,106.9l2,3.75c-.6-.64-1.21-1.27-1.82-1.9-.06-.64-.09-1.27-.11-1.91Z" transform="translate(469 33.1)"/>
    <path class="primary-fill color" d="M364.14,101.87h0Z" transform="translate(469 33.1)"/>
    <path class="cls-1" d="M376.05,106.84c0,.64.05,1.27.11,1.91l-2-2C374.79,106.77,375.42,106.82,376.05,106.84Z" transform="translate(469 33.1)"/>
    <path class="primary-fill color" d="M477.87,250.18c.93,3.6,1.87,7.2,3,11.4-1.43,1.84-3.15,4-4.88,6.24H456.8c-.78-4.42-1.31-7.36-1.83-10.32l11.86-8.33-7.36-6,10.8-3-2.17-7.25q1-5.31,2-10.6l8.05,10.21-2.1,1.36,6.75,9.9-6-2.1C474,249,474,249,477.87,250.18Z" transform="translate(469 33.1)"/>
    <path class="primary-fill color" d="M447.59,257.21,428,261c-.15-.69-.31-1.39-.46-2.08l15.77-10.13C444.71,251.51,445.94,253.94,447.59,257.21Z" transform="translate(469 33.1)"/>
    <path class="primary-fill color" d="M454.1,292.93l19.52-5.73,5.23,3.49-24.2,4.88Z" transform="translate(469 33.1)"/>
    <path class="primary-fill color" d="M462,219q3,6.9,5.93,13.78L459.38,224l-6.06,9C451,224.71,457.05,222.18,462,219Z" transform="translate(469 33.1)"/>
    <polygon class="primary-fill color" points="948.99 337.9 948.58 337.82 948.92 337.26 948.99 337.9"/>
    <path class="black" d="M359.51,248.48l-26.36-9,1-3.91c9.74,2.44,19.45,6.72,29.21,6.83,10,.1,20.07-3.88,30.11-6.07.27,1,.53,2,.8,3Z" transform="translate(469 33.1)"/>
    <path class="cls-3" d="M215.93,895.11l-1.87,3.72c-10.23.84-14.46-7.55-20.78-12.72.32-.69.65-1.39,1-2.08Z" transform="translate(469 33.1)"/>
    <path class="cls-3" d="M174.06,885.82l14,7.13-7.18,6.11C174.47,896.16,170.85,893.15,174.06,885.82Z" transform="translate(469 33.1)"/>
    <path class="cls-3" d="M484,862.78H448.26c.73,2.48,1.25,4.27,1.78,6.06l-40.52,4.92c0,1,.05,2.06.07,3.09h19.58c.09,1.06.18,2.13.26,3.19l-26.77,4.41c-6.21,5.12-11.58,3.82-18.65-7.61l2-4c-.14-4.66,2.3-5.07,6.29-4.5,2.46.34,5.15-.91,7.73-1.44l2-2c7-1.29,13.89-2.74,20.88-3.83,10.3-1.61,20.64-2.95,31.24-4.45l-4.09-9.6,26-2.14c-.86,3.68-1.72,7.36-2.78,11.86Z" transform="translate(469 33.1)"/>
    <path class="cls-3" d="M307.91,863l16-1.14-8-5L324,849,346,852.82c.53,2.77,1.05,5.53,1.58,8.3l-5.81,14.55C329.74,874.42,317.31,873,307.91,863Z" transform="translate(469 33.1)"/>
    <path class="cls-1" d="M450.05,847l4.09,9.6c-10.6,1.5-20.94,2.84-31.24,4.45-7,1.09-13.92,2.54-20.88,3.83,2.43-1.51,4.68-3.46,7.3-4.44,6.65-2.51,13.45-4.59,20.19-6.84-.24-.71-.49-1.41-.73-2.12l-2.86-.63Z" transform="translate(469 33.1)"/>
    <path class="cls-3" d="M425.92,850.83l2.86.63c.24.71.49,1.41.73,2.12-6.74,2.25-13.54,4.33-20.19,6.84-2.62,1-4.87,2.93-7.3,4.44l-2,2-9.55-8.54L402,855Z" transform="translate(469 33.1)"/>
    <path class="cls-3" d="M354,880.9l-3.67-1.82q-.15-14.13-.29-28.26l17.9,2.2-.15,2.1-12.09,7.77C355.21,868,354.6,874.43,354,880.9Z" transform="translate(469 33.1)"/>
    <path class="cls-1" d="M324,849,316,856.93l-24-10.33Z" transform="translate(469 33.1)"/>
    <path class="cls-3" d="M526,844.87l-20.64,6.65-5.14-3.79,5.76-4.89Z" transform="translate(469 33.1)"/>
    <path class="cls-2" d="M350,850.82q.15,14.13.29,28.26v23.69l-2.78,0q0-20.85,0-41.68c-.53-2.77-1-5.53-1.58-8.3Z" transform="translate(469 33.1)"/>
    <path class="cls-2" d="M399.94,80.77c-9.32,1.4-18.62,3.87-27.95,3.94-12.11.08-24.22-2.08-36.36-2.62-6.4-.28-12.87.84-19.32,1.34l-2.4-.48-9.82-3.85-12.34-6.36c.1-.6.21-1.2.34-1.79,13.07-10.33,2.66-25.09,7.19-37.92L314.06,22.8v0l8-.21,5.43-.05L332,20.92c2.29-.19,4.72.06,6.84-.64a139.64,139.64,0,0,1,71-5.28l10,16.08c.59,3.86.88,7.8,1.83,11.57,1.88,7.5,4.12,14.9,6.21,22.34l4.47,11.71-10.5,2.58-3.67,0Zm-55-46.35q5.72,9.16,10.73,17.2l13.56-5.21q-.3-5.7-.62-11.47l1.37-.37,3.74,6.92c2.1-4.06,3.54-6.85,5.14-9.93l-8.26-3.63,10.57-4.15-18-4.23-26.88,9.63c.93,1.63,2.36,4.11,3.87,6.73Zm-2,27.83,10,6.08,7.86-1.71-10.1-12.16C348,57.14,345.63,59.52,342.9,62.25Z" transform="translate(469 33.1)"/>
    <path class="black" d="M304.09,79.1,313.91,83l-9.22,8.78v24.54l-2.15.39c-2.11-10.89-4.22-21.79-6.41-33.12Z" transform="translate(469 33.1)"/>
    <path class="black" d="M387.36,10.42,360.84.8C370.61-2.55,382.81.89,387.36,10.42Z" transform="translate(469 33.1)"/>
    <path class="cls-1" d="M332,20.92l-4.52,1.64-5.43.05-8,.21a10.27,10.27,0,0,1,1.75.09l2.22-2,7.57-2.2Z" transform="translate(469 33.1)"/>
    <path class="cls-1" d="M314.06,22.8,299.28,33c-4.53,12.83,5.88,27.59-7.19,37.92.72-10.94.33-22.11,2.58-32.71,1.3-6.11,6.4-11.72,10.73-16.73C307.41,19.19,311.94,17.27,314.06,22.8Z" transform="translate(469 33.1)"/>
    <path class="cls-3" d="M318,20.87l-2.22,2Z" transform="translate(469 33.1)"/>
    <path class="cls-2" d="M448.15,1229.08l61.64.06c5.46,21.76-3.42,35.2-16.83,39.57-4.13,1.34-9,1-13.41.68-3.87-.32-7.65-1.82-11.89-2.9-5.07-6.15-11.44-12.2-15.6-19.5C449.18,1241.92,449.35,1235.11,448.15,1229.08Z" transform="translate(469 33.1)"/>
    <path class="black" d="M432.36,76.7,427.89,65l-1.62-19.17,1.66-.63,13.74,21.62-3.84,10Z" transform="translate(469 33.1)"/>
    <path class="cls-3" d="M534,1652.84l-2,.83-.24-2.09a3.62,3.62,0,0,0,.9-.89c.43.1.87.18,1.3.25Z" transform="translate(469 33.1)"/>
    <path class="cls-2" d="M530.26,1654q-2-6.43-4-12.87l3.73,1.78q1.34,3.87,2.68,7.76a3.62,3.62,0,0,1-.9.89C531.24,1652.39,530.75,1653.21,530.26,1654Z" transform="translate(469 33.1)"/>
    <path class="cls-3" d="M288,1036.91v-2l13-3.84-8.89-6.14c.26-.9.52-1.79.77-2.69l33.83,6.17C321,1035.23,301.59,1038.88,288,1036.91Z" transform="translate(469 33.1)"/>
    <path class="cls-2" d="M354,880.9c.61-6.47,1.22-12.94,1.7-18l12.09-7.77.15,29.65-4.47-4.21-2.61,5.83L354,880.9Z" transform="translate(469 33.1)"/>
    <path class="cls-3" d="M354,880.9l6.86,5.49,2.61-5.83,4.47,4.21v19.46l-2.32.37-2.92-9.37-1.15,8.65-7.55-.65Z" transform="translate(469 33.1)"/>
    <path class="cls-3" d="M406,919l6.62-14L423,916.68c-.19.79-.38,1.57-.58,2.36Z" transform="translate(469 33.1)"/>
    <path class="cls-3" d="M415.9,892.81,424,897c-3.86.65-7.71,1.34-11.57,1.94S405,900,400.27,900.65l-3.41-5.7C403.07,888.63,409.58,891.64,415.9,892.81Z" transform="translate(469 33.1)"/>
    <path class="cls-3" d="M386,872.83l-2,4-6.22,14.85-2.44-.59V868.9Z" transform="translate(469 33.1)"/>
    <path class="cls-2" d="M418.09,1007l12.84,3.57-.63,3.49-10.29.82-5.46-2.16Z" transform="translate(469 33.1)"/>
    <path class="cls-3" d="M418.09,1007l-3.54,5.72,5.46,2.16-16.09,2.65C405.57,1007.31,412.4,1008,418.09,1007Z" transform="translate(469 33.1)"/>
    <path class="cls-2" d="M439.85,1597.06c-.28,5.27-1,10.56-.69,15.8.23,4,1.75,8,2.69,12l-5.76,2C429.42,1613.25,430.46,1606.14,439.85,1597.06Z" transform="translate(469 33.1)"/>
    <path class="cls-1" d="M230,1272.92l27.89-16.15c2.87,9.13-11,21.28-27.9,21.39v-5.24Z" transform="translate(469 33.1)"/>
    <path class="cls-1" d="M443.94,1670.88c6.15,1.26,6.16,5.77,5.6,10.58l-3.69,2.07c-1.1-2.54-2-4.57-3.14-7.24L430.13,1673q-3.11-4.12-6.22-8.23-.45-5.22-.92-10.43l2.31-1.48c2.47,2.51,4.89,5.07,7.43,7.51C436.42,1663.93,440.2,1667.39,443.94,1670.88Z" transform="translate(469 33.1)"/>
    <path class="cls-2" d="M201.86,1708.69l8.36-11.73L231,1678.51c-.38,4-.15,6.46-.91,8.59-4.08,11.49-13.93,17.35-23.59,23.23C205.61,1710.87,203.44,1709.29,201.86,1708.69Z" transform="translate(469 33.1)"/>
    <path class="primary-fill color" d="M530.26,1654c.49-.81,1-1.63,1.48-2.44l.24,2.09Z" transform="translate(469 33.1)"/>
    <path class="cls-2" d="M472,350.75c.53-2.17,1.07-4.33,2-8.08l-16.92,6-11.86-11.12,7.67-2.78-1.26-3.19-9.54-2.78c.57-2.19,1.15-4.39,2.38-9.05l22.78,8.63c-.43,3-.77,5.42-1.49,10.53l-8.66-9.81c-.69,2.77-1.29,5.21-2.09,8.44L485.93,345c-2.55,6.69-8.5,5.52-13.75,6Z" transform="translate(469 33.1)"/>
    <path class="cls-2" d="M415.52,298.84l6.52,2.47c.71-1.85,1.55-4.07,2.4-6.29l2.5-.19c.71,3.35,1.41,6.69,2.37,11.28-6.59-.95-12.56,1.4-15.46-4.07Z" transform="translate(469 33.1)"/>
    <path class="cls-2" d="M435.83,370.75l7.58-5.83,8.9,6c-.2,1.09-.41,2.18-.61,3.27l-15,.67Z" transform="translate(469 33.1)"/>
    <path class="cls-2" d="M472.18,350.91l3.47,5.52-12.22,1.28v5.86l-2.2.19c-.37-3.68-.73-7.37-1.29-13H472Z" transform="translate(469 33.1)"/>
    <path class="cls-2" d="M302.23,321c.36.9.71,1.8,1.12,2.84-3.62,2.87-11.89-.42-11.14,8h8.34c1.92,4.91,3.84,9.82,6.1,15.58H292.76l7.21,9.75-21.57,3.62-1-3.07,11.9-4.37-10.41-7.8.31-2.9,10.77-1.26.43,2.62,11.07-4.75L279.59,334l5.46-6.28c-.69-2.17-1.48-4.61-2.31-7.18l7.74-7.05c4.15,2.63,7.85,5,11.55,7.35Z" transform="translate(469 33.1)"/>
    <path class="cls-2" d="M281.4,326.78l-11.93,8-10.65-2.66,13-4.45L267.27,320Z" transform="translate(469 33.1)"/>
    <path class="cls-2" d="M450,522.82l-7.14-3.16c1.95-6,5.53-5.72,10-3.38a62.71,62.71,0,0,0,7,2.69l9.31,4.38c.35,1.19,1,3.36,1.65,5.54-2.17,7-6.66,10.89-16.14,11.19l5.66-10Z" transform="translate(469 33.1)"/>
    <path class="cls-3" d="M514,496.9l-2,.35c.57-1,1.15-2,1.72-3C513.85,495.13,513.93,496,514,496.9Z" transform="translate(469 33.1)"/>
    <path class="black" d="M418.19,79.26l3.67,0,12.72,3.62q-2.35,15.59-4.73,31.27l-3.08-.1V86l-2.2.62Z" transform="translate(469 33.1)"/>
    <path class="cls-3" d="M415.84,94.79l9-4.21v14.13l-18.54-4.24.19-2.07,9.4-3.64Z" transform="translate(469 33.1)"/>
    <path class="primary-fill color" d="M344.9,34.42l-4.81,1.49c-1.51-2.62-2.94-5.1-3.87-6.73l26.88-9.63,18,4.23-10.57,4.15,8.26,3.63c-1.6,3.08-3,5.87-5.14,9.93l-3.74-6.92-1.37.37q.31,5.76.62,11.47l-13.56,5.21Q350.64,43.6,344.9,34.42Z" transform="translate(469 33.1)"/>
    <path class="primary-fill color" d="M342.9,62.25c2.73-2.73,5.1-5.11,7.76-7.79l10.1,12.16-7.86,1.71Z" transform="translate(469 33.1)"/>
    <path class="black" d="M322.09,22.61l5.43-.05Z" transform="translate(469 33.1)"/>
  </g>
</svg>
